<?xml version="1.0" encoding="UTF-8" standalone="no"?>
<!DOCTYPE svg PUBLIC "-//W3C//DTD SVG 1.1//EN"
 "http://www.w3.org/Graphics/SVG/1.1/DTD/svg11.dtd">
<!-- Generated by graphviz version 12.1.2 (20240928.0832)
 -->
<!-- Title: 0bc887c1&#45;c102&#45;4d3c&#45;bced&#45;643b722789fe Pages: 1 -->
<svg width="381pt" height="82pt"
 viewBox="0.00 0.00 380.75 82.10" xmlns="http://www.w3.org/2000/svg" xmlns:xlink="http://www.w3.org/1999/xlink">
<g id="graph0" class="graph" transform="scale(1 1) rotate(0) translate(4 78.1)">
<title>0bc887c1&#45;c102&#45;4d3c&#45;bced&#45;643b722789fe</title>
<polygon fill="white" stroke="none" points="-4,4 -4,-78.1 376.75,-78.1 376.75,4 -4,4"/>
<!-- Queued -->
<g id="node1" class="node">
<title>Queued</title>
<defs>
<linearGradient id="node1_l_0" gradientUnits="userSpaceOnUse" x1="11.35" y1="-8.87" x2="66.15" y2="-34.33" >
<stop offset="0" style="stop-color:#4b9969;stop-opacity:1.;"/>
<stop offset="1" style="stop-color:#d4001f;stop-opacity:1.;"/>
</linearGradient>
</defs>
<polygon fill="url(#node1_l_0)" stroke="black" points="77.5,-39.6 0,-39.6 0,-3.6 77.5,-3.6 77.5,-39.6"/>
<text text-anchor="middle" x="38.75" y="-17.32" font-family="Times New Roman,serif" font-size="12.00">Queued: 383</text>
</g>
<!-- Queued&#45;&gt;Queued -->
<g id="edge3" class="edge">
<title>Queued&#45;&gt;Queued</title>
<path fill="none" stroke="black" d="M26.65,-39.75C24.79,-49.14 28.82,-57.6 38.75,-57.6 44.33,-57.6 48.05,-54.92 49.91,-50.91"/>
<polygon fill="black" stroke="black" points="53.37,-51.52 50.72,-41.26 46.39,-50.93 53.37,-51.52"/>
<text text-anchor="middle" x="38.75" y="-60.8" font-family="Times New Roman,serif" font-size="14.00">55</text>
</g>
<!-- Accepted -->
<g id="node3" class="node">
<title>Accepted</title>
<defs>
<linearGradient id="node3_l_1" gradientUnits="userSpaceOnUse" x1="147.08" y1="-8.87" x2="211.42" y2="-34.33" >
<stop offset="0" style="stop-color:#4b9969;stop-opacity:1.;"/>
<stop offset="1" style="stop-color:#d4001f;stop-opacity:1.;"/>
</linearGradient>
</defs>
<polygon fill="url(#node3_l_1)" stroke="black" points="224.75,-39.6 133.75,-39.6 133.75,-3.6 224.75,-3.6 224.75,-39.6"/>
<text text-anchor="middle" x="179.25" y="-17.32" font-family="Times New Roman,serif" font-size="12.00">Accepted: 1581</text>
</g>
<!-- Queued&#45;&gt;Accepted -->
<g id="edge4" class="edge">
<title>Queued&#45;&gt;Accepted</title>
<path fill="none" stroke="black" d="M77.96,-21.6C91.62,-21.6 107.3,-21.6 122.15,-21.6"/>
<polygon fill="black" stroke="black" points="121.78,-25.1 131.78,-21.6 121.78,-18.1 121.78,-25.1"/>
<text text-anchor="middle" x="105.62" y="-24.8" font-family="Times New Roman,serif" font-size="14.00">235</text>
</g>
<!-- Completed -->
<g id="node2" class="node">
<title>Completed</title>
<defs>
<linearGradient id="node2_l_2" gradientUnits="userSpaceOnUse" x1="294.44" y1="-8.87" x2="359.31" y2="-34.33" >
<stop offset="0" style="stop-color:#4b9969;stop-opacity:1.;"/>
<stop offset="1" style="stop-color:#d4001f;stop-opacity:1.;"/>
</linearGradient>
</defs>
<polygon fill="url(#node2_l_2)" stroke="black" points="372.75,-39.6 281,-39.6 281,-3.6 372.75,-3.6 372.75,-39.6"/>
<text text-anchor="middle" x="326.88" y="-17.32" font-family="Times New Roman,serif" font-size="12.00">Completed: 387</text>
</g>
<!-- Completed&#45;&gt;Accepted -->
<g id="edge5" class="edge">
<title>Completed&#45;&gt;Accepted</title>
<path fill="none" stroke="black" d="M280.86,-3.71C268.58,-0.69 255.23,0.9 242.75,-1.1 240.59,-1.44 238.41,-1.85 236.22,-2.31"/>
<polygon fill="black" stroke="black" points="235.59,1.14 226.7,-4.62 237.25,-5.66 235.59,1.14"/>
<text text-anchor="middle" x="252.88" y="-4.3" font-family="Times New Roman,serif" font-size="14.00">31</text>
</g>
<!-- Accepted&#45;&gt;Queued -->
<g id="edge1" class="edge">
<title>Accepted&#45;&gt;Queued</title>
<path fill="none" stroke="black" d="M133.34,-5.19C121.13,-2.47 107.85,-1.1 95.5,-3.1 93.31,-3.45 91.09,-3.88 88.86,-4.36"/>
<polygon fill="black" stroke="black" points="88.02,-0.97 79.2,-6.83 89.75,-7.75 88.02,-0.97"/>
<text text-anchor="middle" x="105.62" y="-6.3" font-family="Times New Roman,serif" font-size="14.00">269</text>
</g>
<!-- Accepted&#45;&gt;Completed -->
<g id="edge2" class="edge">
<title>Accepted&#45;&gt;Completed</title>
<path fill="none" stroke="black" d="M225.13,-21.6C239.04,-21.6 254.56,-21.6 269.17,-21.6"/>
<polygon fill="black" stroke="black" points="269.13,-25.1 279.13,-21.6 269.13,-18.1 269.13,-25.1"/>
<text text-anchor="middle" x="252.88" y="-24.8" font-family="Times New Roman,serif" font-size="14.00">386</text>
</g>
<!-- Accepted&#45;&gt;Accepted -->
<g id="edge6" class="edge">
<title>Accepted&#45;&gt;Accepted</title>
<path fill="none" stroke="black" d="M165.93,-39.75C163.88,-49.14 168.32,-57.6 179.25,-57.6 185.4,-57.6 189.49,-54.92 191.53,-50.91"/>
<polygon fill="black" stroke="black" points="194.99,-51.54 192.43,-41.26 188.02,-50.89 194.99,-51.54"/>
<text text-anchor="middle" x="179.25" y="-60.8" font-family="Times New Roman,serif" font-size="14.00">556</text>
</g>
</g>
</svg>
