<?xml version="1.0" encoding="UTF-8" standalone="no"?>
<!DOCTYPE svg PUBLIC "-//W3C//DTD SVG 1.1//EN"
 "http://www.w3.org/Graphics/SVG/1.1/DTD/svg11.dtd">
<!-- Generated by graphviz version 12.1.2 (20240928.0832)
 -->
<!-- Title: eff2e067&#45;94b0&#45;493d&#45;9364&#45;08e410225366 Pages: 1 -->
<svg width="371pt" height="183pt"
 viewBox="0.00 0.00 371.00 182.82" xmlns="http://www.w3.org/2000/svg" xmlns:xlink="http://www.w3.org/1999/xlink">
<g id="graph0" class="graph" transform="scale(1 1) rotate(0) translate(4 178.82)">
<title>eff2e067&#45;94b0&#45;493d&#45;9364&#45;08e410225366</title>
<polygon fill="white" stroke="none" points="-4,4 -4,-178.82 367,-178.82 367,4 -4,4"/>
<!-- Accepted -->
<g id="node1" class="node">
<title>Accepted</title>
<polygon fill="#4b9969" stroke="black" points="91,-104.51 0,-104.51 0,-68.51 91,-68.51 91,-104.51"/>
<text text-anchor="middle" x="45.5" y="-82.23" font-family="Times New Roman,serif" font-size="12.00">Accepted: 4207</text>
</g>
<!-- Accepted&#45;&gt;Accepted -->
<g id="edge9" class="edge">
<title>Accepted&#45;&gt;Accepted</title>
<path fill="none" stroke="black" d="M33.4,-104.66C31.54,-114.05 35.57,-122.51 45.5,-122.51 51.08,-122.51 54.8,-119.83 56.66,-115.82"/>
<polygon fill="black" stroke="black" points="60.12,-116.43 57.47,-106.17 53.14,-115.84 60.12,-116.43"/>
<text text-anchor="middle" x="45.5" y="-125.71" font-family="Times New Roman,serif" font-size="14.00">1882</text>
</g>
<!-- Completed -->
<g id="node2" class="node">
<title>Completed</title>
<defs>
<linearGradient id="node2_l_0" gradientUnits="userSpaceOnUse" x1="279.57" y1="-126.78" x2="348.68" y2="-152.24" >
<stop offset="0" style="stop-color:#4b9969;stop-opacity:1.;"/>
<stop offset="1" style="stop-color:#d4001f;stop-opacity:1.;"/>
</linearGradient>
</defs>
<polygon fill="url(#node2_l_0)" stroke="black" points="363,-157.51 265.25,-157.51 265.25,-121.51 363,-121.51 363,-157.51"/>
<text text-anchor="middle" x="314.12" y="-135.23" font-family="Times New Roman,serif" font-size="12.00">Completed: 1568</text>
</g>
<!-- Accepted&#45;&gt;Completed -->
<g id="edge5" class="edge">
<title>Accepted&#45;&gt;Completed</title>
<path fill="none" stroke="black" d="M64.62,-104.93C81.04,-120.2 106.73,-140.77 133.75,-149.51 172.45,-162.02 218.26,-159.19 253.9,-153.41"/>
<polygon fill="black" stroke="black" points="254.35,-156.88 263.6,-151.7 253.14,-149.98 254.35,-156.88"/>
<text text-anchor="middle" x="178.12" y="-161.52" font-family="Times New Roman,serif" font-size="14.00">1562</text>
</g>
<!-- Unmatched -->
<g id="node3" class="node">
<title>Unmatched</title>
<polygon fill="#4b9969" stroke="black" points="222.5,-103.51 133.75,-103.51 133.75,-67.51 222.5,-67.51 222.5,-103.51"/>
<text text-anchor="middle" x="178.12" y="-81.23" font-family="Times New Roman,serif" font-size="12.00">Unmatched: 10</text>
</g>
<!-- Accepted&#45;&gt;Unmatched -->
<g id="edge10" class="edge">
<title>Accepted&#45;&gt;Unmatched</title>
<path fill="none" stroke="black" d="M91.44,-69.09C97.28,-67.41 103.23,-65.97 109,-65.01 114.64,-64.07 120.47,-64.13 126.24,-64.88"/>
<polygon fill="black" stroke="black" points="125.2,-68.24 135.69,-66.77 126.57,-61.38 125.2,-68.24"/>
<text text-anchor="middle" x="112.38" y="-68.21" font-family="Times New Roman,serif" font-size="14.00">9</text>
</g>
<!-- Queued -->
<g id="node4" class="node">
<title>Queued</title>
<polygon fill="#4b9969" stroke="black" points="352.88,-50.51 275.38,-50.51 275.38,-14.51 352.88,-14.51 352.88,-50.51"/>
<text text-anchor="middle" x="314.12" y="-28.23" font-family="Times New Roman,serif" font-size="12.00">Queued: 875</text>
</g>
<!-- Accepted&#45;&gt;Queued -->
<g id="edge4" class="edge">
<title>Accepted&#45;&gt;Queued</title>
<path fill="none" stroke="black" d="M75.14,-68.04C91.6,-58.43 113.06,-47.56 133.75,-42.01 176.55,-30.52 227.12,-28.86 263.63,-29.65"/>
<polygon fill="black" stroke="black" points="263.35,-33.15 273.45,-29.95 263.56,-26.15 263.35,-33.15"/>
<text text-anchor="middle" x="178.12" y="-45.21" font-family="Times New Roman,serif" font-size="14.00">754</text>
</g>
<!-- Completed&#45;&gt;Accepted -->
<g id="edge2" class="edge">
<title>Completed&#45;&gt;Accepted</title>
<path fill="none" stroke="black" d="M265.03,-134.85C223.24,-130.07 161.36,-121.21 109,-106.51 106.77,-105.88 104.5,-105.23 102.22,-104.56"/>
<polygon fill="black" stroke="black" points="103.48,-101.29 92.9,-101.75 101.46,-107.99 103.48,-101.29"/>
<text text-anchor="middle" x="178.12" y="-132.48" font-family="Times New Roman,serif" font-size="14.00">81</text>
</g>
<!-- Unmatched&#45;&gt;Accepted -->
<g id="edge8" class="edge">
<title>Unmatched&#45;&gt;Accepted</title>
<path fill="none" stroke="black" d="M133.41,-85.84C123.61,-85.92 113.07,-86 102.83,-86.08"/>
<polygon fill="black" stroke="black" points="102.94,-82.58 92.97,-86.15 102.99,-89.58 102.94,-82.58"/>
<text text-anchor="middle" x="112.38" y="-89.21" font-family="Times New Roman,serif" font-size="14.00">3</text>
</g>
<!-- Unmatched&#45;&gt;Completed -->
<g id="edge6" class="edge">
<title>Unmatched&#45;&gt;Completed</title>
<path fill="none" stroke="black" d="M222.98,-99.9C231.1,-102.78 239.47,-105.88 247.25,-109.01 252.95,-111.3 258.87,-113.83 264.71,-116.42"/>
<polygon fill="black" stroke="black" points="263.16,-119.56 273.72,-120.48 266.04,-113.18 263.16,-119.56"/>
<text text-anchor="middle" x="243.88" y="-112.21" font-family="Times New Roman,serif" font-size="14.00">5</text>
</g>
<!-- Unmatched&#45;&gt;Queued -->
<g id="edge1" class="edge">
<title>Unmatched&#45;&gt;Queued</title>
<path fill="none" stroke="black" d="M222.63,-68.3C236.02,-63.01 250.84,-57.15 264.54,-51.73"/>
<polygon fill="black" stroke="black" points="265.83,-54.98 273.84,-48.05 263.25,-48.47 265.83,-54.98"/>
<text text-anchor="middle" x="243.88" y="-63.8" font-family="Times New Roman,serif" font-size="14.00">2</text>
</g>
<!-- Queued&#45;&gt;Accepted -->
<g id="edge7" class="edge">
<title>Queued&#45;&gt;Accepted</title>
<path fill="none" stroke="black" d="M275.14,-17.18C237.96,-4.55 180.28,8.67 133.75,-9.01 107.06,-19.15 83.31,-41.62 67.36,-59.76"/>
<polygon fill="black" stroke="black" points="64.94,-57.2 61.15,-67.09 70.28,-61.72 64.94,-57.2"/>
<text text-anchor="middle" x="178.12" y="-12.21" font-family="Times New Roman,serif" font-size="14.00">809</text>
</g>
<!-- Queued&#45;&gt;Queued -->
<g id="edge3" class="edge">
<title>Queued&#45;&gt;Queued</title>
<path fill="none" stroke="black" d="M301.42,-50.66C299.46,-60.05 303.7,-68.51 314.12,-68.51 319.99,-68.51 323.9,-65.83 325.84,-61.82"/>
<polygon fill="black" stroke="black" points="329.3,-62.44 326.7,-52.17 322.33,-61.82 329.3,-62.44"/>
<text text-anchor="middle" x="314.12" y="-71.71" font-family="Times New Roman,serif" font-size="14.00">66</text>
</g>
</g>
</svg>
