<?xml version="1.0" encoding="UTF-8" standalone="no"?>
<!DOCTYPE svg PUBLIC "-//W3C//DTD SVG 1.1//EN"
 "http://www.w3.org/Graphics/SVG/1.1/DTD/svg11.dtd">
<!-- Generated by graphviz version 12.1.2 (20240928.0832)
 -->
<!-- Title: 5f18c928&#45;ff44&#45;4e8b&#45;b001&#45;96279ed53ee8 Pages: 1 -->
<svg width="548pt" height="225pt"
 viewBox="0.00 0.00 548.25 224.50" xmlns="http://www.w3.org/2000/svg" xmlns:xlink="http://www.w3.org/1999/xlink">
<g id="graph0" class="graph" transform="scale(1 1) rotate(0) translate(4 220.5)">
<title>5f18c928&#45;ff44&#45;4e8b&#45;b001&#45;96279ed53ee8</title>
<polygon fill="white" stroke="none" points="-4,4 -4,-220.5 544.25,-220.5 544.25,4 -4,4"/>
<!-- Accepted -->
<g id="node1" class="node">
<title>Accepted</title>
<defs>
<linearGradient id="node1_l_0" gradientUnits="userSpaceOnUse" x1="14.1" y1="-88.27" x2="82.15" y2="-113.73" >
<stop offset="0" style="stop-color:#4b9969;stop-opacity:1.;"/>
<stop offset="1" style="stop-color:#d4001f;stop-opacity:1.;"/>
</linearGradient>
</defs>
<polygon fill="url(#node1_l_0)" stroke="black" points="96.25,-119 0,-119 0,-83 96.25,-83 96.25,-119"/>
<text text-anchor="middle" x="48.12" y="-96.72" font-family="Times New Roman,serif" font-size="12.00">Accepted: 40117</text>
</g>
<!-- Accepted&#45;&gt;Accepted -->
<g id="edge2" class="edge">
<title>Accepted&#45;&gt;Accepted</title>
<path fill="none" stroke="black" d="M33.11,-119.15C30.8,-128.54 35.8,-137 48.12,-137 55.06,-137 59.67,-134.32 61.97,-130.31"/>
<polygon fill="black" stroke="black" points="65.42,-130.97 62.98,-120.66 58.46,-130.24 65.42,-130.97"/>
<text text-anchor="middle" x="48.12" y="-140.2" font-family="Times New Roman,serif" font-size="14.00">22527</text>
</g>
<!-- Queued -->
<g id="node2" class="node">
<title>Queued</title>
<polygon fill="#4b9969" stroke="black" points="254.75,-182 166,-182 166,-146 254.75,-146 254.75,-182"/>
<text text-anchor="middle" x="210.38" y="-159.72" font-family="Times New Roman,serif" font-size="12.00">Queued: 11544</text>
</g>
<!-- Accepted&#45;&gt;Queued -->
<g id="edge7" class="edge">
<title>Accepted&#45;&gt;Queued</title>
<path fill="none" stroke="black" d="M67.03,-119.41C79.22,-130.77 96.36,-144.54 114.25,-152 126.85,-157.25 141.15,-160.37 154.75,-162.19"/>
<polygon fill="black" stroke="black" points="154.14,-165.64 164.46,-163.25 154.91,-158.68 154.14,-165.64"/>
<text text-anchor="middle" x="131.12" y="-164.21" font-family="Times New Roman,serif" font-size="14.00">9498</text>
</g>
<!-- Completed -->
<g id="node3" class="node">
<title>Completed</title>
<defs>
<linearGradient id="node3_l_1" gradientUnits="userSpaceOnUse" x1="326.19" y1="-88.27" x2="399.56" y2="-113.73" >
<stop offset="0" style="stop-color:#4b9969;stop-opacity:1.;"/>
<stop offset="1" style="stop-color:#d4001f;stop-opacity:1.;"/>
</linearGradient>
</defs>
<polygon fill="url(#node3_l_1)" stroke="black" points="414.75,-119 311,-119 311,-83 414.75,-83 414.75,-119"/>
<text text-anchor="middle" x="362.88" y="-96.72" font-family="Times New Roman,serif" font-size="12.00">Completed: 13867</text>
</g>
<!-- Accepted&#45;&gt;Completed -->
<g id="edge6" class="edge">
<title>Accepted&#45;&gt;Completed</title>
<path fill="none" stroke="black" d="M96.62,-101C150.81,-101 239.6,-101 299.37,-101"/>
<polygon fill="black" stroke="black" points="299.03,-104.5 309.03,-101 299.03,-97.5 299.03,-104.5"/>
<text text-anchor="middle" x="210.38" y="-104.2" font-family="Times New Roman,serif" font-size="14.00">8084</text>
</g>
<!-- Queued&#45;&gt;Accepted -->
<g id="edge5" class="edge">
<title>Queued&#45;&gt;Accepted</title>
<path fill="none" stroke="black" d="M171.33,-145.62C163.66,-142.12 155.62,-138.59 148,-135.5 134.91,-130.19 120.65,-124.92 107.14,-120.17"/>
<polygon fill="black" stroke="black" points="108.53,-116.94 97.94,-116.96 106.23,-123.55 108.53,-116.94"/>
<text text-anchor="middle" x="131.12" y="-138.7" font-family="Times New Roman,serif" font-size="14.00">10729</text>
</g>
<!-- Queued&#45;&gt;Queued -->
<g id="edge9" class="edge">
<title>Queued&#45;&gt;Queued</title>
<path fill="none" stroke="black" d="M197.26,-182.15C195.24,-191.54 199.61,-200 210.38,-200 216.43,-200 220.46,-197.32 222.47,-193.31"/>
<polygon fill="black" stroke="black" points="225.93,-193.94 223.35,-183.66 218.96,-193.3 225.93,-193.94"/>
<text text-anchor="middle" x="210.38" y="-203.2" font-family="Times New Roman,serif" font-size="14.00">777</text>
</g>
<!-- Queued&#45;&gt;Completed -->
<g id="edge11" class="edge">
<title>Queued&#45;&gt;Completed</title>
<path fill="none" stroke="black" d="M255.22,-161.56C267.76,-159.8 281.22,-156.87 293,-152 307.79,-145.89 322.32,-135.91 334.18,-126.39"/>
<polygon fill="black" stroke="black" points="336.11,-129.34 341.54,-120.24 331.62,-123.97 336.11,-129.34"/>
<text text-anchor="middle" x="282.88" y="-161.31" font-family="Times New Roman,serif" font-size="14.00">38</text>
</g>
<!-- Completed&#45;&gt;Accepted -->
<g id="edge1" class="edge">
<title>Completed&#45;&gt;Accepted</title>
<path fill="none" stroke="black" d="M321.07,-82.58C301.45,-74.71 277.33,-66.44 254.75,-62.5 215.89,-55.73 204.95,-56.25 166,-62.5 145.45,-65.8 123.62,-72.16 104.45,-78.78"/>
<polygon fill="black" stroke="black" points="103.47,-75.41 95.23,-82.07 105.82,-82 103.47,-75.41"/>
<text text-anchor="middle" x="210.38" y="-65.7" font-family="Times New Roman,serif" font-size="14.00">462</text>
</g>
<!-- Completed&#45;&gt;Queued -->
<g id="edge10" class="edge">
<title>Completed&#45;&gt;Queued</title>
<path fill="none" stroke="black" d="M312.61,-119.41C299.58,-124.46 285.58,-130.05 272.75,-135.5 268.73,-137.21 264.58,-139.02 260.43,-140.88"/>
<polygon fill="black" stroke="black" points="259.21,-137.59 251.54,-144.9 262.1,-143.96 259.21,-137.59"/>
<text text-anchor="middle" x="282.88" y="-138.7" font-family="Times New Roman,serif" font-size="14.00">113</text>
</g>
<!-- Completed&#45;&gt;Completed -->
<g id="edge8" class="edge">
<title>Completed&#45;&gt;Completed</title>
<path fill="none" stroke="black" d="M349.62,-119.15C347.58,-128.54 352,-137 362.88,-137 368.99,-137 373.06,-134.32 375.1,-130.31"/>
<polygon fill="black" stroke="black" points="378.55,-130.94 375.99,-120.66 371.58,-130.3 378.55,-130.94"/>
<text text-anchor="middle" x="362.88" y="-140.2" font-family="Times New Roman,serif" font-size="14.00">5741</text>
</g>
<!-- Unmatched -->
<g id="node4" class="node">
<title>Unmatched</title>
<polygon fill="white" stroke="black" points="540.25,-36 457.5,-36 457.5,0 540.25,0 540.25,-36"/>
<text text-anchor="middle" x="498.88" y="-13.72" font-family="Times New Roman,serif" font-size="12.00">Unmatched: 5</text>
</g>
<!-- Completed&#45;&gt;Unmatched -->
<g id="edge4" class="edge">
<title>Completed&#45;&gt;Unmatched</title>
<path fill="none" stroke="black" d="M393.61,-82.58C412.78,-70.71 437.92,-55.14 458.71,-42.26"/>
<polygon fill="black" stroke="black" points="460.27,-45.41 466.93,-37.17 456.59,-39.46 460.27,-45.41"/>
<text text-anchor="middle" x="436.12" y="-60.21" font-family="Times New Roman,serif" font-size="14.00">5</text>
</g>
<!-- Unmatched&#45;&gt;Accepted -->
<g id="edge3" class="edge">
<title>Unmatched&#45;&gt;Accepted</title>
<path fill="none" stroke="black" d="M457,-16.62C385.33,-15.51 233.27,-19.03 114.25,-62 104.05,-65.68 93.69,-71.02 84.31,-76.58"/>
<polygon fill="black" stroke="black" points="82.52,-73.57 75.87,-81.82 86.21,-79.52 82.52,-73.57"/>
<text text-anchor="middle" x="282.88" y="-28.99" font-family="Times New Roman,serif" font-size="14.00">5</text>
</g>
</g>
</svg>
