<?xml version="1.0" encoding="UTF-8" standalone="no"?>
<!DOCTYPE svg PUBLIC "-//W3C//DTD SVG 1.1//EN"
 "http://www.w3.org/Graphics/SVG/1.1/DTD/svg11.dtd">
<!-- Generated by graphviz version 12.1.2 (20240928.0832)
 -->
<!-- Title: 043b8790&#45;f769&#45;43ac&#45;816e&#45;371eecf1d420 Pages: 1 -->
<svg width="3863pt" height="2227pt"
 viewBox="0.00 0.00 3863.25 2226.50" xmlns="http://www.w3.org/2000/svg" xmlns:xlink="http://www.w3.org/1999/xlink">
<g id="graph0" class="graph" transform="scale(1 1) rotate(0) translate(4 2222.5)">
<title>043b8790&#45;f769&#45;43ac&#45;816e&#45;371eecf1d420</title>
<polygon fill="white" stroke="none" points="-4,4 -4,-2222.5 3859.25,-2222.5 3859.25,4 -4,4"/>
<!-- A_SUBMITTED -->
<g id="node1" class="node">
<title>A_SUBMITTED</title>
<polygon fill="#4b9969" stroke="black" points="136.75,-861 0,-861 0,-825 136.75,-825 136.75,-861"/>
<text text-anchor="middle" x="68.38" y="-838.73" font-family="Times New Roman,serif" font-size="12.00">A_SUBMITTED: 13087</text>
</g>
<!-- A_PARTLYSUBMITTED -->
<g id="node4" class="node">
<title>A_PARTLYSUBMITTED</title>
<polygon fill="white" stroke="black" points="387.5,-861 206.5,-861 206.5,-825 387.5,-825 387.5,-861"/>
<text text-anchor="middle" x="297" y="-838.73" font-family="Times New Roman,serif" font-size="12.00">A_PARTLYSUBMITTED: 13087</text>
</g>
<!-- A_SUBMITTED&#45;&gt;A_PARTLYSUBMITTED -->
<g id="edge35" class="edge">
<title>A_SUBMITTED&#45;&gt;A_PARTLYSUBMITTED</title>
<path fill="none" stroke="black" d="M137.06,-843C155.16,-843 175.12,-843 194.61,-843"/>
<polygon fill="black" stroke="black" points="194.5,-846.5 204.5,-843 194.5,-839.5 194.5,-846.5"/>
<text text-anchor="middle" x="171.62" y="-846.2" font-family="Times New Roman,serif" font-size="14.00">13087</text>
</g>
<!-- O_CREATED -->
<g id="node2" class="node">
<title>O_CREATED</title>
<polygon fill="white" stroke="black" points="1576.25,-1412 1459.75,-1412 1459.75,-1376 1576.25,-1376 1576.25,-1412"/>
<text text-anchor="middle" x="1518" y="-1389.72" font-family="Times New Roman,serif" font-size="12.00">O_CREATED: 7030</text>
</g>
<!-- O_SENT -->
<g id="node11" class="node">
<title>O_SENT</title>
<polygon fill="white" stroke="black" points="1730.25,-717 1639.25,-717 1639.25,-681 1730.25,-681 1730.25,-717"/>
<text text-anchor="middle" x="1684.75" y="-694.73" font-family="Times New Roman,serif" font-size="12.00">O_SENT: 7030</text>
</g>
<!-- O_CREATED&#45;&gt;O_SENT -->
<g id="edge125" class="edge">
<title>O_CREATED&#45;&gt;O_SENT</title>
<path fill="none" stroke="black" d="M1526.59,-1375.56C1538.5,-1346.08 1561.72,-1286.3 1576.25,-1234 1628.95,-1044.29 1666.93,-810 1679.36,-728.55"/>
<polygon fill="black" stroke="black" points="1682.81,-729.14 1680.85,-718.73 1675.89,-728.1 1682.81,-729.14"/>
<text text-anchor="middle" x="1607.75" y="-1165.44" font-family="Times New Roman,serif" font-size="14.00">7030</text>
</g>
<!-- A_ACTIVATED -->
<g id="node3" class="node">
<title>A_ACTIVATED</title>
<polygon fill="white" stroke="black" points="2191.25,-983 2063.5,-983 2063.5,-947 2191.25,-947 2191.25,-983"/>
<text text-anchor="middle" x="2127.38" y="-960.73" font-family="Times New Roman,serif" font-size="12.00">A_ACTIVATED: 2246</text>
</g>
<!-- O_ACCEPTED -->
<g id="node10" class="node">
<title>O_ACCEPTED</title>
<polygon fill="white" stroke="black" points="2379,-848 2254.25,-848 2254.25,-812 2379,-812 2379,-848"/>
<text text-anchor="middle" x="2316.62" y="-825.73" font-family="Times New Roman,serif" font-size="12.00">O_ACCEPTED: 2243</text>
</g>
<!-- A_ACTIVATED&#45;&gt;O_ACCEPTED -->
<g id="edge92" class="edge">
<title>A_ACTIVATED&#45;&gt;O_ACCEPTED</title>
<path fill="none" stroke="black" d="M2148.32,-946.7C2164.3,-932.39 2187.55,-912.34 2209.25,-896.5 2229.86,-881.45 2253.9,-866.24 2273.9,-854.17"/>
<polygon fill="black" stroke="black" points="2275.57,-857.25 2282.36,-849.12 2271.98,-851.24 2275.57,-857.25"/>
<text text-anchor="middle" x="2222.75" y="-899.7" font-family="Times New Roman,serif" font-size="14.00">196</text>
</g>
<!-- A_APPROVED -->
<g id="node13" class="node">
<title>A_APPROVED</title>
<polygon fill="white" stroke="black" points="2788.62,-1135 2662.38,-1135 2662.38,-1099 2788.62,-1099 2788.62,-1135"/>
<text text-anchor="middle" x="2725.5" y="-1112.72" font-family="Times New Roman,serif" font-size="12.00">A_APPROVED: 2246</text>
</g>
<!-- A_ACTIVATED&#45;&gt;A_APPROVED -->
<g id="edge9" class="edge">
<title>A_ACTIVATED&#45;&gt;A_APPROVED</title>
<path fill="none" stroke="black" d="M2191.74,-972.13C2313.34,-986.31 2570.22,-1018.83 2602,-1044 2618.24,-1056.86 2604.52,-1073.23 2620,-1087 2629.02,-1095.02 2640.05,-1100.9 2651.52,-1105.22"/>
<polygon fill="black" stroke="black" points="2650.11,-1108.44 2660.71,-1108.28 2652.33,-1101.8 2650.11,-1108.44"/>
<text text-anchor="middle" x="2410.5" y="-1005.87" font-family="Times New Roman,serif" font-size="14.00">413</text>
</g>
<!-- A_REGISTERED -->
<g id="node16" class="node">
<title>A_REGISTERED</title>
<polygon fill="#d4001f" stroke="black" points="2991.75,-1122 2855.75,-1122 2855.75,-1086 2991.75,-1086 2991.75,-1122"/>
<text text-anchor="middle" x="2923.75" y="-1099.72" font-family="Times New Roman,serif" font-size="12.00">A_REGISTERED: 2246</text>
</g>
<!-- A_ACTIVATED&#45;&gt;A_REGISTERED -->
<g id="edge56" class="edge">
<title>A_ACTIVATED&#45;&gt;A_REGISTERED</title>
<path fill="none" stroke="black" d="M2163.15,-983.44C2241.81,-1023.97 2440.51,-1119.85 2620,-1153 2715.61,-1170.66 2744.57,-1159.75 2837.75,-1132 2844.3,-1130.05 2851.1,-1127.94 2857.89,-1125.79"/>
<polygon fill="black" stroke="black" points="2858.59,-1129.24 2867.04,-1122.85 2856.45,-1122.58 2858.59,-1129.24"/>
<text text-anchor="middle" x="2522" y="-1152.19" font-family="Times New Roman,serif" font-size="14.00">679</text>
</g>
<!-- W_Valideren aanvraag -->
<g id="node22" class="node">
<title>W_Valideren aanvraag</title>
<polygon fill="#d4001f" stroke="black" points="2602,-698 2442,-698 2442,-662 2602,-662 2602,-698"/>
<text text-anchor="middle" x="2522" y="-675.73" font-family="Times New Roman,serif" font-size="12.00">W_Valideren aanvraag: 20809</text>
</g>
<!-- A_ACTIVATED&#45;&gt;W_Valideren aanvraag -->
<g id="edge82" class="edge">
<title>A_ACTIVATED&#45;&gt;W_Valideren aanvraag</title>
<path fill="none" stroke="black" d="M2137.21,-946.76C2155.01,-911.66 2198.29,-833.96 2254.25,-786.5 2310.82,-738.51 2327.37,-725.6 2397,-700 2407.7,-696.07 2419.2,-692.9 2430.74,-690.36"/>
<polygon fill="black" stroke="black" points="2431.19,-693.84 2440.29,-688.41 2429.79,-686.98 2431.19,-693.84"/>
<text text-anchor="middle" x="2316.62" y="-789.7" font-family="Times New Roman,serif" font-size="14.00">866</text>
</g>
<!-- W_Nabellen incomplete dossiers -->
<g id="node23" class="node">
<title>W_Nabellen incomplete dossiers</title>
<polygon fill="#d4001f" stroke="black" points="2000.5,-1186 1793.25,-1186 1793.25,-1150 2000.5,-1150 2000.5,-1186"/>
<text text-anchor="middle" x="1896.88" y="-1163.72" font-family="Times New Roman,serif" font-size="12.00">W_Nabellen incomplete dossiers: 25190</text>
</g>
<!-- A_ACTIVATED&#45;&gt;W_Nabellen incomplete dossiers -->
<g id="edge111" class="edge">
<title>A_ACTIVATED&#45;&gt;W_Nabellen incomplete dossiers</title>
<path fill="none" stroke="black" d="M2065.95,-983.41C2049.6,-990.07 2032.55,-998.69 2018.5,-1009.5 1971.43,-1045.71 1933.23,-1104.67 1913.18,-1139.56"/>
<polygon fill="black" stroke="black" points="1910.15,-1137.81 1908.29,-1148.24 1916.25,-1141.24 1910.15,-1137.81"/>
<text text-anchor="middle" x="2032" y="-1012.7" font-family="Times New Roman,serif" font-size="14.00">92</text>
</g>
<!-- A_PREACCEPTED -->
<g id="node8" class="node">
<title>A_PREACCEPTED</title>
<polygon fill="white" stroke="black" points="597.75,-1571 450.5,-1571 450.5,-1535 597.75,-1535 597.75,-1571"/>
<text text-anchor="middle" x="524.12" y="-1548.72" font-family="Times New Roman,serif" font-size="12.00">A_PREACCEPTED: 7367</text>
</g>
<!-- A_PARTLYSUBMITTED&#45;&gt;A_PREACCEPTED -->
<g id="edge95" class="edge">
<title>A_PARTLYSUBMITTED&#45;&gt;A_PREACCEPTED</title>
<path fill="none" stroke="black" d="M303.79,-861.26C334.26,-957.37 476.05,-1404.54 513.85,-1523.74"/>
<polygon fill="black" stroke="black" points="510.45,-1524.61 516.81,-1533.09 517.13,-1522.5 510.45,-1524.61"/>
<text text-anchor="middle" x="419" y="-1264.79" font-family="Times New Roman,serif" font-size="14.00">4852</text>
</g>
<!-- A_DECLINED -->
<g id="node14" class="node">
<title>A_DECLINED</title>
<polygon fill="#d4001f" stroke="black" points="3418.25,-1446 3295.75,-1446 3295.75,-1410 3418.25,-1410 3418.25,-1446"/>
<text text-anchor="middle" x="3357" y="-1423.72" font-family="Times New Roman,serif" font-size="12.00">A_DECLINED: 7635</text>
</g>
<!-- A_PARTLYSUBMITTED&#45;&gt;A_DECLINED -->
<g id="edge38" class="edge">
<title>A_PARTLYSUBMITTED&#45;&gt;A_DECLINED</title>
<path fill="none" stroke="black" d="M299.7,-824.84C310.53,-714.33 374.21,-137 523.12,-137 523.12,-137 523.12,-137 1762.75,-137 2037.58,-137 2723.36,-215.89 2991.75,-275 3012.34,-279.53 3020.02,-277.17 3036.75,-290 3041.01,-293.27 3248.23,-607.93 3250,-613 3279.61,-697.66 3257.63,-724.91 3268,-814 3294.24,-1039.52 3336.95,-1310.03 3351.2,-1398.47"/>
<polygon fill="black" stroke="black" points="3347.72,-1398.9 3352.78,-1408.22 3354.63,-1397.79 3347.72,-1398.9"/>
<text text-anchor="middle" x="1761.75" y="-140.2" font-family="Times New Roman,serif" font-size="14.00">3429</text>
</g>
<!-- W_Beoordelen fraude -->
<g id="node19" class="node">
<title>W_Beoordelen fraude</title>
<polygon fill="#d4001f" stroke="black" points="3855.25,-1407 3710.25,-1407 3710.25,-1371 3855.25,-1371 3855.25,-1407"/>
<text text-anchor="middle" x="3782.75" y="-1384.72" font-family="Times New Roman,serif" font-size="12.00">W_Beoordelen fraude: 664</text>
</g>
<!-- A_PARTLYSUBMITTED&#45;&gt;W_Beoordelen fraude -->
<g id="edge48" class="edge">
<title>A_PARTLYSUBMITTED&#45;&gt;W_Beoordelen fraude</title>
<path fill="none" stroke="black" d="M298.81,-824.61C304.75,-701.33 346.27,0 523.12,0 523.12,0 523.12,0 3585.88,0 3643.98,0 3674.73,-20.6 3692.25,-76 3771.57,-326.78 3780.61,-1188.51 3781.62,-1359.41"/>
<polygon fill="black" stroke="black" points="3778.12,-1359.42 3781.68,-1369.4 3785.12,-1359.38 3778.12,-1359.42"/>
<text text-anchor="middle" x="2032" y="-3.2" font-family="Times New Roman,serif" font-size="14.00">67</text>
</g>
<!-- W_Afhandelen leads -->
<g id="node21" class="node">
<title>W_Afhandelen leads</title>
<polygon fill="#d4001f" stroke="black" points="3660.75,-1880 3509,-1880 3509,-1844 3660.75,-1844 3660.75,-1880"/>
<text text-anchor="middle" x="3584.88" y="-1857.72" font-family="Times New Roman,serif" font-size="12.00">W_Afhandelen leads: 16566</text>
</g>
<!-- A_PARTLYSUBMITTED&#45;&gt;W_Afhandelen leads -->
<g id="edge124" class="edge">
<title>A_PARTLYSUBMITTED&#45;&gt;W_Afhandelen leads</title>
<path fill="none" stroke="black" d="M299.09,-861.28C308.81,-1020.91 383.74,-2172 523.12,-2172 523.12,-2172 523.12,-2172 1762.75,-2172 1966.78,-2172 2017.72,-2164 2221.75,-2164 2221.75,-2164 2221.75,-2164 3358,-2164 3426.75,-2164 3455.64,-2143.96 3491,-2085 3530.1,-2019.79 3560.4,-1935.1 3574.75,-1891.23"/>
<polygon fill="black" stroke="black" points="3578.02,-1892.52 3577.75,-1881.93 3571.35,-1890.37 3578.02,-1892.52"/>
<text text-anchor="middle" x="1896.88" y="-2175.13" font-family="Times New Roman,serif" font-size="14.00">4739</text>
</g>
<!-- O_SENT_BACK -->
<g id="node5" class="node">
<title>O_SENT_BACK</title>
<polygon fill="white" stroke="black" points="3423.12,-805 3290.88,-805 3290.88,-769 3423.12,-769 3423.12,-805"/>
<text text-anchor="middle" x="3357" y="-782.73" font-family="Times New Roman,serif" font-size="12.00">O_SENT_BACK: 3454</text>
</g>
<!-- O_SENT_BACK&#45;&gt;W_Valideren aanvraag -->
<g id="edge46" class="edge">
<title>O_SENT_BACK&#45;&gt;W_Valideren aanvraag</title>
<path fill="none" stroke="black" d="M3290.45,-784.02C3229.2,-780.6 3135.38,-773.75 3054.75,-761 2867.97,-731.46 2828.13,-686.47 2640.25,-665 2631.65,-664.02 2622.7,-663.77 2613.75,-664.03"/>
<polygon fill="black" stroke="black" points="2613.75,-660.53 2603.95,-664.55 2614.12,-667.52 2613.75,-660.53"/>
<text text-anchor="middle" x="2923.75" y="-752.62" font-family="Times New Roman,serif" font-size="14.00">3454</text>
</g>
<!-- O_SELECTED -->
<g id="node6" class="node">
<title>O_SELECTED</title>
<polygon fill="white" stroke="black" points="1209,-1356 1086.5,-1356 1086.5,-1320 1209,-1320 1209,-1356"/>
<text text-anchor="middle" x="1147.75" y="-1333.72" font-family="Times New Roman,serif" font-size="12.00">O_SELECTED: 7030</text>
</g>
<!-- O_SELECTED&#45;&gt;O_CREATED -->
<g id="edge99" class="edge">
<title>O_SELECTED&#45;&gt;O_CREATED</title>
<path fill="none" stroke="black" d="M1209.36,-1331.19C1215.32,-1330.7 1221.27,-1330.29 1227,-1330 1302.89,-1326.13 1323.02,-1332.08 1396.75,-1350.5 1418.57,-1355.95 1441.95,-1363.9 1462.23,-1371.52"/>
<polygon fill="black" stroke="black" points="1460.84,-1374.73 1471.43,-1375.03 1463.34,-1368.19 1460.84,-1374.73"/>
<text text-anchor="middle" x="1334.38" y="-1353.7" font-family="Times New Roman,serif" font-size="14.00">3211</text>
</g>
<!-- A_FINALIZED -->
<g id="node7" class="node">
<title>A_FINALIZED</title>
<polygon fill="white" stroke="black" points="1396.75,-1412 1272,-1412 1272,-1376 1396.75,-1376 1396.75,-1412"/>
<text text-anchor="middle" x="1334.38" y="-1389.72" font-family="Times New Roman,serif" font-size="12.00">A_FINALIZED: 5015</text>
</g>
<!-- O_SELECTED&#45;&gt;A_FINALIZED -->
<g id="edge83" class="edge">
<title>O_SELECTED&#45;&gt;A_FINALIZED</title>
<path fill="none" stroke="black" d="M1209.46,-1356.41C1226.26,-1361.51 1244.64,-1367.09 1261.99,-1372.35"/>
<polygon fill="black" stroke="black" points="1260.6,-1375.58 1271.18,-1375.14 1262.63,-1368.88 1260.6,-1375.58"/>
<text text-anchor="middle" x="1240.5" y="-1372.55" font-family="Times New Roman,serif" font-size="14.00">2858</text>
</g>
<!-- O_CANCELLED -->
<g id="node15" class="node">
<title>O_CANCELLED</title>
<polygon fill="#d4001f" stroke="black" points="2991,-1492 2856.5,-1492 2856.5,-1456 2991,-1456 2991,-1492"/>
<text text-anchor="middle" x="2923.75" y="-1469.72" font-family="Times New Roman,serif" font-size="12.00">O_CANCELLED: 3655</text>
</g>
<!-- O_SELECTED&#45;&gt;O_CANCELLED -->
<g id="edge119" class="edge">
<title>O_SELECTED&#45;&gt;O_CANCELLED</title>
<path fill="none" stroke="black" d="M1164.45,-1356.42C1186.59,-1381.6 1229.07,-1427.16 1272,-1458 1424.69,-1567.71 1468.81,-1588.61 1639.25,-1668 1958.12,-1816.52 2057.74,-1850 2409.5,-1850 2409.5,-1850 2409.5,-1850 2726.5,-1850 2882.45,-1850 2914.68,-1592.66 2921.17,-1503.77"/>
<polygon fill="black" stroke="black" points="2924.65,-1504.11 2921.82,-1493.9 2917.67,-1503.65 2924.65,-1504.11"/>
<text text-anchor="middle" x="2032" y="-1825.17" font-family="Times New Roman,serif" font-size="14.00">960</text>
</g>
<!-- W_Nabellen offertes -->
<g id="node18" class="node">
<title>W_Nabellen offertes</title>
<polygon fill="#d4001f" stroke="black" points="3205,-717 3054.75,-717 3054.75,-681 3205,-681 3205,-717"/>
<text text-anchor="middle" x="3129.88" y="-694.73" font-family="Times New Roman,serif" font-size="12.00">W_Nabellen offertes: 52016</text>
</g>
<!-- O_SELECTED&#45;&gt;W_Nabellen offertes -->
<g id="edge59" class="edge">
<title>O_SELECTED&#45;&gt;W_Nabellen offertes</title>
<path fill="none" stroke="black" d="M1148.4,-1319.62C1146.38,-1189.96 1142.37,-418 1333.38,-418 1333.38,-418 1333.38,-418 2128.38,-418 2229.31,-418 2955.02,-359.78 3036.75,-419 3117.8,-477.73 3128.78,-610.16 3129.45,-669.39"/>
<polygon fill="black" stroke="black" points="3125.95,-669.36 3129.45,-679.35 3132.95,-669.35 3125.95,-669.36"/>
</g>
<!-- A_FINALIZED&#45;&gt;O_CREATED -->
<g id="edge85" class="edge">
<title>A_FINALIZED&#45;&gt;O_CREATED</title>
<path fill="none" stroke="black" d="M1397.12,-1394C1413.5,-1394 1431.28,-1394 1448.02,-1394"/>
<polygon fill="black" stroke="black" points="1447.89,-1397.5 1457.89,-1394 1447.89,-1390.5 1447.89,-1397.5"/>
<text text-anchor="middle" x="1428.25" y="-1397.2" font-family="Times New Roman,serif" font-size="14.00">2858</text>
</g>
<!-- A_FINALIZED&#45;&gt;O_SELECTED -->
<g id="edge17" class="edge">
<title>A_FINALIZED&#45;&gt;O_SELECTED</title>
<path fill="none" stroke="black" d="M1313.95,-1375.75C1298.88,-1362.9 1276.78,-1346.75 1254,-1339.5 1243.42,-1336.13 1231.94,-1334.28 1220.57,-1333.41"/>
<polygon fill="black" stroke="black" points="1220.95,-1329.93 1210.79,-1332.93 1220.61,-1336.92 1220.95,-1329.93"/>
<text text-anchor="middle" x="1240.5" y="-1342.7" font-family="Times New Roman,serif" font-size="14.00">2157</text>
</g>
<!-- W_Completeren aanvraag -->
<g id="node17" class="node">
<title>W_Completeren aanvraag</title>
<polygon fill="#d4001f" stroke="black" points="836.5,-1571 660.75,-1571 660.75,-1535 836.5,-1535 836.5,-1571"/>
<text text-anchor="middle" x="748.62" y="-1548.72" font-family="Times New Roman,serif" font-size="12.00">W_Completeren aanvraag: 54850</text>
</g>
<!-- A_PREACCEPTED&#45;&gt;W_Completeren aanvraag -->
<g id="edge89" class="edge">
<title>A_PREACCEPTED&#45;&gt;W_Completeren aanvraag</title>
<path fill="none" stroke="black" d="M597.98,-1553C614.3,-1553 631.88,-1553 649.05,-1553"/>
<polygon fill="black" stroke="black" points="648.75,-1556.5 658.75,-1553 648.75,-1549.5 648.75,-1556.5"/>
<text text-anchor="middle" x="629.25" y="-1556.2" font-family="Times New Roman,serif" font-size="14.00">7367</text>
</g>
<!-- O_DECLINED -->
<g id="node9" class="node">
<title>O_DECLINED</title>
<polygon fill="white" stroke="black" points="3643.12,-725 3526.62,-725 3526.62,-689 3643.12,-689 3643.12,-725"/>
<text text-anchor="middle" x="3584.88" y="-702.73" font-family="Times New Roman,serif" font-size="12.00">O_DECLINED: 802</text>
</g>
<!-- O_DECLINED&#45;&gt;A_DECLINED -->
<g id="edge64" class="edge">
<title>O_DECLINED&#45;&gt;A_DECLINED</title>
<path fill="none" stroke="black" d="M3582.66,-725.41C3576.58,-813.63 3547.5,-1192.94 3491,-1295 3483.29,-1308.92 3475.54,-1307.55 3464,-1318.5 3435.19,-1345.82 3403.73,-1378.74 3382.63,-1401.31"/>
<polygon fill="black" stroke="black" points="3380.09,-1398.9 3375.83,-1408.6 3385.21,-1403.67 3380.09,-1398.9"/>
<text text-anchor="middle" x="3477.5" y="-1321.7" font-family="Times New Roman,serif" font-size="14.00">408</text>
</g>
<!-- O_DECLINED&#45;&gt;W_Nabellen offertes -->
<g id="edge76" class="edge">
<title>O_DECLINED&#45;&gt;W_Nabellen offertes</title>
<path fill="none" stroke="black" d="M3526.41,-709.66C3514.7,-710.15 3502.45,-710.63 3491,-711 3391.94,-714.23 3367,-716.68 3268,-712 3251.25,-711.21 3233.38,-709.87 3216.27,-708.35"/>
<polygon fill="black" stroke="black" points="3216.94,-704.9 3206.66,-707.47 3216.3,-711.87 3216.94,-704.9"/>
<text text-anchor="middle" x="3357" y="-717.8" font-family="Times New Roman,serif" font-size="14.00">27</text>
</g>
<!-- O_DECLINED&#45;&gt;W_Valideren aanvraag -->
<g id="edge78" class="edge">
<title>O_DECLINED&#45;&gt;W_Valideren aanvraag</title>
<path fill="none" stroke="black" d="M3578.37,-688.72C3559.04,-628.62 3488.26,-441 3358,-441 2724.5,-441 2724.5,-441 2724.5,-441 2615.93,-441 2554,-586.95 2532.11,-650.74"/>
<polygon fill="black" stroke="black" points="2528.8,-649.61 2528.96,-660.21 2535.44,-651.82 2528.8,-649.61"/>
<text text-anchor="middle" x="3023.25" y="-444.2" font-family="Times New Roman,serif" font-size="14.00">327</text>
</g>
<!-- O_DECLINED&#45;&gt;W_Nabellen incomplete dossiers -->
<g id="edge15" class="edge">
<title>O_DECLINED&#45;&gt;W_Nabellen incomplete dossiers</title>
<path fill="none" stroke="black" d="M3577.77,-688.73C3564.58,-650.26 3531.31,-558.67 3491,-488 3408.5,-343.36 3357.24,-313.45 3205,-246 2973.02,-143.22 2258.42,-109.56 2063.5,-272 1926.23,-386.4 1902.25,-996.67 1898.51,-1138.53"/>
<polygon fill="black" stroke="black" points="1895.02,-1138.11 1898.27,-1148.2 1902.02,-1138.29 1895.02,-1138.11"/>
<text text-anchor="middle" x="2725.5" y="-169.35" font-family="Times New Roman,serif" font-size="14.00">40</text>
</g>
<!-- O_ACCEPTED&#45;&gt;A_ACTIVATED -->
<g id="edge3" class="edge">
<title>O_ACCEPTED&#45;&gt;A_ACTIVATED</title>
<path fill="none" stroke="black" d="M2253.84,-837.89C2238.4,-841.82 2222.48,-847.7 2209.25,-856.5 2179.13,-876.55 2155.98,-911.74 2142.32,-936.6"/>
<polygon fill="black" stroke="black" points="2139.34,-934.73 2137.76,-945.21 2145.53,-938.01 2139.34,-934.73"/>
<text text-anchor="middle" x="2222.75" y="-859.7" font-family="Times New Roman,serif" font-size="14.00">594</text>
</g>
<!-- O_ACCEPTED&#45;&gt;A_APPROVED -->
<g id="edge13" class="edge">
<title>O_ACCEPTED&#45;&gt;A_APPROVED</title>
<path fill="none" stroke="black" d="M2379.1,-847.29C2385.14,-848.91 2391.18,-850.51 2397,-852 2487.68,-875.29 2538.23,-831.95 2602,-900.5 2636.19,-937.25 2600.77,-965.63 2620,-1012 2625.88,-1026.19 2632.84,-1026.55 2640.25,-1040 2650.64,-1058.87 2643.56,-1069.25 2658.25,-1085 2660.61,-1087.53 2663.22,-1089.89 2665.99,-1092.08"/>
<polygon fill="black" stroke="black" points="2663.84,-1094.85 2674.06,-1097.64 2667.82,-1089.08 2663.84,-1094.85"/>
<text text-anchor="middle" x="2522" y="-903.7" font-family="Times New Roman,serif" font-size="14.00">743</text>
</g>
<!-- O_ACCEPTED&#45;&gt;A_REGISTERED -->
<g id="edge70" class="edge">
<title>O_ACCEPTED&#45;&gt;A_REGISTERED</title>
<path fill="none" stroke="black" d="M2379.49,-811.86C2440.08,-797.8 2533.08,-786.38 2602,-824 2614.98,-831.09 2610.61,-840.57 2620,-852 2627.93,-861.65 2632.7,-861.54 2640.25,-871.5 2650.46,-884.97 2644.94,-894.58 2658.25,-905 2723.09,-955.77 2779.96,-892.32 2837.75,-951 2861.8,-975.42 2840.15,-995.48 2855.75,-1026 2865.6,-1045.27 2881.14,-1063.77 2894.78,-1077.92"/>
<polygon fill="black" stroke="black" points="2891.93,-1080.02 2901.46,-1084.65 2896.9,-1075.09 2891.93,-1080.02"/>
<text text-anchor="middle" x="2630.12" y="-874.7" font-family="Times New Roman,serif" font-size="14.00">695</text>
</g>
<!-- O_ACCEPTED&#45;&gt;W_Valideren aanvraag -->
<g id="edge107" class="edge">
<title>O_ACCEPTED&#45;&gt;W_Valideren aanvraag</title>
<path fill="none" stroke="black" d="M2325.83,-811.54C2337.88,-786.56 2362.69,-742.26 2397,-717.5 2407.23,-710.12 2418.92,-704.18 2430.95,-699.39"/>
<polygon fill="black" stroke="black" points="2431.99,-702.74 2440.16,-696 2429.57,-696.17 2431.99,-702.74"/>
<text text-anchor="middle" x="2410.5" y="-720.7" font-family="Times New Roman,serif" font-size="14.00">194</text>
</g>
<!-- O_ACCEPTED&#45;&gt;W_Nabellen incomplete dossiers -->
<g id="edge31" class="edge">
<title>O_ACCEPTED&#45;&gt;W_Nabellen incomplete dossiers</title>
<path fill="none" stroke="black" d="M2266.4,-811.54C2231.87,-798.6 2191.77,-783.59 2191.25,-783.5 2114.94,-769.7 2068.32,-748.58 2018.5,-808 1933.78,-909.04 1907.81,-1072 1900.5,-1138.41"/>
<polygon fill="black" stroke="black" points="1897.04,-1137.83 1899.5,-1148.14 1904,-1138.55 1897.04,-1137.83"/>
<text text-anchor="middle" x="2127.38" y="-786.7" font-family="Times New Roman,serif" font-size="14.00">17</text>
</g>
<!-- O_SENT&#45;&gt;W_Completeren aanvraag -->
<g id="edge80" class="edge">
<title>O_SENT&#45;&gt;W_Completeren aanvraag</title>
<path fill="none" stroke="black" d="M1683.95,-680.7C1683.72,-606.89 1672.47,-335 1519,-335 960.5,-335 960.5,-335 960.5,-335 835.88,-335 763.8,-1337.76 751.51,-1523.57"/>
<polygon fill="black" stroke="black" points="748.03,-1523.12 750.87,-1533.33 755.02,-1523.58 748.03,-1523.12"/>
</g>
<!-- O_SENT&#45;&gt;W_Nabellen offertes -->
<g id="edge93" class="edge">
<title>O_SENT&#45;&gt;W_Nabellen offertes</title>
<path fill="none" stroke="black" d="M1720.01,-680.62C1821.89,-627.75 2133.05,-479 2409.5,-479 2409.5,-479 2409.5,-479 2825.25,-479 2903.61,-479 2927.15,-492.64 2991.75,-537 3044.78,-573.42 3089.26,-635.51 3112.18,-671.32"/>
<polygon fill="black" stroke="black" points="3108.97,-672.79 3117.26,-679.4 3114.9,-669.07 3108.97,-672.79"/>
<text text-anchor="middle" x="2410.5" y="-482.23" font-family="Times New Roman,serif" font-size="14.00">6633</text>
</g>
<!-- O_SENT&#45;&gt;W_Nabellen incomplete dossiers -->
<g id="edge94" class="edge">
<title>O_SENT&#45;&gt;W_Nabellen incomplete dossiers</title>
<path fill="none" stroke="black" d="M1693.99,-717.39C1726.19,-789.26 1843.72,-1051.59 1882.99,-1139.25"/>
<polygon fill="black" stroke="black" points="1879.79,-1140.67 1887.08,-1148.36 1886.18,-1137.8 1879.79,-1140.67"/>
<text text-anchor="middle" x="1761.75" y="-894.69" font-family="Times New Roman,serif" font-size="14.00">396</text>
</g>
<!-- A_ACCEPTED -->
<g id="node12" class="node">
<title>A_ACCEPTED</title>
<polygon fill="white" stroke="black" points="1023.5,-1531 899.5,-1531 899.5,-1495 1023.5,-1495 1023.5,-1531"/>
<text text-anchor="middle" x="961.5" y="-1508.72" font-family="Times New Roman,serif" font-size="12.00">A_ACCEPTED: 5113</text>
</g>
<!-- A_ACCEPTED&#45;&gt;O_SELECTED -->
<g id="edge47" class="edge">
<title>A_ACCEPTED&#45;&gt;O_SELECTED</title>
<path fill="none" stroke="black" d="M986.4,-1494.64C1013.03,-1474.05 1054.21,-1441.73 1068.5,-1428 1089.06,-1408.24 1110.15,-1383.69 1125.24,-1365.23"/>
<polygon fill="black" stroke="black" points="1127.83,-1367.59 1131.4,-1357.62 1122.39,-1363.19 1127.83,-1367.59"/>
<text text-anchor="middle" x="1055" y="-1452.24" font-family="Times New Roman,serif" font-size="14.00">2827</text>
</g>
<!-- A_ACCEPTED&#45;&gt;A_FINALIZED -->
<g id="edge34" class="edge">
<title>A_ACCEPTED&#45;&gt;A_FINALIZED</title>
<path fill="none" stroke="black" d="M1023.73,-1495.56C1082.97,-1478.4 1175.13,-1450.91 1254,-1424 1260.94,-1421.63 1268.19,-1419.05 1275.36,-1416.42"/>
<polygon fill="black" stroke="black" points="1276.55,-1419.72 1284.71,-1412.96 1274.12,-1413.15 1276.55,-1419.72"/>
<text text-anchor="middle" x="1147.75" y="-1479.9" font-family="Times New Roman,serif" font-size="14.00">2141</text>
</g>
<!-- A_ACCEPTED&#45;&gt;A_DECLINED -->
<g id="edge72" class="edge">
<title>A_ACCEPTED&#45;&gt;A_DECLINED</title>
<path fill="none" stroke="black" d="M1012.58,-1531.39C1141.09,-1578.2 1493.48,-1704.12 1793.25,-1789 2221.87,-1910.36 2347.75,-1884.47 2792.75,-1864 2976.55,-1855.55 3039.7,-1906.82 3205,-1826 3343.3,-1758.38 3356.51,-1537.29 3356.63,-1457.25"/>
<polygon fill="black" stroke="black" points="3360.13,-1457.57 3356.57,-1447.6 3353.13,-1457.62 3360.13,-1457.57"/>
<text text-anchor="middle" x="2127.38" y="-1875.67" font-family="Times New Roman,serif" font-size="14.00">25</text>
</g>
<!-- A_ACCEPTED&#45;&gt;W_Completeren aanvraag -->
<g id="edge53" class="edge">
<title>A_ACCEPTED&#45;&gt;W_Completeren aanvraag</title>
<path fill="none" stroke="black" d="M899.02,-1507.08C884.33,-1506.89 868.77,-1507.72 854.5,-1510.5 834.45,-1514.41 813.38,-1522.16 795.43,-1529.98"/>
<polygon fill="black" stroke="black" points="794.03,-1526.77 786.35,-1534.07 796.91,-1533.15 794.03,-1526.77"/>
<text text-anchor="middle" x="868" y="-1513.7" font-family="Times New Roman,serif" font-size="14.00">74</text>
</g>
<!-- A_CANCELLED -->
<g id="node24" class="node">
<title>A_CANCELLED</title>
<polygon fill="#d4001f" stroke="black" points="2792.75,-1389 2658.25,-1389 2658.25,-1353 2792.75,-1353 2792.75,-1389"/>
<text text-anchor="middle" x="2725.5" y="-1366.72" font-family="Times New Roman,serif" font-size="12.00">A_CANCELLED: 2807</text>
</g>
<!-- A_ACCEPTED&#45;&gt;A_CANCELLED -->
<g id="edge6" class="edge">
<title>A_ACCEPTED&#45;&gt;A_CANCELLED</title>
<path fill="none" stroke="black" d="M1023.77,-1509.36C1138.24,-1502.87 1392.42,-1490 1606.75,-1490 1606.75,-1490 1606.75,-1490 1897.88,-1490 2059.64,-1490 2094.3,-1440.19 2254.25,-1416 2291.95,-1410.3 2522.98,-1389.14 2646.6,-1377.98"/>
<polygon fill="black" stroke="black" points="2646.7,-1381.49 2656.34,-1377.11 2646.07,-1374.52 2646.7,-1381.49"/>
<text text-anchor="middle" x="1761.75" y="-1493.2" font-family="Times New Roman,serif" font-size="14.00">46</text>
</g>
<!-- A_APPROVED&#45;&gt;A_ACTIVATED -->
<g id="edge91" class="edge">
<title>A_APPROVED&#45;&gt;A_ACTIVATED</title>
<path fill="none" stroke="black" d="M2667.17,-1098.6C2664.1,-1097.15 2661.11,-1095.62 2658.25,-1094 2638.96,-1083.08 2632.2,-1080.51 2620,-1062 2604.68,-1038.75 2623.25,-1019.99 2602,-1002 2572.28,-976.84 2328.65,-968.66 2202.9,-966.11"/>
<polygon fill="black" stroke="black" points="2203.05,-962.61 2192.99,-965.91 2202.92,-969.61 2203.05,-962.61"/>
<text text-anchor="middle" x="2410.5" y="-977.76" font-family="Times New Roman,serif" font-size="14.00">679</text>
</g>
<!-- A_APPROVED&#45;&gt;O_ACCEPTED -->
<g id="edge10" class="edge">
<title>A_APPROVED&#45;&gt;O_ACCEPTED</title>
<path fill="none" stroke="black" d="M2679.38,-1098.61C2671.97,-1094.65 2664.64,-1090.1 2658.25,-1085 2652.92,-1080.74 2622.91,-1043.17 2620,-1037 2603.45,-1001.87 2628.8,-979.61 2602,-951.5 2537.03,-883.35 2467.62,-960.29 2397,-898 2383.24,-885.87 2391.03,-872.69 2380.75,-856.86"/>
<polygon fill="black" stroke="black" points="2383.63,-854.85 2374.49,-849.49 2378.29,-859.38 2383.63,-854.85"/>
<text text-anchor="middle" x="2522" y="-954.7" font-family="Times New Roman,serif" font-size="14.00">567</text>
</g>
<!-- A_APPROVED&#45;&gt;A_REGISTERED -->
<g id="edge18" class="edge">
<title>A_APPROVED&#45;&gt;A_REGISTERED</title>
<path fill="none" stroke="black" d="M2788.86,-1112.87C2806.43,-1111.71 2825.77,-1110.42 2844.15,-1109.21"/>
<polygon fill="black" stroke="black" points="2844.2,-1112.71 2853.94,-1108.56 2843.73,-1105.73 2844.2,-1112.71"/>
<text text-anchor="middle" x="2824.25" y="-1114.48" font-family="Times New Roman,serif" font-size="14.00">586</text>
</g>
<!-- A_APPROVED&#45;&gt;W_Valideren aanvraag -->
<g id="edge87" class="edge">
<title>A_APPROVED&#45;&gt;W_Valideren aanvraag</title>
<path fill="none" stroke="black" d="M2672.13,-1098.67C2666.74,-1094.9 2661.91,-1090.39 2658.25,-1085 2627.03,-1039.01 2661.47,-886.88 2640.25,-835.5 2634.99,-822.76 2628.59,-822.79 2620,-812 2591.92,-776.73 2561.42,-734.52 2542.26,-707.5"/>
<polygon fill="black" stroke="black" points="2545.25,-705.65 2536.62,-699.5 2539.53,-709.69 2545.25,-705.65"/>
<text text-anchor="middle" x="2630.12" y="-838.7" font-family="Times New Roman,serif" font-size="14.00">382</text>
</g>
<!-- A_APPROVED&#45;&gt;W_Nabellen incomplete dossiers -->
<g id="edge54" class="edge">
<title>A_APPROVED&#45;&gt;W_Nabellen incomplete dossiers</title>
<path fill="none" stroke="black" d="M2661.9,-1112.97C2648.06,-1111.7 2633.5,-1110.07 2620,-1108 2611.9,-1106.76 2610.14,-1104.92 2602,-1104 2363.82,-1077.04 2299.2,-1090.36 2063.5,-1134 2041.52,-1138.07 2017.97,-1142.72 1995.72,-1147.26"/>
<polygon fill="black" stroke="black" points="1995.15,-1143.8 1986.05,-1149.24 1996.55,-1150.66 1995.15,-1143.8"/>
<text text-anchor="middle" x="2316.62" y="-1103.91" font-family="Times New Roman,serif" font-size="14.00">32</text>
</g>
<!-- A_DECLINED&#45;&gt;O_DECLINED -->
<g id="edge77" class="edge">
<title>A_DECLINED&#45;&gt;O_DECLINED</title>
<path fill="none" stroke="black" d="M3386.94,-1409.52C3424.06,-1385.55 3484.48,-1345.54 3491,-1335 3554.4,-1232.44 3577.27,-846.45 3582.58,-736.43"/>
<polygon fill="black" stroke="black" points="3586.06,-736.92 3583.03,-726.77 3579.07,-736.59 3586.06,-736.92"/>
<text text-anchor="middle" x="3477.5" y="-1360.34" font-family="Times New Roman,serif" font-size="14.00">394</text>
</g>
<!-- A_DECLINED&#45;&gt;W_Completeren aanvraag -->
<g id="edge32" class="edge">
<title>A_DECLINED&#45;&gt;W_Completeren aanvraag</title>
<path fill="none" stroke="black" d="M3356.42,-1446.38C3357.48,-1537.45 3349.61,-1936 3130.88,-1936 2221.75,-1936 2221.75,-1936 2221.75,-1936 2077.8,-1936 2041.82,-1934 1897.88,-1934 960.5,-1934 960.5,-1934 960.5,-1934 800.04,-1934 760.7,-1672.11 751.94,-1582.59"/>
<polygon fill="black" stroke="black" points="755.45,-1582.52 751.05,-1572.88 748.48,-1583.16 755.45,-1582.52"/>
<text text-anchor="middle" x="2032" y="-1938.03" font-family="Times New Roman,serif" font-size="14.00">1113</text>
</g>
<!-- A_DECLINED&#45;&gt;W_Nabellen offertes -->
<g id="edge14" class="edge">
<title>A_DECLINED&#45;&gt;W_Nabellen offertes</title>
<path fill="none" stroke="black" d="M3327.06,-1409.52C3289.93,-1385.55 3229.5,-1345.55 3223,-1335 3158.97,-1231.09 3137.1,-840.22 3132.09,-728.81"/>
<polygon fill="black" stroke="black" points="3135.59,-728.84 3131.66,-719 3128.6,-729.14 3135.59,-728.84"/>
<text text-anchor="middle" x="3236.5" y="-1360.35" font-family="Times New Roman,serif" font-size="14.00">21</text>
</g>
<!-- A_DECLINED&#45;&gt;W_Beoordelen fraude -->
<g id="edge88" class="edge">
<title>A_DECLINED&#45;&gt;W_Beoordelen fraude</title>
<path fill="none" stroke="black" d="M3418.64,-1430.37C3480,-1431.84 3577.43,-1431.62 3660.75,-1420 3676.8,-1417.76 3693.8,-1414.19 3709.82,-1410.25"/>
<polygon fill="black" stroke="black" points="3710.43,-1413.7 3719.26,-1407.85 3708.71,-1406.92 3710.43,-1413.7"/>
<text text-anchor="middle" x="3584.88" y="-1433.84" font-family="Times New Roman,serif" font-size="14.00">57</text>
</g>
<!-- A_DECLINED&#45;&gt;W_Afhandelen leads -->
<g id="edge19" class="edge">
<title>A_DECLINED&#45;&gt;W_Afhandelen leads</title>
<path fill="none" stroke="black" d="M3367.56,-1446.37C3402.92,-1514.31 3526.44,-1751.64 3569.18,-1833.77"/>
<polygon fill="black" stroke="black" points="3566.02,-1835.27 3573.74,-1842.52 3572.23,-1832.04 3566.02,-1835.27"/>
<text text-anchor="middle" x="3477.5" y="-1674.18" font-family="Times New Roman,serif" font-size="14.00">2234</text>
</g>
<!-- A_DECLINED&#45;&gt;W_Valideren aanvraag -->
<g id="edge25" class="edge">
<title>A_DECLINED&#45;&gt;W_Valideren aanvraag</title>
<path fill="none" stroke="black" d="M3295.33,-1413.38C3270.81,-1405.18 3243.51,-1392.89 3223,-1375 2985.34,-1167.63 3088.21,-970.7 2837.75,-779 2799.52,-749.74 2686.84,-702.11 2640.25,-690 2631.77,-687.8 2622.84,-686.05 2613.85,-684.67"/>
<polygon fill="black" stroke="black" points="2614.34,-681.2 2603.96,-683.32 2613.39,-688.14 2614.34,-681.2"/>
<text text-anchor="middle" x="2923.75" y="-966.63" font-family="Times New Roman,serif" font-size="14.00">341</text>
</g>
<!-- A_DECLINED&#45;&gt;W_Nabellen incomplete dossiers -->
<g id="edge24" class="edge">
<title>A_DECLINED&#45;&gt;W_Nabellen incomplete dossiers</title>
<path fill="none" stroke="black" d="M3353.33,-1446.12C3341.72,-1517.31 3288.9,-1774 3130.88,-1774 2823.25,-1774 2823.25,-1774 2823.25,-1774 2778.51,-1774 2052.71,-1773.83 2018.5,-1745 1933.17,-1673.08 1905.68,-1304.92 1899.41,-1197.47"/>
<polygon fill="black" stroke="black" points="1902.92,-1197.54 1898.87,-1187.76 1895.93,-1197.94 1902.92,-1197.54"/>
<text text-anchor="middle" x="2630.12" y="-1776.39" font-family="Times New Roman,serif" font-size="14.00">46</text>
</g>
<!-- O_CANCELLED&#45;&gt;O_CREATED -->
<g id="edge29" class="edge">
<title>O_CANCELLED&#45;&gt;O_CREATED</title>
<path fill="none" stroke="black" d="M2894.92,-1492.34C2878.73,-1502.41 2857.66,-1514.53 2837.75,-1523 2740.74,-1564.25 2707.24,-1543.05 2602,-1549 2447.79,-1557.72 2451.04,-1560.02 2397,-1557 2091.31,-1539.92 1734.77,-1452.2 1587.74,-1412.98"/>
<polygon fill="black" stroke="black" points="1588.71,-1409.62 1578.14,-1410.41 1586.9,-1416.38 1588.71,-1409.62"/>
<text text-anchor="middle" x="2222.75" y="-1545.46" font-family="Times New Roman,serif" font-size="14.00">960</text>
</g>
<!-- O_CANCELLED&#45;&gt;O_SELECTED -->
<g id="edge97" class="edge">
<title>O_CANCELLED&#45;&gt;O_SELECTED</title>
<path fill="none" stroke="black" d="M2903.84,-1492.23C2887.44,-1507.23 2862.52,-1528.21 2837.75,-1542 2745.66,-1593.29 2707.34,-1564.06 2602,-1568 2153.52,-1584.79 2036.28,-1581.64 1594.25,-1504 1448.58,-1478.42 1406.9,-1481.63 1272,-1421 1238.35,-1405.88 1203.83,-1381.75 1179.92,-1363.39"/>
<polygon fill="black" stroke="black" points="1182.21,-1360.74 1172.17,-1357.36 1177.91,-1366.26 1182.21,-1360.74"/>
<text text-anchor="middle" x="2032" y="-1571.1" font-family="Times New Roman,serif" font-size="14.00">1055</text>
</g>
<!-- O_CANCELLED&#45;&gt;W_Nabellen offertes -->
<g id="edge26" class="edge">
<title>O_CANCELLED&#45;&gt;W_Nabellen offertes</title>
<path fill="none" stroke="black" d="M2991.42,-1457.23C3008.66,-1449.78 3025.52,-1439.13 3036.75,-1424 3037.41,-1423.1 3108.05,-863.93 3125.17,-728.35"/>
<polygon fill="black" stroke="black" points="3128.6,-729.12 3126.38,-718.76 3121.66,-728.24 3128.6,-729.12"/>
<text text-anchor="middle" x="3023.25" y="-1450.97" font-family="Times New Roman,serif" font-size="14.00">516</text>
</g>
<!-- O_CANCELLED&#45;&gt;W_Valideren aanvraag -->
<g id="edge2" class="edge">
<title>O_CANCELLED&#45;&gt;W_Valideren aanvraag</title>
<path fill="none" stroke="black" d="M2905.3,-1455.73C2889.79,-1438.4 2867.76,-1410.94 2855.75,-1383 2844.56,-1356.97 2815.61,-1159.91 2810.75,-1132 2802.51,-1084.71 2815.93,-1067.54 2792.75,-1025.5 2754,-955.21 2696.57,-975.52 2658.25,-905 2633.55,-859.54 2664.43,-835.74 2640.25,-790 2629.68,-770.01 2585.53,-731.27 2554.54,-705.51"/>
<polygon fill="black" stroke="black" points="2556.9,-702.92 2546.96,-699.26 2552.44,-708.32 2556.9,-702.92"/>
<text text-anchor="middle" x="2725.5" y="-1028.7" font-family="Times New Roman,serif" font-size="14.00">13</text>
</g>
<!-- O_CANCELLED&#45;&gt;W_Nabellen incomplete dossiers -->
<g id="edge113" class="edge">
<title>O_CANCELLED&#45;&gt;W_Nabellen incomplete dossiers</title>
<path fill="none" stroke="black" d="M2856.18,-1484.23C2762.59,-1496.56 2587.29,-1512.12 2442,-1482 1799.4,-1348.77 2104.08,-1359.11 2018.5,-1297 1978.15,-1267.71 1940.39,-1223.58 1918.21,-1195.28"/>
<polygon fill="black" stroke="black" points="1921.11,-1193.31 1912.23,-1187.53 1915.57,-1197.59 1921.11,-1193.31"/>
<text text-anchor="middle" x="2410.5" y="-1481.43" font-family="Times New Roman,serif" font-size="14.00">77</text>
</g>
<!-- O_CANCELLED&#45;&gt;A_CANCELLED -->
<g id="edge86" class="edge">
<title>O_CANCELLED&#45;&gt;A_CANCELLED</title>
<path fill="none" stroke="black" d="M2856.22,-1457.73C2840.84,-1452.75 2824.85,-1446.54 2810.75,-1439 2789.77,-1427.78 2768.94,-1411.04 2753.24,-1396.97"/>
<polygon fill="black" stroke="black" points="2755.93,-1394.69 2746.2,-1390.51 2751.2,-1399.85 2755.93,-1394.69"/>
<text text-anchor="middle" x="2824.25" y="-1454.12" font-family="Times New Roman,serif" font-size="14.00">767</text>
</g>
<!-- A_REGISTERED&#45;&gt;A_ACTIVATED -->
<g id="edge104" class="edge">
<title>A_REGISTERED&#45;&gt;A_ACTIVATED</title>
<path fill="none" stroke="black" d="M2863,-1122.4C2860.49,-1123.83 2858.05,-1125.36 2855.75,-1127 2845.18,-1134.53 2848.21,-1142.31 2837.75,-1150 2820.52,-1162.66 2813.76,-1163.02 2792.75,-1167 2675.13,-1189.27 2357.28,-1212.96 2254.25,-1152 2193.03,-1115.78 2155.29,-1036.73 2138.55,-993.92"/>
<polygon fill="black" stroke="black" points="2141.91,-992.9 2135.1,-984.79 2135.36,-995.38 2141.91,-992.9"/>
<text text-anchor="middle" x="2522" y="-1194" font-family="Times New Roman,serif" font-size="14.00">770</text>
</g>
<!-- A_REGISTERED&#45;&gt;O_ACCEPTED -->
<g id="edge98" class="edge">
<title>A_REGISTERED&#45;&gt;O_ACCEPTED</title>
<path fill="none" stroke="black" d="M2906.74,-1085.69C2878.47,-1053.87 2820.11,-990.67 2792.75,-979 2775.08,-971.46 2634.32,-984.8 2620,-972 2580.77,-936.94 2640.39,-890.97 2602,-855 2572.42,-827.28 2464.5,-824.78 2390.46,-826.59"/>
<polygon fill="black" stroke="black" points="2390.75,-823.08 2380.85,-826.85 2390.95,-830.07 2390.75,-823.08"/>
<text text-anchor="middle" x="2630.12" y="-979.91" font-family="Times New Roman,serif" font-size="14.00">311</text>
</g>
<!-- A_REGISTERED&#45;&gt;A_APPROVED -->
<g id="edge65" class="edge">
<title>A_REGISTERED&#45;&gt;A_APPROVED</title>
<path fill="none" stroke="black" d="M2855.44,-1089.01C2840.69,-1087.47 2825.18,-1087.21 2810.75,-1089.5 2802.2,-1090.86 2793.34,-1092.95 2784.72,-1095.38"/>
<polygon fill="black" stroke="black" points="2783.99,-1091.95 2775.42,-1098.18 2786.01,-1098.65 2783.99,-1091.95"/>
<text text-anchor="middle" x="2824.25" y="-1092.7" font-family="Times New Roman,serif" font-size="14.00">502</text>
</g>
<!-- A_REGISTERED&#45;&gt;W_Valideren aanvraag -->
<g id="edge11" class="edge">
<title>A_REGISTERED&#45;&gt;W_Valideren aanvraag</title>
<path fill="none" stroke="black" d="M2901.4,-1085.8C2885.95,-1071.29 2866.03,-1049.56 2855.75,-1026 2827.48,-961.23 2877.24,-926.62 2837.75,-868 2789.82,-796.85 2718.09,-858.48 2658.25,-797 2639.72,-777.96 2657.4,-760.29 2640.25,-740 2627.05,-724.38 2608.75,-712.35 2590.54,-703.31"/>
<polygon fill="black" stroke="black" points="2592.08,-700.17 2581.54,-699.1 2589.12,-706.51 2592.08,-700.17"/>
<text text-anchor="middle" x="2725.5" y="-836.61" font-family="Times New Roman,serif" font-size="14.00">608</text>
</g>
<!-- A_REGISTERED&#45;&gt;W_Nabellen incomplete dossiers -->
<g id="edge109" class="edge">
<title>A_REGISTERED&#45;&gt;W_Nabellen incomplete dossiers</title>
<path fill="none" stroke="black" d="M2861.47,-1122.3C2859.46,-1123.75 2857.54,-1125.31 2855.75,-1127 2840.39,-1141.5 2852.75,-1156.12 2837.75,-1171 2762.31,-1245.85 2708.1,-1204.9 2602,-1211 2393.82,-1222.97 2151.09,-1199.99 2011.85,-1183.26"/>
<polygon fill="black" stroke="black" points="2012.62,-1179.83 2002.28,-1182.1 2011.78,-1186.78 2012.62,-1179.83"/>
<text text-anchor="middle" x="2410.5" y="-1216.95" font-family="Times New Roman,serif" font-size="14.00">54</text>
</g>
<!-- W_Completeren aanvraag&#45;&gt;O_SELECTED -->
<g id="edge73" class="edge">
<title>W_Completeren aanvraag&#45;&gt;O_SELECTED</title>
<path fill="none" stroke="black" d="M757.18,-1534.75C771.49,-1502.34 805.55,-1434.51 854.5,-1396 917.3,-1346.59 1010.72,-1335.69 1074.94,-1334.82"/>
<polygon fill="black" stroke="black" points="1074.69,-1338.32 1084.67,-1334.77 1074.65,-1331.32 1074.69,-1338.32"/>
<text text-anchor="middle" x="961.5" y="-1371.78" font-family="Times New Roman,serif" font-size="14.00">31</text>
</g>
<!-- W_Completeren aanvraag&#45;&gt;A_FINALIZED -->
<g id="edge110" class="edge">
<title>W_Completeren aanvraag&#45;&gt;A_FINALIZED</title>
<path fill="none" stroke="black" d="M776.67,-1534.63C826.46,-1501.96 937.11,-1434.64 1041.5,-1407.5 1081.29,-1397.16 1187.69,-1394.5 1260.41,-1393.94"/>
<polygon fill="black" stroke="black" points="1260.28,-1397.44 1270.26,-1393.88 1260.24,-1390.44 1260.28,-1397.44"/>
<text text-anchor="middle" x="1055" y="-1410.7" font-family="Times New Roman,serif" font-size="14.00">16</text>
</g>
<!-- W_Completeren aanvraag&#45;&gt;A_ACCEPTED -->
<g id="edge50" class="edge">
<title>W_Completeren aanvraag&#45;&gt;A_ACCEPTED</title>
<path fill="none" stroke="black" d="M836.65,-1539.23C851.64,-1536.64 867.04,-1533.85 881.5,-1531 883.67,-1530.57 885.88,-1530.13 888.1,-1529.67"/>
<polygon fill="black" stroke="black" points="888.79,-1533.1 897.85,-1527.62 887.35,-1526.25 888.79,-1533.1"/>
<text text-anchor="middle" x="868" y="-1538.94" font-family="Times New Roman,serif" font-size="14.00">5113</text>
</g>
<!-- W_Completeren aanvraag&#45;&gt;A_DECLINED -->
<g id="edge58" class="edge">
<title>W_Completeren aanvraag&#45;&gt;A_DECLINED</title>
<path fill="none" stroke="black" d="M750.11,-1571.36C753.32,-1652.39 777.59,-1974 960.5,-1974 960.5,-1974 960.5,-1974 3130.88,-1974 3191.84,-1974 3220.38,-1959.28 3250,-1906 3335.28,-1752.62 3351.95,-1535.75 3355.21,-1457.55"/>
<polygon fill="black" stroke="black" points="3358.7,-1457.85 3355.57,-1447.73 3351.7,-1457.59 3358.7,-1457.85"/>
<text text-anchor="middle" x="2032" y="-1977.2" font-family="Times New Roman,serif" font-size="14.00">1088</text>
</g>
<!-- W_Completeren aanvraag&#45;&gt;W_Completeren aanvraag -->
<g id="edge103" class="edge">
<title>W_Completeren aanvraag&#45;&gt;W_Completeren aanvraag</title>
<path fill="none" stroke="black" d="M727.03,-1571.15C723.71,-1580.54 730.91,-1589 748.62,-1589 758.59,-1589 765.23,-1586.32 768.54,-1582.31"/>
<polygon fill="black" stroke="black" points="771.97,-1583.06 770,-1572.65 765.04,-1582.02 771.97,-1583.06"/>
<text text-anchor="middle" x="748.62" y="-1592.2" font-family="Times New Roman,serif" font-size="14.00">38005</text>
</g>
<!-- W_Completeren aanvraag&#45;&gt;W_Nabellen offertes -->
<g id="edge4" class="edge">
<title>W_Completeren aanvraag&#45;&gt;W_Nabellen offertes</title>
<path fill="none" stroke="black" d="M749.92,-1534.81C752.52,-1385.08 773.23,-359.05 854.5,-252 884.85,-212.02 910.3,-213 960.5,-213 960.5,-213 960.5,-213 2033,-213 2300.09,-213 2362.04,-289 2629.12,-289 2629.12,-289 2629.12,-289 2924.75,-289 2975.66,-289 3000.34,-277.42 3036.75,-313 3040.02,-316.2 3101.32,-579.96 3122.07,-669.58"/>
<polygon fill="black" stroke="black" points="3118.61,-670.13 3124.27,-679.08 3125.43,-668.55 3118.61,-670.13"/>
<text text-anchor="middle" x="1896.88" y="-216.2" font-family="Times New Roman,serif" font-size="14.00">5014</text>
</g>
<!-- W_Completeren aanvraag&#45;&gt;W_Beoordelen fraude -->
<g id="edge21" class="edge">
<title>W_Completeren aanvraag&#45;&gt;W_Beoordelen fraude</title>
<path fill="none" stroke="black" d="M749.94,-1534.91C752.74,-1383.81 774.98,-334.33 854.5,-222 884.28,-179.94 908.97,-175 960.5,-175 960.5,-175 960.5,-175 1608.75,-175 1843.05,-175 2424.68,-92.52 2658.25,-74 2914.5,-53.69 2978.45,-38 3235.5,-38 3235.5,-38 3235.5,-38 3585.88,-38 3641.51,-38 3670.15,-52.94 3692.25,-104 3743.66,-222.81 3775.29,-1178.05 3780.86,-1359.35"/>
<polygon fill="black" stroke="black" points="3777.36,-1359.42 3781.17,-1369.31 3784.36,-1359.21 3777.36,-1359.42"/>
<text text-anchor="middle" x="2222.75" y="-125.81" font-family="Times New Roman,serif" font-size="14.00">7</text>
</g>
<!-- W_Completeren aanvraag&#45;&gt;W_Afhandelen leads -->
<g id="edge12" class="edge">
<title>W_Completeren aanvraag&#45;&gt;W_Afhandelen leads</title>
<path fill="none" stroke="black" d="M751.11,-1571.24C757.86,-1649.95 788.33,-1959.54 854.5,-2026 888.58,-2060.23 912.2,-2050 960.5,-2050 960.5,-2050 960.5,-2050 1762.75,-2050 1967.01,-2050 2017.49,-2073 2221.75,-2073 2221.75,-2073 2221.75,-2073 3358,-2073 3419.6,-2073 3443.12,-2072.76 3491,-2034 3537.26,-1996.56 3563.72,-1929.71 3575.8,-1891.3"/>
<polygon fill="black" stroke="black" points="3579.13,-1892.4 3578.66,-1881.81 3572.43,-1890.38 3579.13,-1892.4"/>
<text text-anchor="middle" x="2127.38" y="-2075.99" font-family="Times New Roman,serif" font-size="14.00">2517</text>
</g>
<!-- W_Completeren aanvraag&#45;&gt;A_CANCELLED -->
<g id="edge43" class="edge">
<title>W_Completeren aanvraag&#45;&gt;A_CANCELLED</title>
<path fill="none" stroke="black" d="M780.93,-1571.48C821.09,-1593.4 893.57,-1627 960.5,-1627 960.5,-1627 960.5,-1627 1608.75,-1627 1721.24,-1627 2495.4,-1466.93 2602,-1431 2629.95,-1421.58 2659.71,-1407.12 2682.89,-1394.76"/>
<polygon fill="black" stroke="black" points="2684.27,-1397.99 2691.39,-1390.15 2680.93,-1391.83 2684.27,-1397.99"/>
<text text-anchor="middle" x="1684.75" y="-1627.97" font-family="Times New Roman,serif" font-size="14.00">1121</text>
</g>
<!-- W_Nabellen offertes&#45;&gt;O_CREATED -->
<g id="edge1" class="edge">
<title>W_Nabellen offertes&#45;&gt;O_CREATED</title>
<path fill="none" stroke="black" d="M3124.92,-717.42C3112.32,-776.92 3072.85,-969.55 3054.75,-1131 3050.57,-1168.26 3054.21,-1434.82 3036.75,-1468 2984.8,-1566.73 2942.35,-1582.19 2837.75,-1621 2775.31,-1644.17 1695.52,-1683.62 1639.25,-1648 1559.75,-1597.68 1531.79,-1479.03 1522.83,-1423.56"/>
<polygon fill="black" stroke="black" points="1526.33,-1423.28 1521.38,-1413.91 1519.4,-1424.32 1526.33,-1423.28"/>
</g>
<!-- W_Nabellen offertes&#45;&gt;O_SENT_BACK -->
<g id="edge63" class="edge">
<title>W_Nabellen offertes&#45;&gt;O_SENT_BACK</title>
<path fill="none" stroke="black" d="M3174.86,-717.47C3201.67,-728.6 3236.69,-742.92 3268,-755 3276.21,-758.17 3284.89,-761.43 3293.46,-764.6"/>
<polygon fill="black" stroke="black" points="3292.21,-767.87 3302.8,-768.03 3294.62,-761.3 3292.21,-767.87"/>
<text text-anchor="middle" x="3236.5" y="-750.87" font-family="Times New Roman,serif" font-size="14.00">3254</text>
</g>
<!-- W_Nabellen offertes&#45;&gt;O_SELECTED -->
<g id="edge116" class="edge">
<title>W_Nabellen offertes&#45;&gt;O_SELECTED</title>
<path fill="none" stroke="black" d="M3128.63,-680.55C3126.93,-629.32 3115.1,-483.85 3036.75,-404 3021.99,-388.95 3012.53,-392.55 2991.75,-389 2571.67,-317.23 2459.17,-373 2033,-373 1333.38,-373 1333.38,-373 1333.38,-373 1267.26,-373 1250.01,-415.01 1227,-477 1168.5,-634.6 1152.46,-1175.64 1149.37,-1308.4"/>
<polygon fill="black" stroke="black" points="1145.88,-1308.03 1149.15,-1318.11 1152.88,-1308.19 1145.88,-1308.03"/>
<text text-anchor="middle" x="2127.38" y="-376.09" font-family="Times New Roman,serif" font-size="14.00">745</text>
</g>
<!-- W_Nabellen offertes&#45;&gt;O_DECLINED -->
<g id="edge27" class="edge">
<title>W_Nabellen offertes&#45;&gt;O_DECLINED</title>
<path fill="none" stroke="black" d="M3205.4,-695.96C3269.28,-693.89 3363.73,-692.07 3446,-695.5 3468.48,-696.44 3492.97,-698.23 3514.99,-700.12"/>
<polygon fill="black" stroke="black" points="3514.47,-703.59 3524.74,-700.98 3515.09,-696.62 3514.47,-703.59"/>
<text text-anchor="middle" x="3357" y="-698.7" font-family="Times New Roman,serif" font-size="14.00">21</text>
</g>
<!-- W_Nabellen offertes&#45;&gt;A_DECLINED -->
<g id="edge61" class="edge">
<title>W_Nabellen offertes&#45;&gt;A_DECLINED</title>
<path fill="none" stroke="black" d="M3136.55,-717.38C3166.84,-815.48 3309.45,-1277.27 3346.95,-1398.69"/>
<polygon fill="black" stroke="black" points="3343.6,-1399.7 3349.89,-1408.22 3350.28,-1397.63 3343.6,-1399.7"/>
<text text-anchor="middle" x="3236.5" y="-1066.7" font-family="Times New Roman,serif" font-size="14.00">27</text>
</g>
<!-- W_Nabellen offertes&#45;&gt;O_CANCELLED -->
<g id="edge23" class="edge">
<title>W_Nabellen offertes&#45;&gt;O_CANCELLED</title>
<path fill="none" stroke="black" d="M3126.69,-717.29C3114.19,-821.33 3051.89,-1335.05 3036.75,-1365 3019.3,-1399.5 2986.57,-1429.37 2960.99,-1449.07"/>
<polygon fill="black" stroke="black" points="2959.04,-1446.15 2953.13,-1454.95 2963.24,-1451.75 2959.04,-1446.15"/>
<text text-anchor="middle" x="3023.25" y="-1406.6" font-family="Times New Roman,serif" font-size="14.00">1587</text>
</g>
<!-- W_Nabellen offertes&#45;&gt;W_Completeren aanvraag -->
<g id="edge37" class="edge">
<title>W_Nabellen offertes&#45;&gt;W_Completeren aanvraag</title>
<path fill="none" stroke="black" d="M3127.64,-680.55C3121.54,-605.49 3087.92,-327 2924.75,-327 2221.75,-327 2221.75,-327 2221.75,-327 2075.27,-327 2044.35,-266 1897.88,-266 960.5,-266 960.5,-266 960.5,-266 853.56,-266 875.08,-377.06 854.5,-482 774.57,-889.64 754.37,-1397.1 750.44,-1523.47"/>
<polygon fill="black" stroke="black" points="746.95,-1523.2 750.15,-1533.3 753.95,-1523.41 746.95,-1523.2"/>
<text text-anchor="middle" x="1896.88" y="-269.2" font-family="Times New Roman,serif" font-size="14.00">5018</text>
</g>
<!-- W_Nabellen offertes&#45;&gt;W_Nabellen offertes -->
<g id="edge84" class="edge">
<title>W_Nabellen offertes&#45;&gt;W_Nabellen offertes</title>
<path fill="none" stroke="black" d="M3110.59,-717.15C3107.62,-726.54 3114.05,-735 3129.88,-735 3138.78,-735 3144.71,-732.32 3147.66,-728.31"/>
<polygon fill="black" stroke="black" points="3151.1,-729.03 3148.96,-718.65 3144.16,-728.1 3151.1,-729.03"/>
<text text-anchor="middle" x="3129.88" y="-738.2" font-family="Times New Roman,serif" font-size="14.00">36082</text>
</g>
<!-- W_Wijzigen contractgegevens -->
<g id="node20" class="node">
<title>W_Wijzigen contractgegevens</title>
<polygon fill="#d4001f" stroke="black" points="3446,-610 3268,-610 3268,-574 3446,-574 3446,-610"/>
<text text-anchor="middle" x="3357" y="-587.73" font-family="Times New Roman,serif" font-size="12.00">W_Wijzigen contractgegevens: 12</text>
</g>
<!-- W_Nabellen offertes&#45;&gt;W_Wijzigen contractgegevens -->
<g id="edge41" class="edge">
<title>W_Nabellen offertes&#45;&gt;W_Wijzigen contractgegevens</title>
<path fill="none" stroke="black" d="M3149.79,-680.59C3167.4,-664.41 3195.07,-641.35 3223,-627.5 3233.65,-622.22 3245.19,-617.64 3256.87,-613.71"/>
<polygon fill="black" stroke="black" points="3257.71,-617.11 3266.17,-610.73 3255.58,-610.45 3257.71,-617.11"/>
<text text-anchor="middle" x="3236.5" y="-630.7" font-family="Times New Roman,serif" font-size="14.00">2</text>
</g>
<!-- W_Nabellen offertes&#45;&gt;W_Valideren aanvraag -->
<g id="edge40" class="edge">
<title>W_Nabellen offertes&#45;&gt;W_Valideren aanvraag</title>
<path fill="none" stroke="black" d="M3054.51,-681.62C2959.19,-660.41 2788.54,-626.01 2640.25,-615 2631.27,-614.33 2628.61,-612.38 2620,-615 2594.33,-622.8 2569.28,-639.91 2551.07,-654.62"/>
<polygon fill="black" stroke="black" points="2549.3,-651.53 2543.86,-660.62 2553.79,-656.91 2549.3,-651.53"/>
<text text-anchor="middle" x="2824.25" y="-642.7" font-family="Times New Roman,serif" font-size="14.00">3208</text>
</g>
<!-- W_Nabellen offertes&#45;&gt;A_CANCELLED -->
<g id="edge16" class="edge">
<title>W_Nabellen offertes&#45;&gt;A_CANCELLED</title>
<path fill="none" stroke="black" d="M3126.55,-717.31C3117.93,-779.74 3083.45,-988.36 2991.75,-1131 2930.64,-1226.06 2822.38,-1307.24 2764.88,-1346.25"/>
<polygon fill="black" stroke="black" points="2763.04,-1343.27 2756.69,-1351.74 2766.94,-1349.08 2763.04,-1343.27"/>
<text text-anchor="middle" x="2923.75" y="-1279.74" font-family="Times New Roman,serif" font-size="14.00">779</text>
</g>
<!-- W_Beoordelen fraude&#45;&gt;A_DECLINED -->
<g id="edge79" class="edge">
<title>W_Beoordelen fraude&#45;&gt;A_DECLINED</title>
<path fill="none" stroke="black" d="M3709.8,-1390.71C3654.71,-1392.53 3576.89,-1396.21 3509,-1403.5 3483.01,-1406.29 3454.68,-1410.56 3429.66,-1414.75"/>
<polygon fill="black" stroke="black" points="3429.18,-1411.28 3419.91,-1416.41 3430.35,-1418.18 3429.18,-1411.28"/>
<text text-anchor="middle" x="3584.88" y="-1406.7" font-family="Times New Roman,serif" font-size="14.00">57</text>
</g>
<!-- W_Beoordelen fraude&#45;&gt;W_Completeren aanvraag -->
<g id="edge33" class="edge">
<title>W_Beoordelen fraude&#45;&gt;W_Completeren aanvraag</title>
<path fill="none" stroke="black" d="M3781.4,-1407.12C3778.58,-1527.08 3755.2,-2202 3585.88,-2202 2221.75,-2202 2221.75,-2202 2221.75,-2202 2132.12,-2202 2131.59,-2128.94 2045.5,-2104 1924.6,-2068.97 1888.62,-2088 1762.75,-2088 960.5,-2088 960.5,-2088 960.5,-2088 910.45,-2088 887.4,-2087.72 854.5,-2050 792.44,-1978.85 760.83,-1679.05 752.14,-1582.85"/>
<polygon fill="black" stroke="black" points="755.63,-1582.57 751.27,-1572.91 748.66,-1583.18 755.63,-1582.57"/>
<text text-anchor="middle" x="2222.75" y="-2205.2" font-family="Times New Roman,serif" font-size="14.00">6</text>
</g>
<!-- W_Beoordelen fraude&#45;&gt;W_Beoordelen fraude -->
<g id="edge49" class="edge">
<title>W_Beoordelen fraude&#45;&gt;W_Beoordelen fraude</title>
<path fill="none" stroke="black" d="M3765.16,-1407.15C3762.45,-1416.54 3768.31,-1425 3782.75,-1425 3790.87,-1425 3796.28,-1422.32 3798.97,-1418.31"/>
<polygon fill="black" stroke="black" points="3802.41,-1419.01 3800.16,-1408.65 3795.47,-1418.15 3802.41,-1419.01"/>
<text text-anchor="middle" x="3782.75" y="-1428.2" font-family="Times New Roman,serif" font-size="14.00">367</text>
</g>
<!-- W_Beoordelen fraude&#45;&gt;W_Afhandelen leads -->
<g id="edge68" class="edge">
<title>W_Beoordelen fraude&#45;&gt;W_Afhandelen leads</title>
<path fill="none" stroke="black" d="M3776.21,-1407.36C3763.18,-1449.93 3728.91,-1558.4 3692.25,-1646 3663.44,-1714.85 3623.07,-1792.73 3601.28,-1833.55"/>
<polygon fill="black" stroke="black" points="3598.26,-1831.78 3596.62,-1842.24 3604.43,-1835.08 3598.26,-1831.78"/>
<text text-anchor="middle" x="3685.5" y="-1679.24" font-family="Times New Roman,serif" font-size="14.00">84</text>
</g>
<!-- W_Beoordelen fraude&#45;&gt;W_Valideren aanvraag -->
<g id="edge60" class="edge">
<title>W_Beoordelen fraude&#45;&gt;W_Valideren aanvraag</title>
<path fill="none" stroke="black" d="M3781.64,-1370.84C3780.61,-1223.54 3770.74,-227.33 3692.25,-123 3661.98,-82.76 3636.23,-84 3585.88,-84 2823.25,-84 2823.25,-84 2823.25,-84 2749.14,-84 2714.77,-60.07 2658.25,-108 2573.47,-179.89 2535.04,-543.66 2525.47,-650.47"/>
<polygon fill="black" stroke="black" points="2522.01,-649.87 2524.62,-660.14 2528.98,-650.48 2522.01,-649.87"/>
<text text-anchor="middle" x="3129.88" y="-87.2" font-family="Times New Roman,serif" font-size="14.00">93</text>
</g>
<!-- W_Wijzigen contractgegevens&#45;&gt;W_Nabellen offertes -->
<g id="edge42" class="edge">
<title>W_Wijzigen contractgegevens&#45;&gt;W_Nabellen offertes</title>
<path fill="none" stroke="black" d="M3319.31,-610.26C3298.95,-620.33 3273.13,-632.99 3250,-644 3227.74,-654.6 3203.02,-666.06 3181.88,-675.77"/>
<polygon fill="black" stroke="black" points="3180.52,-672.54 3172.89,-679.89 3183.44,-678.91 3180.52,-672.54"/>
</g>
<!-- W_Wijzigen contractgegevens&#45;&gt;W_Wijzigen contractgegevens -->
<g id="edge117" class="edge">
<title>W_Wijzigen contractgegevens&#45;&gt;W_Wijzigen contractgegevens</title>
<path fill="none" stroke="black" d="M3335.2,-610.15C3331.85,-619.54 3339.11,-628 3357,-628 3367.06,-628 3373.76,-625.32 3377.1,-621.31"/>
<polygon fill="black" stroke="black" points="3380.53,-622.06 3378.57,-611.65 3373.61,-621.01 3380.53,-622.06"/>
<text text-anchor="middle" x="3357" y="-631.2" font-family="Times New Roman,serif" font-size="14.00">5</text>
</g>
<!-- W_Wijzigen contractgegevens&#45;&gt;W_Valideren aanvraag -->
<g id="edge52" class="edge">
<title>W_Wijzigen contractgegevens&#45;&gt;W_Valideren aanvraag</title>
<path fill="none" stroke="black" d="M3267.75,-587.68C3099.12,-580.49 2737.42,-570.46 2620,-610 2593.28,-619 2567.61,-638.14 2549.4,-654.14"/>
<polygon fill="black" stroke="black" points="2547.27,-651.35 2542.21,-660.67 2551.97,-656.54 2547.27,-651.35"/>
<text text-anchor="middle" x="2923.75" y="-585.91" font-family="Times New Roman,serif" font-size="14.00">2</text>
</g>
<!-- W_Afhandelen leads&#45;&gt;A_PREACCEPTED -->
<g id="edge114" class="edge">
<title>W_Afhandelen leads&#45;&gt;A_PREACCEPTED</title>
<path fill="none" stroke="black" d="M3578.81,-1880.24C3567.85,-1917.08 3538.99,-2001.58 3491,-2057 3447.41,-2107.34 3424.59,-2126 3358,-2126 747.62,-2126 747.62,-2126 747.62,-2126 629.87,-2126 549.79,-1700.17 529.94,-1582.7"/>
<polygon fill="black" stroke="black" points="533.4,-1582.2 528.3,-1572.91 526.5,-1583.35 533.4,-1582.2"/>
<text text-anchor="middle" x="2032" y="-2129.2" font-family="Times New Roman,serif" font-size="14.00">2515</text>
</g>
<!-- W_Afhandelen leads&#45;&gt;A_DECLINED -->
<g id="edge51" class="edge">
<title>W_Afhandelen leads&#45;&gt;A_DECLINED</title>
<path fill="none" stroke="black" d="M3569.1,-1843.93C3544.87,-1813.68 3496.17,-1750.27 3464,-1691 3419.98,-1609.89 3383.58,-1506.53 3367.26,-1457.01"/>
<polygon fill="black" stroke="black" points="3370.62,-1456.04 3364.19,-1447.62 3363.97,-1458.21 3370.62,-1456.04"/>
<text text-anchor="middle" x="3477.5" y="-1738.45" font-family="Times New Roman,serif" font-size="14.00">2234</text>
</g>
<!-- W_Afhandelen leads&#45;&gt;W_Completeren aanvraag -->
<g id="edge45" class="edge">
<title>W_Afhandelen leads&#45;&gt;W_Completeren aanvraag</title>
<path fill="none" stroke="black" d="M3570.63,-1880.43C3539,-1922.11 3454.43,-2020 3358,-2020 2221.75,-2020 2221.75,-2020 2221.75,-2020 2017.72,-2020 1966.78,-2012 1762.75,-2012 960.5,-2012 960.5,-2012 960.5,-2012 770.88,-2012 751.14,-1684.53 749.58,-1582.79"/>
<polygon fill="black" stroke="black" points="753.08,-1582.76 749.49,-1572.79 746.08,-1582.82 753.08,-1582.76"/>
<text text-anchor="middle" x="2127.38" y="-2023.13" font-family="Times New Roman,serif" font-size="14.00">2517</text>
</g>
<!-- W_Afhandelen leads&#45;&gt;W_Beoordelen fraude -->
<g id="edge67" class="edge">
<title>W_Afhandelen leads&#45;&gt;W_Beoordelen fraude</title>
<path fill="none" stroke="black" d="M3593.43,-1843.75C3623.27,-1771.69 3733.03,-1506.64 3769.72,-1418.05"/>
<polygon fill="black" stroke="black" points="3772.94,-1419.43 3773.53,-1408.85 3766.47,-1416.75 3772.94,-1419.43"/>
<text text-anchor="middle" x="3685.5" y="-1628.7" font-family="Times New Roman,serif" font-size="14.00">73</text>
</g>
<!-- W_Afhandelen leads&#45;&gt;W_Afhandelen leads -->
<g id="edge118" class="edge">
<title>W_Afhandelen leads&#45;&gt;W_Afhandelen leads</title>
<path fill="none" stroke="black" d="M3566.67,-1880.15C3563.87,-1889.54 3569.94,-1898 3584.88,-1898 3593.28,-1898 3598.87,-1895.32 3601.66,-1891.31"/>
<polygon fill="black" stroke="black" points="3605.1,-1892.02 3602.89,-1881.65 3598.16,-1891.13 3605.1,-1892.02"/>
<text text-anchor="middle" x="3584.88" y="-1901.2" font-family="Times New Roman,serif" font-size="14.00">6992</text>
</g>
<!-- W_Afhandelen leads&#45;&gt;A_CANCELLED -->
<g id="edge112" class="edge">
<title>W_Afhandelen leads&#45;&gt;A_CANCELLED</title>
<path fill="none" stroke="black" d="M3508.57,-1872.96C3430.93,-1880.28 3309.36,-1880.28 3223,-1826 3181.24,-1799.75 3030.99,-1476.89 2991.75,-1447 2937.27,-1405.5 2860.91,-1386.65 2804.1,-1378.09"/>
<polygon fill="black" stroke="black" points="2804.91,-1374.67 2794.51,-1376.73 2803.92,-1381.6 2804.91,-1374.67"/>
</g>
<!-- W_Valideren aanvraag&#45;&gt;A_ACTIVATED -->
<g id="edge71" class="edge">
<title>W_Valideren aanvraag&#45;&gt;A_ACTIVATED</title>
<path fill="none" stroke="black" d="M2510.59,-698.24C2489.74,-733.33 2439.65,-810.82 2379,-857 2348,-880.61 2253.37,-918.46 2189.68,-942.51"/>
<polygon fill="black" stroke="black" points="2188.5,-939.22 2180.37,-946.01 2190.96,-945.77 2188.5,-939.22"/>
<text text-anchor="middle" x="2316.62" y="-920.36" font-family="Times New Roman,serif" font-size="14.00">186</text>
</g>
<!-- W_Valideren aanvraag&#45;&gt;O_SELECTED -->
<g id="edge100" class="edge">
<title>W_Valideren aanvraag&#45;&gt;O_SELECTED</title>
<path fill="none" stroke="black" d="M2510.07,-661.62C2483.18,-618.99 2409.25,-517 2317.62,-517 1333.38,-517 1333.38,-517 1333.38,-517 1167.65,-517 1150.66,-1161.8 1148.94,-1308.53"/>
<polygon fill="black" stroke="black" points="1145.44,-1308.15 1148.84,-1318.19 1152.44,-1308.22 1145.44,-1308.15"/>
<text text-anchor="middle" x="1761.75" y="-520.2" font-family="Times New Roman,serif" font-size="14.00">107</text>
</g>
<!-- W_Valideren aanvraag&#45;&gt;O_DECLINED -->
<g id="edge36" class="edge">
<title>W_Valideren aanvraag&#45;&gt;O_DECLINED</title>
<path fill="none" stroke="black" d="M2533.33,-661.51C2549.05,-634.78 2581.28,-585.14 2620,-554 2658.39,-523.12 2675.23,-517 2724.5,-517 2724.5,-517 2724.5,-517 3358,-517 3457.44,-517 3535.92,-626.18 3568.07,-679.02"/>
<polygon fill="black" stroke="black" points="3564.98,-680.67 3573.1,-687.48 3571,-677.1 3564.98,-680.67"/>
<text text-anchor="middle" x="3023.25" y="-520.2" font-family="Times New Roman,serif" font-size="14.00">341</text>
</g>
<!-- W_Valideren aanvraag&#45;&gt;O_ACCEPTED -->
<g id="edge115" class="edge">
<title>W_Valideren aanvraag&#45;&gt;O_ACCEPTED</title>
<path fill="none" stroke="black" d="M2488.08,-698.37C2462.45,-713.18 2426.42,-735.16 2397,-757.5 2378.36,-771.65 2358.94,-789.33 2343.97,-803.69"/>
<polygon fill="black" stroke="black" points="2341.53,-801.18 2336.8,-810.66 2346.41,-806.2 2341.53,-801.18"/>
<text text-anchor="middle" x="2410.5" y="-760.7" font-family="Times New Roman,serif" font-size="14.00">1062</text>
</g>
<!-- W_Valideren aanvraag&#45;&gt;A_APPROVED -->
<g id="edge30" class="edge">
<title>W_Valideren aanvraag&#45;&gt;A_APPROVED</title>
<path fill="none" stroke="black" d="M2529.43,-698.47C2543.07,-736.43 2577.18,-825.22 2620,-892 2627.44,-903.61 2634.77,-902.85 2640.25,-915.5 2670.34,-985.02 2614.65,-1023.05 2658.25,-1085 2659.89,-1087.33 2661.75,-1089.5 2663.77,-1091.51"/>
<polygon fill="black" stroke="black" points="2661.2,-1093.92 2671.14,-1097.59 2665.65,-1088.52 2661.2,-1093.92"/>
<text text-anchor="middle" x="2630.12" y="-918.7" font-family="Times New Roman,serif" font-size="14.00">538</text>
</g>
<!-- W_Valideren aanvraag&#45;&gt;A_DECLINED -->
<g id="edge105" class="edge">
<title>W_Valideren aanvraag&#45;&gt;A_DECLINED</title>
<path fill="none" stroke="black" d="M2602.39,-698.4C2615.62,-703.3 2628.76,-709.41 2640.25,-717 2650.51,-723.78 2648.37,-730.68 2658.25,-738 2710.69,-776.87 2738.01,-761.44 2792.75,-797 2815.44,-811.74 2825.31,-813.97 2837.75,-838 2867.6,-895.67 2819.72,-928.97 2855.75,-983 2894.35,-1040.88 2947.88,-1006.5 2991.75,-1060.5 3049.31,-1131.35 3003.9,-1180.18 3054.75,-1256 3109.25,-1337.27 3135.38,-1354.43 3223,-1398 3241.87,-1407.38 3263.69,-1413.87 3284.14,-1418.33"/>
<polygon fill="black" stroke="black" points="3283.35,-1421.74 3293.85,-1420.31 3284.75,-1414.88 3283.35,-1421.74"/>
<text text-anchor="middle" x="2923.75" y="-1063.7" font-family="Times New Roman,serif" font-size="14.00">327</text>
</g>
<!-- W_Valideren aanvraag&#45;&gt;O_CANCELLED -->
<g id="edge120" class="edge">
<title>W_Valideren aanvraag&#45;&gt;O_CANCELLED</title>
<path fill="none" stroke="black" d="M2540,-698.25C2571.09,-731.83 2634.47,-801.22 2640.25,-815 2659.82,-861.66 2625.27,-1003.62 2658.25,-1042 2698.27,-1088.56 2751.9,-1027.67 2792.75,-1073.5 2815.9,-1099.47 2803.85,-1194.91 2810.75,-1229 2824.9,-1298.89 2824.13,-1319.09 2855.75,-1383 2867.31,-1406.36 2884.91,-1429.98 2899.18,-1447.3"/>
<polygon fill="black" stroke="black" points="2896.19,-1449.19 2905.31,-1454.59 2901.55,-1444.68 2896.19,-1449.19"/>
<text text-anchor="middle" x="2725.5" y="-1076.7" font-family="Times New Roman,serif" font-size="14.00">110</text>
</g>
<!-- W_Valideren aanvraag&#45;&gt;A_REGISTERED -->
<g id="edge81" class="edge">
<title>W_Valideren aanvraag&#45;&gt;A_REGISTERED</title>
<path fill="none" stroke="black" d="M2561.96,-698.46C2588.17,-712.91 2621.28,-735.5 2640.25,-765 2662.08,-798.94 2631.27,-823.99 2658.25,-854 2714.39,-916.46 2784.38,-848.16 2837.75,-913 2870.07,-952.27 2834.37,-979.86 2855.75,-1026 2864.78,-1045.5 2880.13,-1063.91 2893.87,-1077.94"/>
<polygon fill="black" stroke="black" points="2891.05,-1080.07 2900.63,-1084.61 2895.96,-1075.09 2891.05,-1080.07"/>
<text text-anchor="middle" x="2725.5" y="-887.73" font-family="Times New Roman,serif" font-size="14.00">265</text>
</g>
<!-- W_Valideren aanvraag&#45;&gt;W_Nabellen offertes -->
<g id="edge96" class="edge">
<title>W_Valideren aanvraag&#45;&gt;W_Nabellen offertes</title>
<path fill="none" stroke="black" d="M2558.34,-661.51C2576.28,-653.15 2598.74,-644.21 2620,-640 2628.83,-638.25 2631.27,-639.4 2640.25,-640 2736.68,-646.46 2759.82,-657.28 2855.75,-669 2918.41,-676.66 2989.28,-684.41 3043.12,-690.12"/>
<polygon fill="black" stroke="black" points="3042.52,-693.58 3052.83,-691.15 3043.26,-686.62 3042.52,-693.58"/>
<text text-anchor="middle" x="2824.25" y="-669.78" font-family="Times New Roman,serif" font-size="14.00">3255</text>
</g>
<!-- W_Valideren aanvraag&#45;&gt;W_Beoordelen fraude -->
<g id="edge123" class="edge">
<title>W_Valideren aanvraag&#45;&gt;W_Beoordelen fraude</title>
<path fill="none" stroke="black" d="M2524.73,-661.63C2533.25,-575.47 2573.77,-212.82 2658.25,-146 2758.88,-66.42 3107.21,-137 3235.5,-137 3235.5,-137 3235.5,-137 3585.88,-137 3713.77,-137 3770.93,-1169.92 3780.34,-1359.35"/>
<polygon fill="black" stroke="black" points="3776.84,-1359.49 3780.83,-1369.31 3783.83,-1359.15 3776.84,-1359.49"/>
<text text-anchor="middle" x="3129.88" y="-139.15" font-family="Times New Roman,serif" font-size="14.00">93</text>
</g>
<!-- W_Valideren aanvraag&#45;&gt;W_Wijzigen contractgegevens -->
<g id="edge44" class="edge">
<title>W_Valideren aanvraag&#45;&gt;W_Wijzigen contractgegevens</title>
<path fill="none" stroke="black" d="M2531.82,-661.75C2546.05,-634.71 2576.89,-585.03 2620,-565 2730.13,-513.82 3082.05,-553.46 3256.3,-577.32"/>
<polygon fill="black" stroke="black" points="3255.64,-580.76 3266.02,-578.66 3256.59,-573.82 3255.64,-580.76"/>
<text text-anchor="middle" x="2923.75" y="-551.28" font-family="Times New Roman,serif" font-size="14.00">4</text>
</g>
<!-- W_Valideren aanvraag&#45;&gt;W_Valideren aanvraag -->
<g id="edge102" class="edge">
<title>W_Valideren aanvraag&#45;&gt;W_Valideren aanvraag</title>
<path fill="none" stroke="black" d="M2502.44,-698.15C2499.43,-707.54 2505.95,-716 2522,-716 2531.03,-716 2537.04,-713.32 2540.04,-709.31"/>
<polygon fill="black" stroke="black" points="2543.47,-710.03 2541.36,-699.65 2536.54,-709.09 2543.47,-710.03"/>
<text text-anchor="middle" x="2522" y="-719.2" font-family="Times New Roman,serif" font-size="14.00">5849</text>
</g>
<!-- W_Valideren aanvraag&#45;&gt;W_Nabellen incomplete dossiers -->
<g id="edge28" class="edge">
<title>W_Valideren aanvraag&#45;&gt;W_Nabellen incomplete dossiers</title>
<path fill="none" stroke="black" d="M2484.27,-661.63C2392.49,-618.65 2151.05,-523.91 2018.5,-644 1943.87,-711.62 1909.36,-1037.45 1900.35,-1138.23"/>
<polygon fill="black" stroke="black" points="1896.87,-1137.86 1899.48,-1148.12 1903.84,-1138.46 1896.87,-1137.86"/>
<text text-anchor="middle" x="2222.75" y="-590.41" font-family="Times New Roman,serif" font-size="14.00">5911</text>
</g>
<!-- W_Valideren aanvraag&#45;&gt;A_CANCELLED -->
<g id="edge22" class="edge">
<title>W_Valideren aanvraag&#45;&gt;A_CANCELLED</title>
<path fill="none" stroke="black" d="M2533.19,-698.47C2550.44,-730.63 2585.14,-799.47 2602,-862 2619.82,-928.11 2606.31,-947.91 2620,-1015 2645.29,-1138.92 2693.26,-1282.17 2714.24,-1342.2"/>
<polygon fill="black" stroke="black" points="2710.83,-1343.05 2717.45,-1351.32 2717.43,-1340.72 2710.83,-1343.05"/>
<text text-anchor="middle" x="2630.12" y="-1097.35" font-family="Times New Roman,serif" font-size="14.00">14</text>
</g>
<!-- W_Nabellen incomplete dossiers&#45;&gt;A_ACTIVATED -->
<g id="edge90" class="edge">
<title>W_Nabellen incomplete dossiers&#45;&gt;A_ACTIVATED</title>
<path fill="none" stroke="black" d="M1916.23,-1149.51C1939.5,-1126.28 1981.09,-1085.48 2018.5,-1052.5 2043.19,-1030.73 2072.22,-1007.3 2093.94,-990.17"/>
<polygon fill="black" stroke="black" points="2095.88,-993.1 2101.58,-984.17 2091.55,-987.59 2095.88,-993.1"/>
<text text-anchor="middle" x="2032" y="-1055.7" font-family="Times New Roman,serif" font-size="14.00">17</text>
</g>
<!-- W_Nabellen incomplete dossiers&#45;&gt;O_SENT_BACK -->
<g id="edge57" class="edge">
<title>W_Nabellen incomplete dossiers&#45;&gt;O_SENT_BACK</title>
<path fill="none" stroke="black" d="M1899.94,-1186.37C1910.49,-1275.83 1961.76,-1663.26 2063.5,-1707 2141.39,-1740.49 2169.46,-1709.33 2254.25,-1710 2341.38,-1710.69 2972.07,-1717.37 3036.75,-1659 3069.95,-1629.04 3042.57,-1603.03 3054.75,-1560 3139.51,-1260.44 3295.9,-915.67 3342.53,-815.59"/>
<polygon fill="black" stroke="black" points="3345.6,-817.29 3346.66,-806.75 3339.26,-814.33 3345.6,-817.29"/>
<text text-anchor="middle" x="2630.12" y="-1710.8" font-family="Times New Roman,serif" font-size="14.00">200</text>
</g>
<!-- W_Nabellen incomplete dossiers&#45;&gt;O_SELECTED -->
<g id="edge121" class="edge">
<title>W_Nabellen incomplete dossiers&#45;&gt;O_SELECTED</title>
<path fill="none" stroke="black" d="M1840.82,-1186.43C1798.83,-1198.86 1739.29,-1213 1685.75,-1213 1333.38,-1213 1333.38,-1213 1333.38,-1213 1264.15,-1213 1201.54,-1274.01 1170.09,-1310.78"/>
<polygon fill="black" stroke="black" points="1167.46,-1308.47 1163.75,-1318.39 1172.84,-1312.95 1167.46,-1308.47"/>
<text text-anchor="middle" x="1518" y="-1216.2" font-family="Times New Roman,serif" font-size="14.00">108</text>
</g>
<!-- W_Nabellen incomplete dossiers&#45;&gt;O_DECLINED -->
<g id="edge66" class="edge">
<title>W_Nabellen incomplete dossiers&#45;&gt;O_DECLINED</title>
<path fill="none" stroke="black" d="M1899.98,-1186.32C1909.36,-1264.67 1949.93,-1570.33 2018.5,-1633 2096.89,-1704.65 2149.04,-1657.55 2254.25,-1672 2579.23,-1716.62 2674.73,-1785.26 2991.75,-1701 3164.14,-1655.18 3138.43,-1526.49 3205,-1361 3215.87,-1333.98 3211.31,-1324.67 3223,-1298 3324.6,-1066.3 3503.03,-816.16 3563.31,-734.47"/>
<polygon fill="black" stroke="black" points="3566.02,-736.69 3569.16,-726.57 3560.4,-732.52 3566.02,-736.69"/>
<text text-anchor="middle" x="2725.5" y="-1744.08" font-family="Times New Roman,serif" font-size="14.00">46</text>
</g>
<!-- W_Nabellen incomplete dossiers&#45;&gt;O_ACCEPTED -->
<g id="edge39" class="edge">
<title>W_Nabellen incomplete dossiers&#45;&gt;O_ACCEPTED</title>
<path fill="none" stroke="black" d="M1906.36,-1149.82C1927.56,-1105.95 1986.71,-992.62 2063.5,-921.5 2118.11,-870.92 2138.13,-860.98 2209.25,-839 2219.87,-835.72 2231.36,-833.48 2242.72,-831.97"/>
<polygon fill="black" stroke="black" points="2242.96,-835.47 2252.5,-830.87 2242.18,-828.51 2242.96,-835.47"/>
<text text-anchor="middle" x="2127.38" y="-924.7" font-family="Times New Roman,serif" font-size="14.00">107</text>
</g>
<!-- W_Nabellen incomplete dossiers&#45;&gt;A_APPROVED -->
<g id="edge5" class="edge">
<title>W_Nabellen incomplete dossiers&#45;&gt;A_APPROVED</title>
<path fill="none" stroke="black" d="M2001,-1156.18C2110.3,-1144.29 2288.05,-1126.78 2442,-1120 2513.04,-1116.87 2535.92,-1093.73 2602,-1120 2612.23,-1124.07 2609.77,-1132.93 2620,-1137 2636.4,-1143.52 2655.12,-1142.39 2672.14,-1138.4"/>
<polygon fill="black" stroke="black" points="2672.86,-1141.84 2681.58,-1135.83 2671.01,-1135.08 2672.86,-1141.84"/>
<text text-anchor="middle" x="2316.62" y="-1135.03" font-family="Times New Roman,serif" font-size="14.00">50</text>
</g>
<!-- W_Nabellen incomplete dossiers&#45;&gt;A_DECLINED -->
<g id="edge74" class="edge">
<title>W_Nabellen incomplete dossiers&#45;&gt;A_DECLINED</title>
<path fill="none" stroke="black" d="M1898.98,-1186.49C1904.8,-1277.59 1934.89,-1677.81 2018.5,-1763 2049.74,-1794.83 1518.95,-1812 2629.12,-1812 2629.12,-1812 2629.12,-1812 3130.88,-1812 3295.08,-1812 3341.79,-1547.45 3352.93,-1457.52"/>
<polygon fill="black" stroke="black" points="3356.39,-1458.11 3354.07,-1447.77 3349.43,-1457.29 3356.39,-1458.11"/>
<text text-anchor="middle" x="2630.12" y="-1815.2" font-family="Times New Roman,serif" font-size="14.00">40</text>
</g>
<!-- W_Nabellen incomplete dossiers&#45;&gt;O_CANCELLED -->
<g id="edge69" class="edge">
<title>W_Nabellen incomplete dossiers&#45;&gt;O_CANCELLED</title>
<path fill="none" stroke="black" d="M1902.91,-1186.27C1915.58,-1229.24 1952.55,-1337.94 2018.5,-1403 2101.77,-1485.15 2140.65,-1492.1 2254.25,-1520 2380.21,-1550.94 2710.97,-1534.38 2837.75,-1507 2849.24,-1504.52 2861.22,-1500.7 2872.43,-1496.53"/>
<polygon fill="black" stroke="black" points="2873.45,-1499.89 2881.5,-1493 2870.91,-1493.36 2873.45,-1499.89"/>
<text text-anchor="middle" x="2410.5" y="-1539.43" font-family="Times New Roman,serif" font-size="14.00">135</text>
</g>
<!-- W_Nabellen incomplete dossiers&#45;&gt;A_REGISTERED -->
<g id="edge101" class="edge">
<title>W_Nabellen incomplete dossiers&#45;&gt;A_REGISTERED</title>
<path fill="none" stroke="black" d="M1928.95,-1186.28C1952.64,-1199.24 1986.53,-1215.75 2018.5,-1224 2185.21,-1267.04 2623.16,-1282.71 2792.75,-1253 2813.66,-1249.34 2824.15,-1253.29 2837.75,-1237 2867.27,-1201.65 2829.84,-1169.67 2853.84,-1131.15"/>
<polygon fill="black" stroke="black" points="2856.36,-1133.63 2859.5,-1123.51 2850.74,-1129.46 2856.36,-1133.63"/>
<text text-anchor="middle" x="2410.5" y="-1269.58" font-family="Times New Roman,serif" font-size="14.00">21</text>
</g>
<!-- W_Nabellen incomplete dossiers&#45;&gt;W_Wijzigen contractgegevens -->
<g id="edge7" class="edge">
<title>W_Nabellen incomplete dossiers&#45;&gt;W_Wijzigen contractgegevens</title>
<path fill="none" stroke="black" d="M1899.01,-1149.61C1906.14,-1039.87 1948.27,-472.09 2063.5,-351 2213.51,-193.37 2832.77,-167.2 3036.75,-243 3120.5,-274.12 3142.32,-289.34 3205,-353 3269.37,-418.38 3320.25,-515.72 3343.02,-563.48"/>
<polygon fill="black" stroke="black" points="3339.75,-564.77 3347.17,-572.33 3346.09,-561.79 3339.75,-564.77"/>
</g>
<!-- W_Nabellen incomplete dossiers&#45;&gt;W_Valideren aanvraag -->
<g id="edge106" class="edge">
<title>W_Nabellen incomplete dossiers&#45;&gt;W_Valideren aanvraag</title>
<path fill="none" stroke="black" d="M1897.98,-1149.62C1899.35,-1088.17 1912.14,-887.62 2018.5,-779 2126,-669.21 2317.36,-662.53 2430.36,-669.79"/>
<polygon fill="black" stroke="black" points="2429.99,-673.27 2440.21,-670.48 2430.48,-666.29 2429.99,-673.27"/>
<text text-anchor="middle" x="2222.75" y="-685.64" font-family="Times New Roman,serif" font-size="14.00">5459</text>
</g>
<!-- W_Nabellen incomplete dossiers&#45;&gt;W_Nabellen incomplete dossiers -->
<g id="edge55" class="edge">
<title>W_Nabellen incomplete dossiers&#45;&gt;W_Nabellen incomplete dossiers</title>
<path fill="none" stroke="black" d="M1872.43,-1186.15C1868.67,-1195.54 1876.82,-1204 1896.88,-1204 1908.16,-1204 1915.67,-1201.32 1919.42,-1197.31"/>
<polygon fill="black" stroke="black" points="1922.84,-1198.09 1921.07,-1187.64 1915.93,-1196.91 1922.84,-1198.09"/>
<text text-anchor="middle" x="1896.88" y="-1207.2" font-family="Times New Roman,serif" font-size="14.00">18475</text>
</g>
<!-- W_Nabellen incomplete dossiers&#45;&gt;A_CANCELLED -->
<g id="edge8" class="edge">
<title>W_Nabellen incomplete dossiers&#45;&gt;A_CANCELLED</title>
<path fill="none" stroke="black" d="M1915.07,-1186.45C1936.83,-1208.5 1976.57,-1244.6 2018.5,-1262 2034.58,-1268.67 2623.34,-1335.88 2640.25,-1340 2649.93,-1342.36 2660.03,-1345.47 2669.74,-1348.81"/>
<polygon fill="black" stroke="black" points="2668.47,-1352.08 2679.06,-1352.15 2670.83,-1345.49 2668.47,-1352.08"/>
<text text-anchor="middle" x="2316.62" y="-1310.9" font-family="Times New Roman,serif" font-size="14.00">79</text>
</g>
<!-- A_CANCELLED&#45;&gt;O_CANCELLED -->
<g id="edge75" class="edge">
<title>A_CANCELLED&#45;&gt;O_CANCELLED</title>
<path fill="none" stroke="black" d="M2769.3,-1389.47C2790.21,-1398.84 2815.58,-1410.7 2837.75,-1422.5 2853.34,-1430.8 2870.06,-1440.7 2884.5,-1449.59"/>
<polygon fill="black" stroke="black" points="2882.47,-1452.45 2892.81,-1454.75 2886.17,-1446.5 2882.47,-1452.45"/>
<text text-anchor="middle" x="2824.25" y="-1425.7" font-family="Times New Roman,serif" font-size="14.00">863</text>
</g>
<!-- A_CANCELLED&#45;&gt;W_Completeren aanvraag -->
<g id="edge20" class="edge">
<title>A_CANCELLED&#45;&gt;W_Completeren aanvraag</title>
<path fill="none" stroke="black" d="M2661.9,-1389.42C2642.79,-1394.62 2621.63,-1399.96 2602,-1404 2449.06,-1435.48 2408.18,-1427.79 2254.25,-1454 2140.94,-1473.3 2114.1,-1486.48 2000.5,-1504 1665.03,-1555.75 1580.94,-1589 1241.5,-1589 960.5,-1589 960.5,-1589 960.5,-1589 917.91,-1589 871.16,-1581.78 832.52,-1573.8"/>
<polygon fill="black" stroke="black" points="833.32,-1570.39 822.81,-1571.74 831.87,-1577.24 833.32,-1570.39"/>
<text text-anchor="middle" x="1684.75" y="-1566.46" font-family="Times New Roman,serif" font-size="14.00">749</text>
</g>
<!-- A_CANCELLED&#45;&gt;W_Nabellen offertes -->
<g id="edge122" class="edge">
<title>A_CANCELLED&#45;&gt;W_Nabellen offertes</title>
<path fill="none" stroke="black" d="M2793.02,-1370.63C2853.3,-1366.58 2940.34,-1350.87 2991.75,-1297 3072.03,-1212.88 3115.12,-837.27 3126.06,-728.56"/>
<polygon fill="black" stroke="black" points="3129.53,-729.02 3127.03,-718.72 3122.56,-728.33 3129.53,-729.02"/>
<text text-anchor="middle" x="2923.75" y="-1365.31" font-family="Times New Roman,serif" font-size="14.00">466</text>
</g>
<!-- A_CANCELLED&#45;&gt;W_Valideren aanvraag -->
<g id="edge62" class="edge">
<title>A_CANCELLED&#45;&gt;W_Valideren aanvraag</title>
<path fill="none" stroke="black" d="M2717.89,-1352.75C2704.35,-1314.57 2673.45,-1223.23 2658.25,-1144 2642.39,-1061.35 2673.27,-1032.91 2640.25,-955.5 2634.84,-942.82 2626.38,-944.22 2620,-932 2605.12,-903.53 2612.43,-892.38 2602,-862 2582.9,-806.34 2554.11,-743.92 2537.07,-708.55"/>
<polygon fill="black" stroke="black" points="2540.36,-707.31 2532.85,-699.84 2534.06,-710.36 2540.36,-707.31"/>
<text text-anchor="middle" x="2630.12" y="-958.7" font-family="Times New Roman,serif" font-size="14.00">13</text>
</g>
<!-- A_CANCELLED&#45;&gt;W_Nabellen incomplete dossiers -->
<g id="edge108" class="edge">
<title>A_CANCELLED&#45;&gt;W_Nabellen incomplete dossiers</title>
<path fill="none" stroke="black" d="M2658,-1367.72C2537.9,-1360.75 2277.41,-1340.82 2063.5,-1291 2043.22,-1286.28 2036.67,-1288.17 2018.5,-1278 1979.73,-1256.3 1943.22,-1219.93 1920.73,-1195"/>
<polygon fill="black" stroke="black" points="1923.35,-1192.68 1914.1,-1187.51 1918.11,-1197.32 1923.35,-1192.68"/>
<text text-anchor="middle" x="2316.62" y="-1346.21" font-family="Times New Roman,serif" font-size="14.00">50</text>
</g>
</g>
</svg>
