<?xml version="1.0" encoding="UTF-8" standalone="no"?>
<!DOCTYPE svg PUBLIC "-//W3C//DTD SVG 1.1//EN"
 "http://www.w3.org/Graphics/SVG/1.1/DTD/svg11.dtd">
<!-- Generated by graphviz version 12.1.2 (20240928.0832)
 -->
<!-- Title: 22b98b98&#45;88cf&#45;4e7a&#45;bff7&#45;8f9561d2b966 Pages: 1 -->
<svg width="913pt" height="247pt"
 viewBox="0.00 0.00 913.00 247.09" xmlns="http://www.w3.org/2000/svg" xmlns:xlink="http://www.w3.org/1999/xlink">
<g id="graph0" class="graph" transform="scale(1 1) rotate(0) translate(4 243.09)">
<title>22b98b98&#45;88cf&#45;4e7a&#45;bff7&#45;8f9561d2b966</title>
<polygon fill="white" stroke="none" points="-4,4 -4,-243.09 909,-243.09 909,4 -4,4"/>
<!-- O_Create Offer -->
<g id="node1" class="node">
<title>O_Create Offer</title>
<polygon fill="#4b9969" stroke="black" points="126.25,-135.93 0,-135.93 0,-99.93 126.25,-99.93 126.25,-135.93"/>
<text text-anchor="middle" x="63.12" y="-113.65" font-family="Times New Roman,serif" font-size="12.00">O_Create Offer: 42995</text>
</g>
<!-- O_Created -->
<g id="node2" class="node">
<title>O_Created</title>
<polygon fill="white" stroke="black" points="299.75,-135.93 196,-135.93 196,-99.93 299.75,-99.93 299.75,-135.93"/>
<text text-anchor="middle" x="247.88" y="-113.65" font-family="Times New Roman,serif" font-size="12.00">O_Created: 42995</text>
</g>
<!-- O_Create Offer&#45;&gt;O_Created -->
<g id="edge6" class="edge">
<title>O_Create Offer&#45;&gt;O_Created</title>
<path fill="none" stroke="black" d="M126.51,-117.93C145.17,-117.93 165.64,-117.93 184.32,-117.93"/>
<polygon fill="black" stroke="black" points="184.17,-121.43 194.17,-117.93 184.17,-114.43 184.17,-121.43"/>
<text text-anchor="middle" x="161.12" y="-121.13" font-family="Times New Roman,serif" font-size="14.00">42995</text>
</g>
<!-- O_Sent (online only) -->
<g id="node4" class="node">
<title>O_Sent (online only)</title>
<polygon fill="#d4001f" stroke="black" points="528,-159.93 382.25,-159.93 382.25,-123.93 528,-123.93 528,-159.93"/>
<text text-anchor="middle" x="455.12" y="-137.65" font-family="Times New Roman,serif" font-size="12.00">O_Sent (online only): 2026</text>
</g>
<!-- O_Created&#45;&gt;O_Sent (online only) -->
<g id="edge12" class="edge">
<title>O_Created&#45;&gt;O_Sent (online only)</title>
<path fill="none" stroke="black" d="M300.14,-123.92C321.46,-126.41 346.77,-129.37 370.64,-132.16"/>
<polygon fill="black" stroke="black" points="370.01,-135.62 380.35,-133.3 370.82,-128.66 370.01,-135.62"/>
<text text-anchor="middle" x="334.62" y="-133.13" font-family="Times New Roman,serif" font-size="14.00">2026</text>
</g>
<!-- O_Sent (mail and online) -->
<g id="node5" class="node">
<title>O_Sent (mail and online)</title>
<polygon fill="#d4001f" stroke="black" points="540.75,-105.93 369.5,-105.93 369.5,-69.93 540.75,-69.93 540.75,-105.93"/>
<text text-anchor="middle" x="455.12" y="-83.65" font-family="Times New Roman,serif" font-size="12.00">O_Sent (mail and online): 39707</text>
</g>
<!-- O_Created&#45;&gt;O_Sent (mail and online) -->
<g id="edge8" class="edge">
<title>O_Created&#45;&gt;O_Sent (mail and online)</title>
<path fill="none" stroke="black" d="M299.98,-108.35C305.96,-107.32 311.99,-106.32 317.75,-105.43 330.74,-103.42 344.46,-101.46 357.98,-99.63"/>
<polygon fill="black" stroke="black" points="358.33,-103.11 367.78,-98.32 357.4,-96.18 358.33,-103.11"/>
<text text-anchor="middle" x="334.62" y="-108.63" font-family="Times New Roman,serif" font-size="14.00">39707</text>
</g>
<!-- O_Refused -->
<g id="node6" class="node">
<title>O_Refused</title>
<polygon fill="#d4001f" stroke="black" points="897.88,-220.93 797.88,-220.93 797.88,-184.93 897.88,-184.93 897.88,-220.93"/>
<text text-anchor="middle" x="847.88" y="-198.65" font-family="Times New Roman,serif" font-size="12.00">O_Refused: 4695</text>
</g>
<!-- O_Created&#45;&gt;O_Refused -->
<g id="edge7" class="edge">
<title>O_Created&#45;&gt;O_Refused</title>
<path fill="none" stroke="black" d="M285.35,-136.34C295.71,-141.31 307.08,-146.53 317.75,-150.93 340.27,-160.2 346.09,-162.21 369.5,-168.93 521.48,-212.56 563.06,-231.54 721,-223.93 744.08,-222.81 749.92,-222.48 772.75,-218.93 777.29,-218.22 781.96,-217.41 786.66,-216.54"/>
<polygon fill="black" stroke="black" points="786.95,-220.04 796.1,-214.69 785.61,-213.17 786.95,-220.04"/>
<text text-anchor="middle" x="575.62" y="-225.79" font-family="Times New Roman,serif" font-size="14.00">59</text>
</g>
<!-- O_Cancelled -->
<g id="node7" class="node">
<title>O_Cancelled</title>
<polygon fill="#d4001f" stroke="black" points="905,-42.93 790.75,-42.93 790.75,-6.93 905,-6.93 905,-42.93"/>
<text text-anchor="middle" x="847.88" y="-20.65" font-family="Times New Roman,serif" font-size="12.00">O_Cancelled: 20898</text>
</g>
<!-- O_Created&#45;&gt;O_Cancelled -->
<g id="edge4" class="edge">
<title>O_Created&#45;&gt;O_Cancelled</title>
<path fill="none" stroke="black" d="M284.11,-99.43C307.83,-87.44 340.03,-72.05 369.5,-60.93 538.51,2.87 593.18,9.82 772.75,-9.93 774.81,-10.15 776.91,-10.41 779.01,-10.69"/>
<polygon fill="black" stroke="black" points="778.47,-14.15 788.88,-12.18 779.52,-7.23 778.47,-14.15"/>
<text text-anchor="middle" x="575.62" y="-8.37" font-family="Times New Roman,serif" font-size="14.00">1203</text>
</g>
<!-- O_Returned -->
<g id="node3" class="node">
<title>O_Returned</title>
<polygon fill="#d4001f" stroke="black" points="721,-131.93 610.5,-131.93 610.5,-95.93 721,-95.93 721,-131.93"/>
<text text-anchor="middle" x="665.75" y="-109.65" font-family="Times New Roman,serif" font-size="12.00">O_Returned: 23305</text>
</g>
<!-- O_Returned&#45;&gt;O_Refused -->
<g id="edge14" class="edge">
<title>O_Returned&#45;&gt;O_Refused</title>
<path fill="none" stroke="black" d="M719.95,-132.4C737.11,-138.98 756.02,-146.9 772.75,-155.43 785.86,-162.11 799.59,-170.48 811.62,-178.33"/>
<polygon fill="black" stroke="black" points="809.34,-181.02 819.6,-183.63 813.21,-175.18 809.34,-181.02"/>
<text text-anchor="middle" x="755.88" y="-158.63" font-family="Times New Roman,serif" font-size="14.00">3573</text>
</g>
<!-- O_Returned&#45;&gt;O_Cancelled -->
<g id="edge3" class="edge">
<title>O_Returned&#45;&gt;O_Cancelled</title>
<path fill="none" stroke="black" d="M704.07,-95.49C731.73,-81.82 769.62,-63.1 799.43,-48.37"/>
<polygon fill="black" stroke="black" points="800.83,-51.58 808.24,-44.01 797.73,-45.31 800.83,-51.58"/>
<text text-anchor="middle" x="755.88" y="-80.6" font-family="Times New Roman,serif" font-size="14.00">2455</text>
</g>
<!-- O_Accepted -->
<g id="node8" class="node">
<title>O_Accepted</title>
<polygon fill="#d4001f" stroke="black" points="903.88,-131.93 791.88,-131.93 791.88,-95.93 903.88,-95.93 903.88,-131.93"/>
<text text-anchor="middle" x="847.88" y="-109.65" font-family="Times New Roman,serif" font-size="12.00">O_Accepted: 17228</text>
</g>
<!-- O_Returned&#45;&gt;O_Accepted -->
<g id="edge5" class="edge">
<title>O_Returned&#45;&gt;O_Accepted</title>
<path fill="none" stroke="black" d="M721.28,-113.93C739.81,-113.93 760.72,-113.93 780.09,-113.93"/>
<polygon fill="black" stroke="black" points="780.08,-117.43 790.08,-113.93 780.08,-110.43 780.08,-117.43"/>
<text text-anchor="middle" x="755.88" y="-117.13" font-family="Times New Roman,serif" font-size="14.00">17228</text>
</g>
<!-- O_Sent (online only)&#45;&gt;O_Returned -->
<g id="edge13" class="edge">
<title>O_Sent (online only)&#45;&gt;O_Returned</title>
<path fill="none" stroke="black" d="M528.21,-132.25C551.19,-129.17 576.47,-125.78 598.97,-122.76"/>
<polygon fill="black" stroke="black" points="599.17,-126.26 608.61,-121.46 598.24,-119.32 599.17,-126.26"/>
<text text-anchor="middle" x="575.62" y="-131.13" font-family="Times New Roman,serif" font-size="14.00">1033</text>
</g>
<!-- O_Sent (online only)&#45;&gt;O_Refused -->
<g id="edge10" class="edge">
<title>O_Sent (online only)&#45;&gt;O_Refused</title>
<path fill="none" stroke="black" d="M496.83,-160.36C515.38,-168.09 537.83,-176.52 558.75,-181.93 635.46,-201.76 727.21,-205.11 786.23,-204.77"/>
<polygon fill="black" stroke="black" points="786.1,-208.27 796.07,-204.67 786.03,-201.28 786.1,-208.27"/>
<text text-anchor="middle" x="665.75" y="-206.61" font-family="Times New Roman,serif" font-size="14.00">101</text>
</g>
<!-- O_Sent (online only)&#45;&gt;O_Cancelled -->
<g id="edge9" class="edge">
<title>O_Sent (online only)&#45;&gt;O_Cancelled</title>
<path fill="none" stroke="black" d="M526.8,-123.57C531.73,-121.04 536.44,-118.18 540.75,-114.93 552.27,-106.25 547.31,-96.71 558.75,-87.93 578.01,-73.15 587.02,-76.62 610.5,-70.43 666.8,-55.56 731.83,-43.4 779.42,-35.4"/>
<polygon fill="black" stroke="black" points="779.73,-38.9 789.02,-33.81 778.58,-31.99 779.73,-38.9"/>
<text text-anchor="middle" x="665.75" y="-73.63" font-family="Times New Roman,serif" font-size="14.00">875</text>
</g>
<!-- O_Sent (mail and online)&#45;&gt;O_Returned -->
<g id="edge2" class="edge">
<title>O_Sent (mail and online)&#45;&gt;O_Returned</title>
<path fill="none" stroke="black" d="M541.12,-90.91C558.19,-92.16 575.96,-93.93 592.5,-96.43 594.65,-96.75 596.84,-97.11 599.04,-97.5"/>
<polygon fill="black" stroke="black" points="598.15,-100.89 608.63,-99.34 599.47,-94.02 598.15,-100.89"/>
<text text-anchor="middle" x="575.62" y="-99.63" font-family="Times New Roman,serif" font-size="14.00">22272</text>
</g>
<!-- O_Sent (mail and online)&#45;&gt;O_Refused -->
<g id="edge1" class="edge">
<title>O_Sent (mail and online)&#45;&gt;O_Refused</title>
<path fill="none" stroke="black" d="M528.01,-106.27C532.54,-108.79 536.85,-111.66 540.75,-114.93 553.87,-125.89 544.77,-139.08 558.75,-148.93 618.31,-190.9 649.46,-158.61 721,-172.43 742.42,-176.56 765.69,-181.95 786.32,-187.04"/>
<polygon fill="black" stroke="black" points="785.47,-190.43 796.02,-189.46 787.17,-183.64 785.47,-190.43"/>
<text text-anchor="middle" x="665.75" y="-175.63" font-family="Times New Roman,serif" font-size="14.00">962</text>
</g>
<!-- O_Sent (mail and online)&#45;&gt;O_Cancelled -->
<g id="edge11" class="edge">
<title>O_Sent (mail and online)&#45;&gt;O_Cancelled</title>
<path fill="none" stroke="black" d="M488.9,-69.43C519.32,-53.39 566.42,-31.39 610.5,-22.43 666.42,-11.06 731.32,-12.77 778.95,-16.72"/>
<polygon fill="black" stroke="black" points="778.59,-20.2 788.86,-17.6 779.21,-13.23 778.59,-20.2"/>
<text text-anchor="middle" x="665.75" y="-25.63" font-family="Times New Roman,serif" font-size="14.00">16365</text>
</g>
</g>
</svg>
