<?xml version="1.0" encoding="UTF-8" standalone="no"?>
<!DOCTYPE svg PUBLIC "-//W3C//DTD SVG 1.1//EN"
 "http://www.w3.org/Graphics/SVG/1.1/DTD/svg11.dtd">
<!-- Generated by graphviz version 12.1.2 (20240928.0832)
 -->
<!-- Title: 92af41e5&#45;d370&#45;4e6d&#45;acff&#45;1d262dcd6f5a Pages: 1 -->
<svg width="1674pt" height="2236pt"
 viewBox="0.00 0.00 1674.00 2235.50" xmlns="http://www.w3.org/2000/svg" xmlns:xlink="http://www.w3.org/1999/xlink">
<g id="graph0" class="graph" transform="scale(1 1) rotate(0) translate(4 2231.5)">
<title>92af41e5&#45;d370&#45;4e6d&#45;acff&#45;1d262dcd6f5a</title>
<polygon fill="white" stroke="none" points="-4,4 -4,-2231.5 1670,-2231.5 1670,4 -4,4"/>
<!-- CRP -->
<g id="node1" class="node">
<title>CRP</title>
<defs>
<linearGradient id="node1_l_0" gradientUnits="userSpaceOnUse" x1="10.54" y1="-739.27" x2="61.46" y2="-764.73" >
<stop offset="0" style="stop-color:#4b9969;stop-opacity:1.;"/>
<stop offset="1" style="stop-color:#d4001f;stop-opacity:1.;"/>
</linearGradient>
</defs>
<polygon fill="url(#node1_l_0)" stroke="black" points="72,-770 0,-770 0,-734 72,-734 72,-770"/>
<text text-anchor="middle" x="36" y="-747.73" font-family="Times New Roman,serif" font-size="12.00">CRP: 3262</text>
</g>
<!-- CRP&#45;&gt;CRP -->
<g id="edge80" class="edge">
<title>CRP&#45;&gt;CRP</title>
<path fill="none" stroke="black" d="M24.4,-770.15C22.61,-779.54 26.48,-788 36,-788 41.35,-788 44.92,-785.32 46.7,-781.31"/>
<polygon fill="black" stroke="black" points="50.16,-781.91 47.48,-771.66 43.18,-781.35 50.16,-781.91"/>
<text text-anchor="middle" x="36" y="-791.2" font-family="Times New Roman,serif" font-size="14.00">336</text>
</g>
<!-- IV Liquid -->
<g id="node2" class="node">
<title>IV Liquid</title>
<defs>
<linearGradient id="node2_l_1" gradientUnits="userSpaceOnUse" x1="140.92" y1="-1386.27" x2="202.08" y2="-1411.73" >
<stop offset="0" style="stop-color:#4b9969;stop-opacity:1.;"/>
<stop offset="1" style="stop-color:#d4001f;stop-opacity:1.;"/>
</linearGradient>
</defs>
<polygon fill="url(#node2_l_1)" stroke="black" points="214.75,-1417 128.25,-1417 128.25,-1381 214.75,-1381 214.75,-1417"/>
<text text-anchor="middle" x="171.5" y="-1394.72" font-family="Times New Roman,serif" font-size="12.00">IV Liquid: 753</text>
</g>
<!-- CRP&#45;&gt;IV Liquid -->
<g id="edge28" class="edge">
<title>CRP&#45;&gt;IV Liquid</title>
<path fill="none" stroke="black" d="M41.21,-770.46C52.7,-820.96 85.38,-965.68 110.25,-1086.5 131.63,-1190.36 154.82,-1314.13 165.08,-1369.58"/>
<polygon fill="black" stroke="black" points="161.59,-1369.97 166.85,-1379.16 168.48,-1368.69 161.59,-1369.97"/>
<text text-anchor="middle" x="100.12" y="-1089.7" font-family="Times New Roman,serif" font-size="14.00">109</text>
</g>
<!-- ER Triage -->
<g id="node3" class="node">
<title>ER Triage</title>
<defs>
<linearGradient id="node3_l_2" gradientUnits="userSpaceOnUse" x1="920.38" y1="-1518.27" x2="987.37" y2="-1543.73" >
<stop offset="0" style="stop-color:#4b9969;stop-opacity:1.;"/>
<stop offset="1" style="stop-color:#d4001f;stop-opacity:1.;"/>
</linearGradient>
</defs>
<polygon fill="url(#node3_l_2)" stroke="black" points="1001.25,-1549 906.5,-1549 906.5,-1513 1001.25,-1513 1001.25,-1549"/>
<text text-anchor="middle" x="953.88" y="-1526.72" font-family="Times New Roman,serif" font-size="12.00">ER Triage: 1053</text>
</g>
<!-- CRP&#45;&gt;ER Triage -->
<g id="edge104" class="edge">
<title>CRP&#45;&gt;ER Triage</title>
<path fill="none" stroke="black" d="M36.84,-770.4C36.44,-851.72 38.2,-1186.71 90,-1455 100.69,-1510.38 93.5,-1531.57 128.25,-1576 289.54,-1782.23 462,-1683.45 715.75,-1619 781.43,-1602.32 854.1,-1573.77 901.46,-1553.72"/>
<polygon fill="black" stroke="black" points="902.54,-1557.07 910.36,-1549.92 899.79,-1550.63 902.54,-1557.07"/>
<text text-anchor="middle" x="477.25" y="-1696.43" font-family="Times New Roman,serif" font-size="14.00">19</text>
</g>
<!-- ER Sepsis Triage -->
<g id="node4" class="node">
<title>ER Sepsis Triage</title>
<defs>
<linearGradient id="node4_l_3" gradientUnits="userSpaceOnUse" x1="1385.71" y1="-1226.27" x2="1476.04" y2="-1251.73" >
<stop offset="0" style="stop-color:#4b9969;stop-opacity:1.;"/>
<stop offset="1" style="stop-color:#d4001f;stop-opacity:1.;"/>
</linearGradient>
</defs>
<polygon fill="url(#node4_l_3)" stroke="black" points="1494.75,-1257 1367,-1257 1367,-1221 1494.75,-1221 1494.75,-1257"/>
<text text-anchor="middle" x="1430.88" y="-1234.72" font-family="Times New Roman,serif" font-size="12.00">ER Sepsis Triage: 1049</text>
</g>
<!-- CRP&#45;&gt;ER Sepsis Triage -->
<g id="edge58" class="edge">
<title>CRP&#45;&gt;ER Sepsis Triage</title>
<path fill="none" stroke="black" d="M37.25,-770.29C39.5,-930.1 56.86,-2084.76 90,-2149 110.7,-2189.13 125.34,-2211 170.5,-2211 170.5,-2211 170.5,-2211 879.38,-2211 977.71,-2211 1243.56,-2213.82 1317.5,-2149 1385.47,-2089.42 1421.28,-1419.32 1428.5,-1268.87"/>
<polygon fill="black" stroke="black" points="1431.99,-1269.1 1428.97,-1258.95 1425,-1268.77 1431.99,-1269.1"/>
<text text-anchor="middle" x="705.62" y="-2214.2" font-family="Times New Roman,serif" font-size="14.00">38</text>
</g>
<!-- ER Registration -->
<g id="node5" class="node">
<title>ER Registration</title>
<polygon fill="#4b9969" stroke="black" points="1666,-1257 1544.25,-1257 1544.25,-1221 1666,-1221 1666,-1257"/>
<text text-anchor="middle" x="1605.12" y="-1234.72" font-family="Times New Roman,serif" font-size="12.00">ER Registration: 1050</text>
</g>
<!-- CRP&#45;&gt;ER Registration -->
<g id="edge33" class="edge">
<title>CRP&#45;&gt;ER Registration</title>
<path fill="none" stroke="black" d="M37.61,-733.65C40.99,-634.64 58.58,-166.59 90,-111 111.7,-72.61 126.4,-53 170.5,-53 170.5,-53 170.5,-53 1431.88,-53 1491.08,-53 1510.42,-89.95 1526.25,-147 1584.07,-355.41 1600.63,-1056.31 1603.6,-1209.33"/>
<polygon fill="black" stroke="black" points="1600.09,-1209.09 1603.78,-1219.02 1607.09,-1208.96 1600.09,-1209.09"/>
<text text-anchor="middle" x="792" y="-56.2" font-family="Times New Roman,serif" font-size="14.00">11</text>
</g>
<!-- Leucocytes -->
<g id="node6" class="node">
<title>Leucocytes</title>
<defs>
<linearGradient id="node6_l_4" gradientUnits="userSpaceOnUse" x1="592.14" y1="-768.27" x2="662.86" y2="-793.73" >
<stop offset="0" style="stop-color:#4b9969;stop-opacity:1.;"/>
<stop offset="1" style="stop-color:#d4001f;stop-opacity:1.;"/>
</linearGradient>
</defs>
<polygon fill="url(#node6_l_4)" stroke="black" points="677.5,-799 577.5,-799 577.5,-763 677.5,-763 677.5,-799"/>
<text text-anchor="middle" x="627.5" y="-776.73" font-family="Times New Roman,serif" font-size="12.00">Leucocytes: 3383</text>
</g>
<!-- CRP&#45;&gt;Leucocytes -->
<g id="edge70" class="edge">
<title>CRP&#45;&gt;Leucocytes</title>
<path fill="none" stroke="black" d="M39.66,-733.73C48.21,-682.64 79.99,-542 170.5,-542 170.5,-542 170.5,-542 478.25,-542 575.73,-542 611.33,-687.34 622.28,-751.34"/>
<polygon fill="black" stroke="black" points="618.81,-751.83 623.86,-761.15 625.73,-750.72 618.81,-751.83"/>
<text text-anchor="middle" x="324" y="-545.2" font-family="Times New Roman,serif" font-size="14.00">1517</text>
</g>
<!-- Admission IC -->
<g id="node7" class="node">
<title>Admission IC</title>
<polygon fill="white" stroke="black" points="1317.5,-926 1212.25,-926 1212.25,-890 1317.5,-890 1317.5,-926"/>
<text text-anchor="middle" x="1264.88" y="-903.73" font-family="Times New Roman,serif" font-size="12.00">Admission IC: 117</text>
</g>
<!-- CRP&#45;&gt;Admission IC -->
<g id="edge103" class="edge">
<title>CRP&#45;&gt;Admission IC</title>
<path fill="none" stroke="black" d="M37.77,-733.75C41.3,-654.83 57.09,-342.8 90,-251 109.14,-197.62 113.79,-152 170.5,-152 170.5,-152 170.5,-152 550.38,-152 753.03,-152 809.75,-153.68 1001.25,-220 1038.63,-232.95 1132.83,-275.93 1156,-308 1223.52,-401.45 1254.24,-770.36 1261.9,-878.23"/>
<polygon fill="black" stroke="black" points="1258.39,-878.26 1262.58,-888 1265.38,-877.78 1258.39,-878.26"/>
<text text-anchor="middle" x="627.5" y="-156.39" font-family="Times New Roman,serif" font-size="14.00">16</text>
</g>
<!-- LacticAcid -->
<g id="node8" class="node">
<title>LacticAcid</title>
<polygon fill="#d4001f" stroke="black" points="1156,-1494 1057.5,-1494 1057.5,-1458 1156,-1458 1156,-1494"/>
<text text-anchor="middle" x="1106.75" y="-1471.72" font-family="Times New Roman,serif" font-size="12.00">LacticAcid: 1466</text>
</g>
<!-- CRP&#45;&gt;LacticAcid -->
<g id="edge7" class="edge">
<title>CRP&#45;&gt;LacticAcid</title>
<path fill="none" stroke="black" d="M37.09,-770.2C37.93,-917.73 45.22,-1913.14 90,-1956 125.43,-1989.9 752.89,-1983.1 850.25,-1944 956,-1901.53 982.33,-1869.58 1039.5,-1771 1090.06,-1683.83 1102.04,-1561.5 1104.88,-1505.76"/>
<polygon fill="black" stroke="black" points="1108.37,-1505.96 1105.31,-1495.82 1101.38,-1505.66 1108.37,-1505.96"/>
<text text-anchor="middle" x="549.38" y="-1978.44" font-family="Times New Roman,serif" font-size="14.00">543</text>
</g>
<!-- Release E -->
<g id="node9" class="node">
<title>Release E</title>
<polygon fill="#d4001f" stroke="black" points="829.62,-364 754.38,-364 754.38,-328 829.62,-328 829.62,-364"/>
<text text-anchor="middle" x="792" y="-341.73" font-family="Times New Roman,serif" font-size="12.00">Release E: 6</text>
</g>
<!-- CRP&#45;&gt;Release E -->
<g id="edge20" class="edge">
<title>CRP&#45;&gt;Release E</title>
<path fill="none" stroke="black" d="M36.8,-733.8C37.02,-687.42 42.32,-562.12 90,-473 113.65,-428.8 120.37,-394 170.5,-394 170.5,-394 170.5,-394 628.5,-394 668.54,-394 711.94,-380.43 743.81,-367.72"/>
<polygon fill="black" stroke="black" points="744.84,-371.08 752.75,-364.04 742.17,-364.61 744.84,-371.08"/>
<text text-anchor="middle" x="405.12" y="-397.2" font-family="Times New Roman,serif" font-size="14.00">4</text>
</g>
<!-- Release C -->
<g id="node10" class="node">
<title>Release C</title>
<polygon fill="#d4001f" stroke="black" points="994.88,-713 912.88,-713 912.88,-677 994.88,-677 994.88,-713"/>
<text text-anchor="middle" x="953.88" y="-690.73" font-family="Times New Roman,serif" font-size="12.00">Release C: 25</text>
</g>
<!-- CRP&#45;&gt;Release C -->
<g id="edge19" class="edge">
<title>CRP&#45;&gt;Release C</title>
<path fill="none" stroke="black" d="M38.49,-733.61C45.73,-650.15 80.71,-311 170.5,-311 170.5,-311 170.5,-311 550.38,-311 683.7,-311 749.91,-231.2 850.25,-319 879.81,-344.86 884.27,-635.62 906.5,-668 906.57,-668.1 906.64,-668.2 906.71,-668.3"/>
<polygon fill="black" stroke="black" points="904.09,-670.63 913.45,-675.59 909.23,-665.87 904.09,-670.63"/>
<text text-anchor="middle" x="477.25" y="-314.2" font-family="Times New Roman,serif" font-size="14.00">12</text>
</g>
<!-- Release B -->
<g id="node11" class="node">
<title>Release B</title>
<polygon fill="#d4001f" stroke="black" points="1305.88,-1554 1223.88,-1554 1223.88,-1518 1305.88,-1518 1305.88,-1554"/>
<text text-anchor="middle" x="1264.88" y="-1531.72" font-family="Times New Roman,serif" font-size="12.00">Release B: 56</text>
</g>
<!-- CRP&#45;&gt;Release B -->
<g id="edge57" class="edge">
<title>CRP&#45;&gt;Release B</title>
<path fill="none" stroke="black" d="M36.98,-770.2C36.93,-913.63 38.55,-1859.47 90,-1974 110.42,-2019.44 120.68,-2052 170.5,-2052 170.5,-2052 170.5,-2052 550.38,-2052 683.69,-2052 724.31,-2088.72 850.25,-2045 1010.89,-1989.23 1049.53,-1947.59 1156,-1815 1218.27,-1737.45 1247.75,-1619.79 1258.64,-1565.43"/>
<polygon fill="black" stroke="black" points="1262.06,-1566.19 1260.52,-1555.71 1255.19,-1564.87 1262.06,-1566.19"/>
<text text-anchor="middle" x="627.5" y="-2065.33" font-family="Times New Roman,serif" font-size="14.00">16</text>
</g>
<!-- Release D -->
<g id="node12" class="node">
<title>Release D</title>
<polygon fill="#d4001f" stroke="black" points="995.25,-659 912.5,-659 912.5,-623 995.25,-623 995.25,-659"/>
<text text-anchor="middle" x="953.88" y="-636.73" font-family="Times New Roman,serif" font-size="12.00">Release D: 24</text>
</g>
<!-- CRP&#45;&gt;Release D -->
<g id="edge65" class="edge">
<title>CRP&#45;&gt;Release D</title>
<path fill="none" stroke="black" d="M37.92,-733.54C42.87,-643.86 70,-258 170.5,-258 170.5,-258 170.5,-258 406.12,-258 504.9,-258 770.22,-218.11 850.25,-276 956.62,-352.95 864.62,-441.57 906.5,-566 912.2,-582.93 922.33,-600.01 931.68,-613.58"/>
<polygon fill="black" stroke="black" points="928.73,-615.47 937.39,-621.56 934.42,-611.39 928.73,-615.47"/>
<text text-anchor="middle" x="477.25" y="-260.39" font-family="Times New Roman,serif" font-size="14.00">10</text>
</g>
<!-- Admission NC -->
<g id="node13" class="node">
<title>Admission NC</title>
<polygon fill="#d4001f" stroke="black" points="850.25,-1243 733.75,-1243 733.75,-1207 850.25,-1207 850.25,-1243"/>
<text text-anchor="middle" x="792" y="-1220.72" font-family="Times New Roman,serif" font-size="12.00">Admission NC: 1182</text>
</g>
<!-- CRP&#45;&gt;Admission NC -->
<g id="edge87" class="edge">
<title>CRP&#45;&gt;Admission NC</title>
<path fill="none" stroke="black" d="M37.23,-770.32C38.81,-873.81 50.51,-1385.24 128.25,-1518 159.97,-1572.17 174.21,-1590.37 232.75,-1613 257.83,-1622.7 202.07,-1669.97 377,-1612 456.19,-1585.76 618.31,-1445.79 677.5,-1387 697.35,-1367.28 702.65,-1361.72 715.75,-1337 727.6,-1314.65 720.52,-1304.56 733.75,-1283 740.85,-1271.43 750.66,-1260.39 760.16,-1251.11"/>
<polygon fill="black" stroke="black" points="762.34,-1253.86 767.25,-1244.47 757.56,-1248.75 762.34,-1253.86"/>
<text text-anchor="middle" x="405.12" y="-1607.91" font-family="Times New Roman,serif" font-size="14.00">173</text>
</g>
<!-- Release A -->
<g id="node15" class="node">
<title>Release A</title>
<polygon fill="#d4001f" stroke="black" points="521.25,-823 433.25,-823 433.25,-787 521.25,-787 521.25,-823"/>
<text text-anchor="middle" x="477.25" y="-800.73" font-family="Times New Roman,serif" font-size="12.00">Release A: 671</text>
</g>
<!-- CRP&#45;&gt;Release A -->
<g id="edge22" class="edge">
<title>CRP&#45;&gt;Release A</title>
<path fill="none" stroke="black" d="M72.32,-738.77C141.96,-714.97 300.18,-672.36 415.25,-728 436.17,-738.12 452.1,-759.28 462.43,-776.86"/>
<polygon fill="black" stroke="black" points="459.23,-778.3 467.12,-785.36 465.35,-774.92 459.23,-778.3"/>
<text text-anchor="middle" x="242.88" y="-705.92" font-family="Times New Roman,serif" font-size="14.00">320</text>
</g>
<!-- IV Antibiotics -->
<g id="node16" class="node">
<title>IV Antibiotics</title>
<polygon fill="#d4001f" stroke="black" points="377,-1147 271,-1147 271,-1111 377,-1111 377,-1147"/>
<text text-anchor="middle" x="324" y="-1124.72" font-family="Times New Roman,serif" font-size="12.00">IV Antibiotics: 823</text>
</g>
<!-- CRP&#45;&gt;IV Antibiotics -->
<g id="edge73" class="edge">
<title>CRP&#45;&gt;IV Antibiotics</title>
<path fill="none" stroke="black" d="M72.44,-763.78C112.13,-778.64 175.95,-807.78 214.75,-852.5 279.45,-927.07 307.93,-1044.81 318.17,-1099.4"/>
<polygon fill="black" stroke="black" points="314.71,-1099.94 319.92,-1109.17 321.6,-1098.71 314.71,-1099.94"/>
<text text-anchor="middle" x="171.5" y="-855.7" font-family="Times New Roman,serif" font-size="14.00">84</text>
</g>
<!-- IV Liquid&#45;&gt;CRP -->
<g id="edge78" class="edge">
<title>IV Liquid&#45;&gt;CRP</title>
<path fill="none" stroke="black" d="M164.76,-1380.82C150.4,-1334.76 112.46,-1209.57 90,-1103 65.15,-985.09 47.34,-842.53 40.32,-781.76"/>
<polygon fill="black" stroke="black" points="43.8,-781.45 39.19,-771.91 36.85,-782.24 43.8,-781.45"/>
<text text-anchor="middle" x="100.12" y="-1188.21" font-family="Times New Roman,serif" font-size="14.00">51</text>
</g>
<!-- IV Liquid&#45;&gt;ER Triage -->
<g id="edge111" class="edge">
<title>IV Liquid&#45;&gt;ER Triage</title>
<path fill="none" stroke="black" d="M215.05,-1416.38C232.18,-1422.79 252.28,-1429.55 271,-1434 473.77,-1482.2 527.06,-1483.15 733.75,-1510 788.2,-1517.07 850.54,-1522.82 894.77,-1526.5"/>
<polygon fill="black" stroke="black" points="894.42,-1529.99 904.67,-1527.32 894.99,-1523.01 894.42,-1529.99"/>
<text text-anchor="middle" x="549.38" y="-1491.27" font-family="Times New Roman,serif" font-size="14.00">23</text>
</g>
<!-- IV Liquid&#45;&gt;ER Sepsis Triage -->
<g id="edge110" class="edge">
<title>IV Liquid&#45;&gt;ER Sepsis Triage</title>
<path fill="none" stroke="black" d="M173.35,-1417.13C176.76,-1472.02 193.31,-1639.29 271,-1747 322.86,-1818.89 356.84,-1818.07 433.25,-1863 478.32,-1889.5 488.28,-1902.38 539.25,-1914 740.08,-1959.8 797.42,-1906.74 1001.25,-1877 1259.02,-1839.39 1281.71,-1665.14 1367,-1419 1385.48,-1365.66 1407.24,-1303.5 1419.71,-1267.95"/>
<polygon fill="black" stroke="black" points="1422.91,-1269.41 1422.92,-1258.82 1416.3,-1267.09 1422.91,-1269.41"/>
<text text-anchor="middle" x="792" y="-1932.01" font-family="Times New Roman,serif" font-size="14.00">6</text>
</g>
<!-- IV Liquid&#45;&gt;ER Registration -->
<g id="edge77" class="edge">
<title>IV Liquid&#45;&gt;ER Registration</title>
<path fill="none" stroke="black" d="M173.37,-1417.14C176.62,-1477.42 190.09,-1676.12 232.75,-1834 244.41,-1877.15 244.8,-1890.79 271,-1927 373.66,-2068.89 451.36,-2097 626.5,-2097 626.5,-2097 626.5,-2097 1431.88,-2097 1497.31,-2097 1510.3,-2047.46 1526.25,-1984 1594.49,-1712.49 1603.03,-1370.81 1604.02,-1268.95"/>
<polygon fill="black" stroke="black" points="1607.52,-1269.02 1604.1,-1259 1600.52,-1268.97 1607.52,-1269.02"/>
<text text-anchor="middle" x="878.38" y="-2100.2" font-family="Times New Roman,serif" font-size="14.00">14</text>
</g>
<!-- IV Liquid&#45;&gt;Leucocytes -->
<g id="edge89" class="edge">
<title>IV Liquid&#45;&gt;Leucocytes</title>
<path fill="none" stroke="black" d="M174.47,-1380.54C184.35,-1288.1 228.2,-879.38 232.75,-867 243.27,-838.36 245.6,-826.9 271,-810 359.87,-750.85 490.27,-758.22 565.96,-769.33"/>
<polygon fill="black" stroke="black" points="565.26,-772.77 575.67,-770.84 566.33,-765.85 565.26,-772.77"/>
<text text-anchor="middle" x="405.12" y="-769.61" font-family="Times New Roman,serif" font-size="14.00">52</text>
</g>
<!-- IV Liquid&#45;&gt;Admission IC -->
<g id="edge31" class="edge">
<title>IV Liquid&#45;&gt;Admission IC</title>
<path fill="none" stroke="black" d="M174.8,-1380.57C181.73,-1324.34 202.73,-1150 214.75,-1005 223.71,-896.87 203.22,-604.73 271,-520 303.42,-479.47 331.5,-495.97 377,-471 542.18,-380.37 552.96,-295.03 733.75,-242 848.46,-208.35 901.6,-203.98 1001.25,-270 1127.56,-353.68 1135.64,-411.29 1194.25,-551 1242.46,-665.91 1257.72,-815.81 1262.18,-878.46"/>
<polygon fill="black" stroke="black" points="1258.67,-878.54 1262.83,-888.28 1265.66,-878.07 1258.67,-878.54"/>
<text text-anchor="middle" x="705.62" y="-257.22" font-family="Times New Roman,serif" font-size="14.00">3</text>
</g>
<!-- IV Liquid&#45;&gt;LacticAcid -->
<g id="edge21" class="edge">
<title>IV Liquid&#45;&gt;LacticAcid</title>
<path fill="none" stroke="black" d="M208.02,-1417.34C210.34,-1418.84 212.61,-1420.4 214.75,-1422 223.81,-1428.77 223.63,-1433.3 232.75,-1440 248.21,-1451.36 253.95,-1451.22 271,-1460 463.12,-1558.96 488.52,-1680 704.62,-1680 704.62,-1680 704.62,-1680 954.88,-1680 1040.62,-1680 1083.2,-1562.06 1098.68,-1505.53"/>
<polygon fill="black" stroke="black" points="1102.05,-1506.49 1101.2,-1495.93 1095.28,-1504.71 1102.05,-1506.49"/>
<text text-anchor="middle" x="627.5" y="-1682.42" font-family="Times New Roman,serif" font-size="14.00">35</text>
</g>
<!-- IV Liquid&#45;&gt;Release B -->
<g id="edge69" class="edge">
<title>IV Liquid&#45;&gt;Release B</title>
<path fill="none" stroke="black" d="M176.38,-1417.06C192.61,-1487.51 262.35,-1744.69 433.25,-1840 492.09,-1872.81 977.12,-1877.45 1039.5,-1852 1165.53,-1800.59 1232.49,-1633.11 1255.03,-1565.1"/>
<polygon fill="black" stroke="black" points="1258.3,-1566.37 1258.04,-1555.78 1251.64,-1564.22 1258.3,-1566.37"/>
</g>
<!-- IV Liquid&#45;&gt;Admission NC -->
<g id="edge67" class="edge">
<title>IV Liquid&#45;&gt;Admission NC</title>
<path fill="none" stroke="black" d="M215.03,-1382.39C288.13,-1354.37 442.75,-1297.41 577.5,-1263 625.28,-1250.8 680.06,-1241.13 722.17,-1234.6"/>
<polygon fill="black" stroke="black" points="722.57,-1238.08 731.92,-1233.12 721.51,-1231.16 722.57,-1238.08"/>
<text text-anchor="middle" x="477.25" y="-1307.8" font-family="Times New Roman,serif" font-size="14.00">51</text>
</g>
<!-- IV Liquid&#45;&gt;Release A -->
<g id="edge62" class="edge">
<title>IV Liquid&#45;&gt;Release A</title>
<path fill="none" stroke="black" d="M174.42,-1380.72C183.86,-1290.99 225.26,-901.1 232.75,-891 276.6,-831.88 364.37,-813.22 421.68,-807.44"/>
<polygon fill="black" stroke="black" points="421.91,-810.93 431.56,-806.55 421.28,-803.96 421.91,-810.93"/>
<text text-anchor="middle" x="324" y="-857.93" font-family="Times New Roman,serif" font-size="14.00">2</text>
</g>
<!-- IV Liquid&#45;&gt;IV Antibiotics -->
<g id="edge42" class="edge">
<title>IV Liquid&#45;&gt;IV Antibiotics</title>
<path fill="none" stroke="black" d="M182.61,-1380.87C208.3,-1334.77 276.27,-1212.83 307.23,-1157.29"/>
<polygon fill="black" stroke="black" points="310.19,-1159.17 312,-1148.73 304.07,-1155.76 310.19,-1159.17"/>
<text text-anchor="middle" x="242.88" y="-1291.38" font-family="Times New Roman,serif" font-size="14.00">503</text>
</g>
<!-- ER Triage&#45;&gt;CRP -->
<g id="edge1" class="edge">
<title>ER Triage&#45;&gt;CRP</title>
<path fill="none" stroke="black" d="M942.69,-1549.4C931.5,-1568.23 911.94,-1597.3 888.5,-1616 822.65,-1668.53 792.58,-1659.45 715.75,-1694 458.76,-1809.58 294.24,-1990.13 90,-1796 52.24,-1760.11 39.58,-948.57 37.37,-781.8"/>
<polygon fill="black" stroke="black" points="40.87,-781.77 37.24,-771.82 33.87,-781.86 40.87,-781.77"/>
<text text-anchor="middle" x="477.25" y="-1843.52" font-family="Times New Roman,serif" font-size="14.00">42</text>
</g>
<!-- ER Triage&#45;&gt;IV Liquid -->
<g id="edge43" class="edge">
<title>ER Triage&#45;&gt;IV Liquid</title>
<path fill="none" stroke="black" d="M906.22,-1518.92C900.27,-1517.52 894.25,-1516.18 888.5,-1515 642.86,-1464.67 346.17,-1422.45 226.45,-1406.18"/>
<polygon fill="black" stroke="black" points="226.97,-1402.72 216.59,-1404.85 226.03,-1409.66 226.97,-1402.72"/>
<text text-anchor="middle" x="549.38" y="-1458.63" font-family="Times New Roman,serif" font-size="14.00">11</text>
</g>
<!-- ER Triage&#45;&gt;ER Sepsis Triage -->
<g id="edge5" class="edge">
<title>ER Triage&#45;&gt;ER Sepsis Triage</title>
<path fill="none" stroke="black" d="M980.66,-1512.64C987.43,-1507.67 994.68,-1502.22 1001.25,-1497 1097.09,-1420.86 1104.19,-1377.49 1212.25,-1320 1269.12,-1289.74 1288.77,-1294.84 1349,-1272 1357.57,-1268.75 1366.6,-1265.2 1375.39,-1261.66"/>
<polygon fill="black" stroke="black" points="1376.6,-1264.95 1384.56,-1257.95 1373.97,-1258.46 1376.6,-1264.95"/>
<text text-anchor="middle" x="1184.12" y="-1345.14" font-family="Times New Roman,serif" font-size="14.00">905</text>
</g>
<!-- ER Triage&#45;&gt;ER Registration -->
<g id="edge64" class="edge">
<title>ER Triage&#45;&gt;ER Registration</title>
<path fill="none" stroke="black" d="M954.44,-1549.36C953.28,-1641.28 960.76,-2047 1183.12,-2047 1183.12,-2047 1183.12,-2047 1431.88,-2047 1594.24,-2047 1604.14,-1415.04 1604.26,-1268.91"/>
<polygon fill="black" stroke="black" points="1607.76,-1268.9 1604.25,-1258.91 1600.76,-1268.91 1607.76,-1268.9"/>
<text text-anchor="middle" x="1264.88" y="-2050.2" font-family="Times New Roman,serif" font-size="14.00">5</text>
</g>
<!-- ER Triage&#45;&gt;Leucocytes -->
<g id="edge84" class="edge">
<title>ER Triage&#45;&gt;Leucocytes</title>
<path fill="none" stroke="black" d="M921.04,-1512.51C915.51,-1508.05 910.31,-1502.86 906.5,-1497 886.14,-1465.73 903.75,-1449.05 888.5,-1415 882.22,-1400.98 874.72,-1400.93 868.25,-1387 854.27,-1356.89 873.86,-1337.84 850.25,-1314.5 812.41,-1277.1 771.05,-1324.93 733.75,-1287 730.26,-1283.45 696.31,-1116.91 695.5,-1112 683.89,-1041.84 691.29,-1022.77 677.5,-953 667.39,-901.82 649.44,-843.74 638.3,-809.85"/>
<polygon fill="black" stroke="black" points="641.76,-809.16 635.28,-800.77 635.12,-811.37 641.76,-809.16"/>
<text text-anchor="middle" x="792" y="-1317.7" font-family="Times New Roman,serif" font-size="14.00">51</text>
</g>
<!-- ER Triage&#45;&gt;LacticAcid -->
<g id="edge105" class="edge">
<title>ER Triage&#45;&gt;LacticAcid</title>
<path fill="none" stroke="black" d="M1001.59,-1513.07C1007.52,-1510.83 1013.52,-1508.6 1019.25,-1506.5 1028.06,-1503.27 1037.4,-1499.91 1046.56,-1496.65"/>
<polygon fill="black" stroke="black" points="1047.5,-1500.03 1055.75,-1493.39 1045.16,-1493.44 1047.5,-1500.03"/>
<text text-anchor="middle" x="1029.38" y="-1509.7" font-family="Times New Roman,serif" font-size="14.00">36</text>
</g>
<!-- ER Triage&#45;&gt;IV Antibiotics -->
<g id="edge98" class="edge">
<title>ER Triage&#45;&gt;IV Antibiotics</title>
<path fill="none" stroke="black" d="M926.23,-1512.59C914.87,-1505.12 901.3,-1496.69 888.5,-1490 872.17,-1481.46 867.54,-1480.36 850.25,-1474 730.83,-1430.07 674.39,-1469.48 577.5,-1387 535.39,-1351.15 560.82,-1314.64 521.25,-1276 490.24,-1245.72 468.83,-1258.75 433.25,-1234 400.61,-1211.3 368.61,-1178.59 347.97,-1155.73"/>
<polygon fill="black" stroke="black" points="350.64,-1153.47 341.38,-1148.32 345.41,-1158.12 350.64,-1153.47"/>
</g>
<!-- ER Sepsis Triage&#45;&gt;CRP -->
<g id="edge83" class="edge">
<title>ER Sepsis Triage&#45;&gt;CRP</title>
<path fill="none" stroke="black" d="M1429.87,-1257.43C1429.51,-1367.46 1422.52,-1937.19 1317.5,-2068 1276.22,-2119.42 1251.06,-2135 1185.12,-2135 170.5,-2135 170.5,-2135 170.5,-2135 104.05,-2135 109.98,-2072.38 90,-2009 52.03,-1888.53 39.41,-959.48 37.32,-781.44"/>
<polygon fill="black" stroke="black" points="40.83,-781.63 37.21,-771.68 33.83,-781.72 40.83,-781.63"/>
<text text-anchor="middle" x="705.62" y="-2138.2" font-family="Times New Roman,serif" font-size="14.00">206</text>
</g>
<!-- ER Sepsis Triage&#45;&gt;IV Liquid -->
<g id="edge94" class="edge">
<title>ER Sepsis Triage&#45;&gt;IV Liquid</title>
<path fill="none" stroke="black" d="M1421.36,-1257.41C1407.02,-1289.43 1378.5,-1357.84 1367,-1419 1361.81,-1446.59 1366.38,-1901.96 1349,-1924 1309.94,-1973.53 1271.94,-1941.58 1212.25,-1962 1186.69,-1970.74 1182.47,-1979.64 1156,-1985 887.33,-2039.44 807.43,-2048.81 539.25,-1992 411.66,-1964.97 360.48,-1967.9 271,-1873 209.54,-1807.82 182.14,-1522.5 174.69,-1428.88"/>
<polygon fill="black" stroke="black" points="178.18,-1428.67 173.92,-1418.97 171.2,-1429.21 178.18,-1428.67"/>
<text text-anchor="middle" x="792" y="-2033.65" font-family="Times New Roman,serif" font-size="14.00">285</text>
</g>
<!-- ER Sepsis Triage&#45;&gt;ER Triage -->
<g id="edge45" class="edge">
<title>ER Sepsis Triage&#45;&gt;ER Triage</title>
<path fill="none" stroke="black" d="M1366.85,-1245.11C1263.04,-1256.6 1063.19,-1285.13 1019.25,-1338 973.79,-1392.69 1036.92,-1435.48 1001.25,-1497 999.61,-1499.83 997.62,-1502.5 995.41,-1504.99"/>
<polygon fill="black" stroke="black" points="993.12,-1502.34 988.29,-1511.77 997.95,-1507.41 993.12,-1502.34"/>
<text text-anchor="middle" x="1184.12" y="-1277.92" font-family="Times New Roman,serif" font-size="14.00">6</text>
</g>
<!-- ER Sepsis Triage&#45;&gt;ER Registration -->
<g id="edge39" class="edge">
<title>ER Sepsis Triage&#45;&gt;ER Registration</title>
<path fill="none" stroke="black" d="M1495.04,-1239C1507.24,-1239 1520.11,-1239 1532.55,-1239"/>
<polygon fill="black" stroke="black" points="1532.33,-1242.5 1542.33,-1239 1532.33,-1235.5 1532.33,-1242.5"/>
<text text-anchor="middle" x="1519.5" y="-1242.2" font-family="Times New Roman,serif" font-size="14.00">5</text>
</g>
<!-- ER Sepsis Triage&#45;&gt;Leucocytes -->
<g id="edge4" class="edge">
<title>ER Sepsis Triage&#45;&gt;Leucocytes</title>
<path fill="none" stroke="black" d="M1429.14,-1220.92C1425.78,-1148.27 1409.39,-878.87 1349,-825 1300.31,-781.57 854.04,-779.68 689.26,-780.49"/>
<polygon fill="black" stroke="black" points="689.39,-776.99 679.41,-780.54 689.43,-783.99 689.39,-776.99"/>
<text text-anchor="middle" x="1029.38" y="-788.29" font-family="Times New Roman,serif" font-size="14.00">241</text>
</g>
<!-- ER Sepsis Triage&#45;&gt;Admission IC -->
<g id="edge23" class="edge">
<title>ER Sepsis Triage&#45;&gt;Admission IC</title>
<path fill="none" stroke="black" d="M1426.53,-1220.61C1418.99,-1177.68 1397.39,-1070.17 1349,-994 1334.11,-970.56 1310.37,-949.56 1292.06,-933.93"/>
<polygon fill="black" stroke="black" points="1294.35,-931.28 1284.47,-927.46 1289.81,-936.61 1294.35,-931.28"/>
</g>
<!-- ER Sepsis Triage&#45;&gt;LacticAcid -->
<g id="edge93" class="edge">
<title>ER Sepsis Triage&#45;&gt;LacticAcid</title>
<path fill="none" stroke="black" d="M1421.93,-1257.19C1409.82,-1282.85 1384.37,-1329.5 1349,-1356 1283.43,-1405.13 1244.44,-1372.14 1174,-1414 1158.05,-1423.48 1142.74,-1437.37 1130.87,-1449.59"/>
<polygon fill="black" stroke="black" points="1128.57,-1446.93 1124.28,-1456.62 1133.67,-1451.73 1128.57,-1446.93"/>
<text text-anchor="middle" x="1264.88" y="-1399.81" font-family="Times New Roman,serif" font-size="14.00">162</text>
</g>
<!-- ER Sepsis Triage&#45;&gt;Admission NC -->
<g id="edge16" class="edge">
<title>ER Sepsis Triage&#45;&gt;Admission NC</title>
<path fill="none" stroke="black" d="M1391.57,-1220.65C1378.36,-1215.06 1363.29,-1209.48 1349,-1206 1177.65,-1164.26 967.87,-1191.73 861.66,-1210.92"/>
<polygon fill="black" stroke="black" points="861.16,-1207.45 851.96,-1212.7 862.42,-1214.33 861.16,-1207.45"/>
<text text-anchor="middle" x="1106.75" y="-1190.06" font-family="Times New Roman,serif" font-size="14.00">19</text>
</g>
<!-- ER Sepsis Triage&#45;&gt;IV Antibiotics -->
<g id="edge37" class="edge">
<title>ER Sepsis Triage&#45;&gt;IV Antibiotics</title>
<path fill="none" stroke="black" d="M1424.84,-1220.57C1412.23,-1175.73 1378.23,-1062.85 1349,-1038 1228.31,-935.42 1158.68,-977.44 1001.25,-960 959.39,-955.36 940.88,-935.68 906.5,-960 886.88,-973.88 904.62,-993.17 888.5,-1011 875.9,-1024.94 868.56,-1024.78 850.25,-1029 841.87,-1030.93 703.05,-1026.89 695.5,-1031 682.83,-1037.89 689.73,-1050.36 677.5,-1058 570.05,-1125.11 516.5,-1060.12 395,-1096 386.39,-1098.54 377.51,-1102 369.09,-1105.73"/>
<polygon fill="black" stroke="black" points="367.68,-1102.53 360.08,-1109.91 370.63,-1108.88 367.68,-1102.53"/>
<text text-anchor="middle" x="878.38" y="-1027.94" font-family="Times New Roman,serif" font-size="14.00">75</text>
</g>
<!-- ER Registration&#45;&gt;CRP -->
<g id="edge81" class="edge">
<title>ER Registration&#45;&gt;CRP</title>
<path fill="none" stroke="black" d="M1603.79,-1220.69C1601.32,-1092.64 1584.29,-329.52 1526.25,-106 1510.4,-44.95 1494.95,0 1431.88,0 170.5,0 170.5,0 170.5,0 121.3,0 111.23,-31.61 90,-76 34.18,-192.68 35.14,-607.13 36.53,-722.18"/>
<polygon fill="black" stroke="black" points="33.03,-722.07 36.66,-732.03 40.03,-721.98 33.03,-722.07"/>
<text text-anchor="middle" x="792" y="-3.2" font-family="Times New Roman,serif" font-size="14.00">13</text>
</g>
<!-- ER Registration&#45;&gt;IV Liquid -->
<g id="edge40" class="edge">
<title>ER Registration&#45;&gt;IV Liquid</title>
<path fill="none" stroke="black" d="M1604.1,-1257.38C1603.74,-1368.47 1598.35,-1950.73 1526.25,-2111 1501.18,-2166.73 1492.99,-2211 1431.88,-2211 1183.12,-2211 1183.12,-2211 1183.12,-2211 1047.07,-2211 1015.43,-2173 879.38,-2173 323,-2173 323,-2173 323,-2173 286,-2173 286.88,-2141.41 271,-2108 212.12,-1984.15 181.56,-1546.93 174.24,-1428.68"/>
<polygon fill="black" stroke="black" points="177.75,-1428.63 173.65,-1418.86 170.76,-1429.05 177.75,-1428.63"/>
<text text-anchor="middle" x="878.38" y="-2176.2" font-family="Times New Roman,serif" font-size="14.00">22</text>
</g>
<!-- ER Registration&#45;&gt;ER Triage -->
<g id="edge47" class="edge">
<title>ER Registration&#45;&gt;ER Triage</title>
<path fill="none" stroke="black" d="M1595.92,-1257.47C1567.86,-1317.81 1469.04,-1508.34 1317.5,-1563 1214.87,-1600.02 1085.75,-1572.56 1012.54,-1550.75"/>
<polygon fill="black" stroke="black" points="1013.75,-1547.46 1003.17,-1547.88 1011.71,-1554.15 1013.75,-1547.46"/>
<text text-anchor="middle" x="1264.88" y="-1584.25" font-family="Times New Roman,serif" font-size="14.00">971</text>
</g>
<!-- ER Registration&#45;&gt;ER Sepsis Triage -->
<g id="edge79" class="edge">
<title>ER Registration&#45;&gt;ER Sepsis Triage</title>
<path fill="none" stroke="black" d="M1544.06,-1221.55C1538.08,-1220.31 1532.07,-1219.25 1526.25,-1218.5 1517.15,-1217.32 1507.62,-1217.59 1498.27,-1218.73"/>
<polygon fill="black" stroke="black" points="1497.82,-1215.26 1488.49,-1220.28 1498.91,-1222.17 1497.82,-1215.26"/>
<text text-anchor="middle" x="1519.5" y="-1221.7" font-family="Times New Roman,serif" font-size="14.00">11</text>
</g>
<!-- ER Registration&#45;&gt;Leucocytes -->
<g id="edge34" class="edge">
<title>ER Registration&#45;&gt;Leucocytes</title>
<path fill="none" stroke="black" d="M1603.66,-1220.64C1600.16,-1087.41 1576.78,-271.37 1526.25,-175 1501.24,-127.31 1485.73,-99 1431.88,-99 1028.38,-99 1028.38,-99 1028.38,-99 934.43,-99 912.92,-154.35 868.25,-237 839.26,-290.64 888.32,-325.38 850.25,-373 815.79,-416.11 772.15,-376.36 733.75,-416 716.15,-434.17 727.3,-447.49 715.75,-470 708.74,-483.67 701.89,-484.04 695.5,-498 655.63,-585.1 638.06,-698.53 631.63,-751.43"/>
<polygon fill="black" stroke="black" points="628.18,-750.81 630.5,-761.14 635.13,-751.61 628.18,-750.81"/>
<text text-anchor="middle" x="1106.75" y="-102.2" font-family="Times New Roman,serif" font-size="14.00">16</text>
</g>
<!-- ER Registration&#45;&gt;Admission IC -->
<g id="edge82" class="edge">
<title>ER Registration&#45;&gt;Admission IC</title>
<path fill="none" stroke="black" d="M1589.59,-1220.6C1552.51,-1174.33 1450.18,-1050.59 1349,-964 1335.79,-952.69 1320.22,-941.68 1306.16,-932.45"/>
<polygon fill="black" stroke="black" points="1308.28,-929.66 1297.98,-927.19 1304.49,-935.55 1308.28,-929.66"/>
</g>
<!-- ER Registration&#45;&gt;LacticAcid -->
<g id="edge9" class="edge">
<title>ER Registration&#45;&gt;LacticAcid</title>
<path fill="none" stroke="black" d="M1579.76,-1257.48C1531.9,-1292.99 1421.23,-1371.3 1317.5,-1417 1268.72,-1438.49 1210.09,-1454.2 1167.24,-1463.98"/>
<polygon fill="black" stroke="black" points="1166.62,-1460.53 1157.62,-1466.13 1168.14,-1467.36 1166.62,-1460.53"/>
<text text-anchor="middle" x="1342.25" y="-1411.48" font-family="Times New Roman,serif" font-size="14.00">16</text>
</g>
<!-- Leucocytes&#45;&gt;CRP -->
<g id="edge25" class="edge">
<title>Leucocytes&#45;&gt;CRP</title>
<path fill="none" stroke="black" d="M626.73,-762.79C626.55,-693.61 616.11,-451 478.25,-451 170.5,-451 170.5,-451 170.5,-451 52.48,-451 37.99,-646.77 36.8,-722.54"/>
<polygon fill="black" stroke="black" points="33.31,-722.08 36.73,-732.11 40.31,-722.14 33.31,-722.08"/>
<text text-anchor="middle" x="324" y="-454.2" font-family="Times New Roman,serif" font-size="14.00">1692</text>
</g>
<!-- Leucocytes&#45;&gt;IV Liquid -->
<g id="edge30" class="edge">
<title>Leucocytes&#45;&gt;IV Liquid</title>
<path fill="none" stroke="black" d="M608.59,-799.37C588.47,-819.4 554.3,-851.72 521.25,-875 468.53,-912.13 444.05,-904.64 395,-946.5 327.76,-1003.88 314.74,-1025.18 271,-1102 219.41,-1192.6 189.81,-1314.28 178.23,-1369.52"/>
<polygon fill="black" stroke="black" points="174.85,-1368.58 176.27,-1379.08 181.71,-1369.99 174.85,-1368.58"/>
<text text-anchor="middle" x="405.12" y="-949.7" font-family="Times New Roman,serif" font-size="14.00">111</text>
</g>
<!-- Leucocytes&#45;&gt;ER Triage -->
<g id="edge14" class="edge">
<title>Leucocytes&#45;&gt;ER Triage</title>
<path fill="none" stroke="black" d="M635.03,-799.29C645.83,-830.42 667.26,-895.85 677.5,-953 692.63,-1037.46 677.1,-1270.56 733.75,-1335 770.56,-1376.87 807.92,-1345.22 850.25,-1381.5 862.2,-1391.74 859.63,-1398.83 868.25,-1412 876.66,-1424.85 881.6,-1426.28 888.5,-1440 900.44,-1463.73 891.02,-1475.41 906.5,-1497 908.59,-1499.92 911.02,-1502.69 913.63,-1505.3"/>
<polygon fill="black" stroke="black" points="910.98,-1507.63 920.8,-1511.61 915.61,-1502.37 910.98,-1507.63"/>
<text text-anchor="middle" x="792" y="-1384.7" font-family="Times New Roman,serif" font-size="14.00">8</text>
</g>
<!-- Leucocytes&#45;&gt;ER Sepsis Triage -->
<g id="edge8" class="edge">
<title>Leucocytes&#45;&gt;ER Sepsis Triage</title>
<path fill="none" stroke="black" d="M677.84,-790.88C683.78,-791.98 689.77,-793.04 695.5,-794 833.17,-816.97 1208.41,-793.95 1317.5,-881 1420.53,-963.22 1430.89,-1139.13 1430.71,-1209.25"/>
<polygon fill="black" stroke="black" points="1427.21,-1209.15 1430.6,-1219.18 1434.21,-1209.22 1427.21,-1209.15"/>
<text text-anchor="middle" x="1029.38" y="-818.12" font-family="Times New Roman,serif" font-size="14.00">41</text>
</g>
<!-- Leucocytes&#45;&gt;ER Registration -->
<g id="edge52" class="edge">
<title>Leucocytes&#45;&gt;ER Registration</title>
<path fill="none" stroke="black" d="M633.94,-762.76C654.67,-693.44 727.77,-449.91 733.75,-444 772.29,-405.9 802.8,-434.18 850.25,-408 981.2,-335.75 956.19,-189 1105.75,-189 1105.75,-189 1105.75,-189 1431.88,-189 1475.15,-189 1498.41,-179.86 1526.25,-213 1591.98,-291.23 1602.42,-1049.11 1603.9,-1209.34"/>
<polygon fill="black" stroke="black" points="1600.4,-1209.14 1603.99,-1219.11 1607.4,-1209.08 1600.4,-1209.14"/>
<text text-anchor="middle" x="1106.75" y="-198.46" font-family="Times New Roman,serif" font-size="14.00">16</text>
</g>
<!-- Leucocytes&#45;&gt;Leucocytes -->
<g id="edge114" class="edge">
<title>Leucocytes&#45;&gt;Leucocytes</title>
<path fill="none" stroke="black" d="M613.37,-799.15C611.19,-808.54 615.9,-817 627.5,-817 634.02,-817 638.37,-814.32 640.53,-810.31"/>
<polygon fill="black" stroke="black" points="643.99,-810.95 641.48,-800.66 637.02,-810.27 643.99,-810.95"/>
<text text-anchor="middle" x="627.5" y="-820.2" font-family="Times New Roman,serif" font-size="14.00">433</text>
</g>
<!-- Leucocytes&#45;&gt;Admission IC -->
<g id="edge49" class="edge">
<title>Leucocytes&#45;&gt;Admission IC</title>
<path fill="none" stroke="black" d="M632.76,-762.5C642.76,-723.83 671.72,-634.88 733.75,-597 814.02,-547.98 1087.07,-504.01 1156,-568 1193.9,-603.18 1154.54,-752.09 1174,-800 1187.07,-832.18 1213.4,-861.97 1234.2,-882.08"/>
<polygon fill="black" stroke="black" points="1231.65,-884.48 1241.33,-888.78 1236.44,-879.38 1231.65,-884.48"/>
<text text-anchor="middle" x="953.88" y="-548.45" font-family="Times New Roman,serif" font-size="14.00">22</text>
</g>
<!-- Leucocytes&#45;&gt;LacticAcid -->
<g id="edge108" class="edge">
<title>Leucocytes&#45;&gt;LacticAcid</title>
<path fill="none" stroke="black" d="M632.22,-799.34C639.64,-832.52 658.85,-903.56 695.5,-952 708.37,-969.01 713.75,-973.58 733.75,-981 749.9,-986.99 875.88,-978.77 888.5,-990.5 910.42,-1010.88 896.95,-1095.63 906.5,-1124 929.5,-1192.35 1043.86,-1377.62 1088.17,-1448.19"/>
<polygon fill="black" stroke="black" points="1085.08,-1449.86 1093.37,-1456.46 1091.01,-1446.13 1085.08,-1449.86"/>
<text text-anchor="middle" x="878.38" y="-993.7" font-family="Times New Roman,serif" font-size="14.00">500</text>
</g>
<!-- Leucocytes&#45;&gt;Release E -->
<g id="edge32" class="edge">
<title>Leucocytes&#45;&gt;Release E</title>
<path fill="none" stroke="black" d="M630.49,-762.8C636.37,-712.45 655.77,-567.49 695.5,-453.5 698.59,-444.62 727.24,-384.78 733.75,-378 736.99,-374.63 740.66,-371.51 744.54,-368.66"/>
<polygon fill="black" stroke="black" points="746.21,-371.75 752.62,-363.32 742.35,-365.92 746.21,-371.75"/>
<text text-anchor="middle" x="705.62" y="-456.7" font-family="Times New Roman,serif" font-size="14.00">2</text>
</g>
<!-- Leucocytes&#45;&gt;Release C -->
<g id="edge13" class="edge">
<title>Leucocytes&#45;&gt;Release C</title>
<path fill="none" stroke="black" d="M647.01,-762.54C666.59,-744.6 699.35,-718.88 733.75,-710.5 789.87,-696.83 856.29,-693.91 901.18,-693.8"/>
<polygon fill="black" stroke="black" points="901.15,-697.3 911.16,-693.83 901.17,-690.3 901.15,-697.3"/>
<text text-anchor="middle" x="792" y="-713.7" font-family="Times New Roman,serif" font-size="14.00">9</text>
</g>
<!-- Leucocytes&#45;&gt;Release B -->
<g id="edge74" class="edge">
<title>Leucocytes&#45;&gt;Release B</title>
<path fill="none" stroke="black" d="M651.13,-799.27C663.83,-809.16 680.16,-821.31 695.5,-831 825.42,-913.09 900.34,-876.59 1001.25,-992.5 1017.62,-1011.31 1032.09,-1074.19 1039.5,-1098 1048.91,-1128.26 1038.59,-1141.57 1057.5,-1167 1088.09,-1208.13 1123.46,-1187.4 1156,-1227 1170.73,-1244.92 1165.64,-1254.36 1174,-1276 1182.63,-1298.37 1187.39,-1303.03 1194.25,-1326 1206.04,-1365.51 1199.98,-1377.64 1212.25,-1417 1222.19,-1448.88 1237.94,-1483.76 1249.43,-1507.46"/>
<polygon fill="black" stroke="black" points="1246.15,-1508.73 1253.7,-1516.16 1252.43,-1505.64 1246.15,-1508.73"/>
<text text-anchor="middle" x="953.88" y="-995.7" font-family="Times New Roman,serif" font-size="14.00">16</text>
</g>
<!-- Leucocytes&#45;&gt;Release D -->
<g id="edge71" class="edge">
<title>Leucocytes&#45;&gt;Release D</title>
<path fill="none" stroke="black" d="M640.63,-762.71C658.04,-738.11 692.6,-695.08 733.75,-674.5 786.59,-648.09 854.84,-641.3 901.02,-640.11"/>
<polygon fill="black" stroke="black" points="900.82,-643.61 910.76,-639.94 900.7,-636.61 900.82,-643.61"/>
<text text-anchor="middle" x="792" y="-677.7" font-family="Times New Roman,serif" font-size="14.00">13</text>
</g>
<!-- Leucocytes&#45;&gt;Admission NC -->
<g id="edge24" class="edge">
<title>Leucocytes&#45;&gt;Admission NC</title>
<path fill="none" stroke="black" d="M634.17,-799.24C649.18,-847.16 691.72,-980.45 733.75,-1089 748.22,-1126.37 766.39,-1168.86 778.33,-1196.25"/>
<polygon fill="black" stroke="black" points="775.06,-1197.52 782.27,-1205.27 781.47,-1194.71 775.06,-1197.52"/>
<text text-anchor="middle" x="705.62" y="-1042.35" font-family="Times New Roman,serif" font-size="14.00">174</text>
</g>
<!-- Return ER -->
<g id="node14" class="node">
<title>Return ER</title>
<polygon fill="#d4001f" stroke="black" points="1152.25,-613 1061.25,-613 1061.25,-577 1152.25,-577 1152.25,-613"/>
<text text-anchor="middle" x="1106.75" y="-590.73" font-family="Times New Roman,serif" font-size="12.00">Return ER: 294</text>
</g>
<!-- Leucocytes&#45;&gt;Return ER -->
<g id="edge66" class="edge">
<title>Leucocytes&#45;&gt;Return ER</title>
<path fill="none" stroke="black" d="M677.78,-768.67C683.73,-767.35 689.74,-766.09 695.5,-765 830.33,-739.48 881.55,-789.11 1001.25,-722 1022.78,-709.93 1062.91,-656.21 1086.68,-622.63"/>
<polygon fill="black" stroke="black" points="1089.46,-624.76 1092.34,-614.56 1083.73,-620.74 1089.46,-624.76"/>
</g>
<!-- Leucocytes&#45;&gt;Release A -->
<g id="edge50" class="edge">
<title>Leucocytes&#45;&gt;Release A</title>
<path fill="none" stroke="black" d="M577.06,-797.21C571.19,-798.7 565.24,-800.02 559.5,-801 550.89,-802.48 541.69,-803.47 532.7,-804.13"/>
<polygon fill="black" stroke="black" points="532.76,-800.62 522.98,-804.71 533.17,-807.61 532.76,-800.62"/>
<text text-anchor="middle" x="549.38" y="-806.76" font-family="Times New Roman,serif" font-size="14.00">227</text>
</g>
<!-- Leucocytes&#45;&gt;IV Antibiotics -->
<g id="edge18" class="edge">
<title>Leucocytes&#45;&gt;IV Antibiotics</title>
<path fill="none" stroke="black" d="M600.89,-799.37C588.73,-807.59 573.76,-816.98 559.5,-824 489.82,-858.31 448.05,-826.27 395,-883 337.99,-943.98 326.96,-1048.06 325.12,-1099.06"/>
<polygon fill="black" stroke="black" points="321.63,-1098.94 324.88,-1109.02 328.62,-1099.11 321.63,-1098.94"/>
<text text-anchor="middle" x="477.25" y="-857.51" font-family="Times New Roman,serif" font-size="14.00">82</text>
</g>
<!-- Admission IC&#45;&gt;CRP -->
<g id="edge12" class="edge">
<title>Admission IC&#45;&gt;CRP</title>
<path fill="none" stroke="black" d="M1263.04,-889.77C1258.31,-790.38 1233.81,-316.54 1194.25,-266 1154.36,-215.04 1112.25,-250.5 1057.5,-216 1027.92,-197.36 1032.34,-177.01 1001.25,-161 821.42,-68.39 752.65,-99 550.38,-99 170.5,-99 170.5,-99 170.5,-99 130.74,-99 112.54,-105.25 90,-138 56.6,-186.52 41.44,-605.95 37.86,-722.22"/>
<polygon fill="black" stroke="black" points="34.36,-722.08 37.56,-732.18 41.36,-722.29 34.36,-722.08"/>
<text text-anchor="middle" x="627.5" y="-102.01" font-family="Times New Roman,serif" font-size="14.00">34</text>
</g>
<!-- Admission IC&#45;&gt;ER Sepsis Triage -->
<g id="edge101" class="edge">
<title>Admission IC&#45;&gt;ER Sepsis Triage</title>
<path fill="none" stroke="black" d="M1302.29,-926.45C1318.55,-939.12 1336.76,-956.74 1349,-976 1397.01,-1051.58 1418.65,-1158.01 1426.35,-1209.37"/>
<polygon fill="black" stroke="black" points="1422.86,-1209.7 1427.73,-1219.11 1429.8,-1208.72 1422.86,-1209.7"/>
</g>
<!-- Admission IC&#45;&gt;Leucocytes -->
<g id="edge75" class="edge">
<title>Admission IC&#45;&gt;Leucocytes</title>
<path fill="none" stroke="black" d="M1261.32,-889.76C1251.32,-821.28 1212.66,-580.88 1156,-533 1084.26,-472.37 812.02,-500.08 733.75,-552 664.89,-597.68 640.35,-700.59 632.21,-751.43"/>
<polygon fill="black" stroke="black" points="628.78,-750.7 630.78,-761.1 635.71,-751.72 628.78,-750.7"/>
<text text-anchor="middle" x="953.88" y="-507.13" font-family="Times New Roman,serif" font-size="14.00">39</text>
</g>
<!-- Admission IC&#45;&gt;Admission IC -->
<g id="edge3" class="edge">
<title>Admission IC&#45;&gt;Admission IC</title>
<path fill="none" stroke="black" d="M1250.88,-926.15C1248.72,-935.54 1253.39,-944 1264.88,-944 1271.34,-944 1275.64,-941.32 1277.78,-937.31"/>
<polygon fill="black" stroke="black" points="1281.24,-937.95 1278.73,-927.66 1274.27,-937.27 1281.24,-937.95"/>
</g>
<!-- Admission IC&#45;&gt;LacticAcid -->
<g id="edge59" class="edge">
<title>Admission IC&#45;&gt;LacticAcid</title>
<path fill="none" stroke="black" d="M1257.31,-926.32C1245.45,-959.08 1219.38,-1029.69 1194.25,-1088 1185.97,-1107.22 1180.15,-1110.5 1174,-1130.5 1158.47,-1181 1165.47,-1196.02 1156,-1248 1142.94,-1319.68 1124.38,-1403.33 1114.52,-1446.64"/>
<polygon fill="black" stroke="black" points="1111.13,-1445.74 1112.32,-1456.27 1117.96,-1447.3 1111.13,-1445.74"/>
<text text-anchor="middle" x="1184.12" y="-1133.7" font-family="Times New Roman,serif" font-size="14.00">38</text>
</g>
<!-- Admission IC&#45;&gt;Admission NC -->
<g id="edge91" class="edge">
<title>Admission IC&#45;&gt;Admission NC</title>
<path fill="none" stroke="black" d="M1217.45,-926.38C1143.77,-957.46 998.95,-1026.56 906.5,-1123 894.94,-1135.06 899.54,-1143.46 888.5,-1156 873.33,-1173.22 853.1,-1188.61 835.18,-1200.45"/>
<polygon fill="black" stroke="black" points="833.3,-1197.5 826.77,-1205.84 837.08,-1203.39 833.3,-1197.5"/>
<text text-anchor="middle" x="1029.38" y="-1032.52" font-family="Times New Roman,serif" font-size="14.00">4</text>
</g>
<!-- LacticAcid&#45;&gt;CRP -->
<g id="edge56" class="edge">
<title>LacticAcid&#45;&gt;CRP</title>
<path fill="none" stroke="black" d="M1104.33,-1494.27C1099.54,-1542.22 1079.59,-1672.18 1001.25,-1734 877.63,-1831.56 830.94,-1842.57 677.5,-1878 607.81,-1894.09 275.87,-1959.51 128.25,-1865 105.86,-1850.66 99.66,-1843.77 90,-1819 51.43,-1720.05 39.45,-944.11 37.36,-781.73"/>
<polygon fill="black" stroke="black" points="40.86,-781.78 37.23,-771.83 33.86,-781.87 40.86,-781.78"/>
<text text-anchor="middle" x="549.38" y="-1905.54" font-family="Times New Roman,serif" font-size="14.00">478</text>
</g>
<!-- LacticAcid&#45;&gt;IV Liquid -->
<g id="edge99" class="edge">
<title>LacticAcid&#45;&gt;IV Liquid</title>
<path fill="none" stroke="black" d="M1103.43,-1494.32C1096.8,-1538.1 1073.32,-1648.55 1001.25,-1694 841.06,-1795.03 759.56,-1791.19 577.5,-1739 395.44,-1686.81 243.8,-1497.94 191.78,-1426.57"/>
<polygon fill="black" stroke="black" points="194.68,-1424.6 186,-1418.53 189,-1428.69 194.68,-1424.6"/>
<text text-anchor="middle" x="627.5" y="-1767.26" font-family="Times New Roman,serif" font-size="14.00">120</text>
</g>
<!-- LacticAcid&#45;&gt;ER Triage -->
<g id="edge106" class="edge">
<title>LacticAcid&#45;&gt;ER Triage</title>
<path fill="none" stroke="black" d="M1085.89,-1494.31C1073.5,-1504.6 1056.69,-1516.62 1039.5,-1523 1031.13,-1526.11 1022,-1528.19 1012.93,-1529.57"/>
<polygon fill="black" stroke="black" points="1012.54,-1526.09 1003.03,-1530.77 1013.38,-1533.04 1012.54,-1526.09"/>
<text text-anchor="middle" x="1029.38" y="-1531.66" font-family="Times New Roman,serif" font-size="14.00">14</text>
</g>
<!-- LacticAcid&#45;&gt;ER Sepsis Triage -->
<g id="edge96" class="edge">
<title>LacticAcid&#45;&gt;ER Sepsis Triage</title>
<path fill="none" stroke="black" d="M1118.89,-1457.57C1135.84,-1431.05 1170.57,-1382.26 1212.25,-1354.5 1265.45,-1319.07 1293.46,-1341.62 1349,-1310 1369.96,-1298.07 1390.35,-1280.11 1405.41,-1265.25"/>
<polygon fill="black" stroke="black" points="1407.6,-1268.01 1412.13,-1258.44 1402.62,-1263.09 1407.6,-1268.01"/>
<text text-anchor="middle" x="1264.88" y="-1357.7" font-family="Times New Roman,serif" font-size="14.00">34</text>
</g>
<!-- LacticAcid&#45;&gt;ER Registration -->
<g id="edge60" class="edge">
<title>LacticAcid&#45;&gt;ER Registration</title>
<path fill="none" stroke="black" d="M1156.47,-1473.81C1199.51,-1470.92 1263.63,-1464.26 1317.5,-1449 1400.66,-1425.45 1425.82,-1421.14 1494.75,-1369 1533.05,-1340.03 1566.87,-1295.33 1586.42,-1266.62"/>
<polygon fill="black" stroke="black" points="1589.24,-1268.71 1591.88,-1258.45 1583.42,-1264.82 1589.24,-1268.71"/>
<text text-anchor="middle" x="1342.25" y="-1447.08" font-family="Times New Roman,serif" font-size="14.00">2</text>
</g>
<!-- LacticAcid&#45;&gt;Leucocytes -->
<g id="edge48" class="edge">
<title>LacticAcid&#45;&gt;Leucocytes</title>
<path fill="none" stroke="black" d="M1099.87,-1457.65C1088.98,-1424.14 1064.51,-1350.98 1039.5,-1291 986.79,-1164.58 955.18,-1141.03 906.5,-1013 896.23,-985.98 911.6,-967.88 888.5,-950.5 881.31,-945.09 876.99,-948.34 868.25,-950.5 859.47,-952.67 859.03,-957.83 850.25,-960 799.99,-972.45 778.69,-985.71 733.75,-960 677.26,-927.68 648.1,-851.93 635.82,-810.07"/>
<polygon fill="black" stroke="black" points="639.26,-809.38 633.2,-800.69 632.52,-811.26 639.26,-809.38"/>
<text text-anchor="middle" x="878.38" y="-953.7" font-family="Times New Roman,serif" font-size="14.00">539</text>
</g>
<!-- LacticAcid&#45;&gt;Admission IC -->
<g id="edge2" class="edge">
<title>LacticAcid&#45;&gt;Admission IC</title>
<path fill="none" stroke="black" d="M1112.31,-1457.6C1122.82,-1415.41 1149.69,-1308.45 1174,-1219.5 1202.48,-1115.3 1238.77,-992.26 1255.15,-937.2"/>
<polygon fill="black" stroke="black" points="1258.49,-938.24 1258,-927.66 1251.79,-936.24 1258.49,-938.24"/>
<text text-anchor="middle" x="1184.12" y="-1222.7" font-family="Times New Roman,serif" font-size="14.00">7</text>
</g>
<!-- LacticAcid&#45;&gt;LacticAcid -->
<g id="edge107" class="edge">
<title>LacticAcid&#45;&gt;LacticAcid</title>
<path fill="none" stroke="black" d="M1092.75,-1494.15C1090.6,-1503.54 1095.26,-1512 1106.75,-1512 1113.21,-1512 1117.51,-1509.32 1119.66,-1505.31"/>
<polygon fill="black" stroke="black" points="1123.11,-1505.95 1120.6,-1495.66 1116.15,-1505.27 1123.11,-1505.95"/>
<text text-anchor="middle" x="1106.75" y="-1515.2" font-family="Times New Roman,serif" font-size="14.00">72</text>
</g>
<!-- LacticAcid&#45;&gt;Release B -->
<g id="edge38" class="edge">
<title>LacticAcid&#45;&gt;Release B</title>
<path fill="none" stroke="black" d="M1135.89,-1494.48C1147.35,-1501.37 1160.95,-1508.78 1174,-1514 1186.23,-1518.89 1199.84,-1522.9 1212.7,-1526.1"/>
<polygon fill="black" stroke="black" points="1211.74,-1529.47 1222.28,-1528.36 1213.35,-1522.66 1211.74,-1529.47"/>
<text text-anchor="middle" x="1184.12" y="-1523.88" font-family="Times New Roman,serif" font-size="14.00">5</text>
</g>
<!-- LacticAcid&#45;&gt;Admission NC -->
<g id="edge27" class="edge">
<title>LacticAcid&#45;&gt;Admission NC</title>
<path fill="none" stroke="black" d="M1057.08,-1458.13C1001.67,-1437.42 917.38,-1404.63 906.5,-1393 889.51,-1374.83 900.43,-1361.83 888.5,-1340 881.96,-1328.03 858.93,-1302.52 850.25,-1292 839.2,-1278.61 826.7,-1263.93 816.2,-1251.73"/>
<polygon fill="black" stroke="black" points="819.14,-1249.77 809.95,-1244.49 813.84,-1254.34 819.14,-1249.77"/>
<text text-anchor="middle" x="953.88" y="-1439.28" font-family="Times New Roman,serif" font-size="14.00">97</text>
</g>
<!-- LacticAcid&#45;&gt;Release A -->
<g id="edge86" class="edge">
<title>LacticAcid&#45;&gt;Release A</title>
<path fill="none" stroke="black" d="M1080.14,-1457.64C1061.93,-1443.84 1037.54,-1423.81 1019.25,-1403 958.17,-1333.51 936.72,-1315.45 906.5,-1228 892.43,-1187.29 916.63,-1067.62 888.5,-1035 842.26,-981.36 799.74,-1022.71 733.75,-997 715.68,-989.96 710.85,-987.85 695.5,-976 686.29,-968.89 686.09,-964.84 677.5,-957 612.21,-897.43 592.66,-886.08 521.25,-834 519.3,-832.58 517.29,-831.13 515.24,-829.69"/>
<polygon fill="black" stroke="black" points="517.67,-827.11 507.46,-824.29 513.68,-832.87 517.67,-827.11"/>
<text text-anchor="middle" x="792" y="-1011.83" font-family="Times New Roman,serif" font-size="14.00">3</text>
</g>
<!-- LacticAcid&#45;&gt;IV Antibiotics -->
<g id="edge90" class="edge">
<title>LacticAcid&#45;&gt;IV Antibiotics</title>
<path fill="none" stroke="black" d="M1094.08,-1494.19C1082.32,-1510.99 1062.65,-1535.36 1039.5,-1549 1024.45,-1557.87 1018.6,-1555.99 1001.25,-1558 882.51,-1571.78 845.12,-1573.42 733.75,-1530 656.26,-1499.79 641.1,-1480.6 577.5,-1427 549.55,-1403.45 550.75,-1388.58 521.25,-1367 486.27,-1341.42 464.79,-1354.72 433.25,-1325 382.44,-1277.11 349.64,-1199.94 334.59,-1158.15"/>
<polygon fill="black" stroke="black" points="337.92,-1157.07 331.32,-1148.78 331.31,-1159.38 337.92,-1157.07"/>
<text text-anchor="middle" x="705.62" y="-1525.65" font-family="Times New Roman,serif" font-size="14.00">76</text>
</g>
<!-- Release E&#45;&gt;Return ER -->
<g id="edge35" class="edge">
<title>Release E&#45;&gt;Return ER</title>
<path fill="none" stroke="black" d="M829.94,-355.18C874.48,-367.71 949.76,-393.7 1001.25,-437 1044.29,-473.19 1076.46,-531.53 1093.07,-566.28"/>
<polygon fill="black" stroke="black" points="1089.88,-567.72 1097.28,-575.3 1096.23,-564.76 1089.88,-567.72"/>
</g>
<!-- Release C&#45;&gt;Return ER -->
<g id="edge92" class="edge">
<title>Release C&#45;&gt;Return ER</title>
<path fill="none" stroke="black" d="M987.02,-676.75C991.83,-673.89 996.7,-670.91 1001.25,-668 1025.24,-652.67 1051.5,-634.32 1071.7,-619.85"/>
<polygon fill="black" stroke="black" points="1073.51,-622.86 1079.58,-614.18 1069.42,-617.18 1073.51,-622.86"/>
<text text-anchor="middle" x="1029.38" y="-657.83" font-family="Times New Roman,serif" font-size="14.00">6</text>
</g>
<!-- Release B&#45;&gt;Admission NC -->
<g id="edge102" class="edge">
<title>Release B&#45;&gt;Admission NC</title>
<path fill="none" stroke="black" d="M1252.94,-1517.59C1235.38,-1489.25 1198.53,-1434.5 1156,-1399 1047.26,-1308.24 997.32,-1320.34 868.25,-1262 858.8,-1257.73 848.78,-1252.97 839.25,-1248.32"/>
<polygon fill="black" stroke="black" points="841.01,-1245.29 830.49,-1244.03 837.93,-1251.58 841.01,-1245.29"/>
</g>
<!-- Release D&#45;&gt;Return ER -->
<g id="edge46" class="edge">
<title>Release D&#45;&gt;Return ER</title>
<path fill="none" stroke="black" d="M995.7,-628.55C1012.4,-623.46 1031.98,-617.49 1049.96,-612.01"/>
<polygon fill="black" stroke="black" points="1050.92,-615.38 1059.46,-609.11 1048.88,-608.68 1050.92,-615.38"/>
<text text-anchor="middle" x="1029.38" y="-623.95" font-family="Times New Roman,serif" font-size="14.00">10</text>
</g>
<!-- Admission NC&#45;&gt;CRP -->
<g id="edge17" class="edge">
<title>Admission NC&#45;&gt;CRP</title>
<path fill="none" stroke="black" d="M771.9,-1243.31C760.51,-1254.48 745.94,-1269.23 733.75,-1283 707.07,-1313.15 709.98,-1330.22 677.5,-1354 639.14,-1382.09 620.1,-1370.89 577.5,-1392 418.37,-1470.83 387.98,-1680.25 232.75,-1594 155.89,-1551.29 159.58,-1508.16 128.25,-1426 38.37,-1190.29 34.95,-878.6 36.29,-781.9"/>
<polygon fill="black" stroke="black" points="39.78,-782.02 36.46,-771.96 32.78,-781.9 39.78,-782.02"/>
<text text-anchor="middle" x="405.12" y="-1566.71" font-family="Times New Roman,serif" font-size="14.00">357</text>
</g>
<!-- Admission NC&#45;&gt;IV Liquid -->
<g id="edge115" class="edge">
<title>Admission NC&#45;&gt;IV Liquid</title>
<path fill="none" stroke="black" d="M738.28,-1243.35C685.27,-1261.88 607.27,-1289.36 577.5,-1301 552.18,-1310.9 547.12,-1316.67 521.25,-1325 404.97,-1362.46 372.83,-1361.19 253,-1385 244.39,-1386.71 235.24,-1388.41 226.31,-1390.01"/>
<polygon fill="black" stroke="black" points="225.92,-1386.52 216.67,-1391.71 227.13,-1393.42 225.92,-1386.52"/>
<text text-anchor="middle" x="477.25" y="-1353.18" font-family="Times New Roman,serif" font-size="14.00">22</text>
</g>
<!-- Admission NC&#45;&gt;ER Triage -->
<g id="edge109" class="edge">
<title>Admission NC&#45;&gt;ER Triage</title>
<path fill="none" stroke="black" d="M812.89,-1243.47C825.32,-1256.04 840.72,-1273.67 850.25,-1292 865.07,-1320.5 854.6,-1332.92 868.25,-1362 874.78,-1375.9 882.59,-1375.82 888.5,-1390 907.39,-1435.32 880.2,-1457.54 906.5,-1499 907.82,-1501.08 909.33,-1503.06 910.98,-1504.94"/>
<polygon fill="black" stroke="black" points="908.19,-1507.13 917.84,-1511.5 913.03,-1502.06 908.19,-1507.13"/>
</g>
<!-- Admission NC&#45;&gt;ER Sepsis Triage -->
<g id="edge44" class="edge">
<title>Admission NC&#45;&gt;ER Sepsis Triage</title>
<path fill="none" stroke="black" d="M850.64,-1226.27C966.41,-1228.81 1227.06,-1234.54 1355.49,-1237.36"/>
<polygon fill="black" stroke="black" points="1355.16,-1240.86 1365.24,-1237.58 1355.32,-1233.86 1355.16,-1240.86"/>
<text text-anchor="middle" x="1106.75" y="-1236.06" font-family="Times New Roman,serif" font-size="14.00">5</text>
</g>
<!-- Admission NC&#45;&gt;Leucocytes -->
<g id="edge61" class="edge">
<title>Admission NC&#45;&gt;Leucocytes</title>
<path fill="none" stroke="black" d="M781.11,-1206.67C767.02,-1180.76 740.19,-1132.06 715.75,-1091.5 707.16,-1077.24 702.03,-1075.31 695.5,-1060 676.11,-1014.59 646.58,-872.23 634.24,-810.28"/>
<polygon fill="black" stroke="black" points="637.74,-809.97 632.36,-800.84 630.87,-811.33 637.74,-809.97"/>
<text text-anchor="middle" x="705.62" y="-1094.7" font-family="Times New Roman,serif" font-size="14.00">422</text>
</g>
<!-- Admission NC&#45;&gt;Admission IC -->
<g id="edge11" class="edge">
<title>Admission NC&#45;&gt;Admission IC</title>
<path fill="none" stroke="black" d="M844.94,-1206.62C859.32,-1200.91 874.75,-1194.21 888.5,-1187 897.01,-1182.53 898.2,-1179.85 906.5,-1175 947.27,-1151.2 961.46,-1152.4 1001.25,-1127 1093.29,-1068.26 1111.92,-1046.72 1194.25,-975 1209.09,-962.07 1224.95,-946.93 1237.78,-934.31"/>
<polygon fill="black" stroke="black" points="1240.01,-937.02 1244.65,-927.49 1235.08,-932.05 1240.01,-937.02"/>
<text text-anchor="middle" x="1029.38" y="-1118.51" font-family="Times New Roman,serif" font-size="14.00">20</text>
</g>
<!-- Admission NC&#45;&gt;LacticAcid -->
<g id="edge100" class="edge">
<title>Admission NC&#45;&gt;LacticAcid</title>
<path fill="none" stroke="black" d="M811.58,-1243.34C823.77,-1256.14 839.4,-1274.06 850.25,-1292 861.39,-1310.43 857.86,-1318.13 868.25,-1337 875.66,-1350.45 882.37,-1350.92 888.5,-1365 904.96,-1402.8 875.99,-1428.27 906.5,-1456 926.35,-1474.04 994.68,-1477.6 1045.82,-1477.58"/>
<polygon fill="black" stroke="black" points="1045.61,-1481.08 1055.59,-1477.53 1045.57,-1474.08 1045.61,-1481.08"/>
<text text-anchor="middle" x="953.88" y="-1479.71" font-family="Times New Roman,serif" font-size="14.00">26</text>
</g>
<!-- Admission NC&#45;&gt;Release C -->
<g id="edge85" class="edge">
<title>Admission NC&#45;&gt;Release C</title>
<path fill="none" stroke="black" d="M812.13,-1206.74C834.93,-1183.63 871.99,-1141.44 888.5,-1097 928.21,-990.08 885.08,-953.03 906.5,-841 914.48,-799.26 930.56,-752.74 941.53,-723.68"/>
<polygon fill="black" stroke="black" points="944.74,-725.08 945.05,-714.49 938.2,-722.57 944.74,-725.08"/>
<text text-anchor="middle" x="878.38" y="-1139.06" font-family="Times New Roman,serif" font-size="14.00">4</text>
</g>
<!-- Admission NC&#45;&gt;Release B -->
<g id="edge15" class="edge">
<title>Admission NC&#45;&gt;Release B</title>
<path fill="none" stroke="black" d="M814.95,-1243.32C829.9,-1255.74 850.18,-1272.47 868.25,-1287 885.09,-1300.54 888.44,-1305.14 906.5,-1317 970.32,-1358.93 989.89,-1363.49 1057.5,-1399 1100.97,-1421.83 1116.26,-1420.17 1156,-1449 1165.16,-1455.64 1165.49,-1459.54 1174,-1467 1191.47,-1482.32 1211.95,-1498.2 1228.95,-1510.85"/>
<polygon fill="black" stroke="black" points="1226.65,-1513.5 1236.77,-1516.63 1230.81,-1507.87 1226.65,-1513.5"/>
<text text-anchor="middle" x="1029.38" y="-1392.41" font-family="Times New Roman,serif" font-size="14.00">17</text>
</g>
<!-- Admission NC&#45;&gt;Release D -->
<g id="edge88" class="edge">
<title>Admission NC&#45;&gt;Release D</title>
<path fill="none" stroke="black" d="M803.25,-1206.9C817.32,-1182.33 843.67,-1137.19 868.25,-1100 876.72,-1087.19 883.45,-1086.5 888.5,-1072 902.48,-1031.89 885.33,-740.95 909.11,-669.52"/>
<polygon fill="black" stroke="black" points="912.12,-671.35 913.04,-660.8 905.74,-668.48 912.12,-671.35"/>
</g>
<!-- Admission NC&#45;&gt;Admission NC -->
<g id="edge63" class="edge">
<title>Admission NC&#45;&gt;Admission NC</title>
<path fill="none" stroke="black" d="M776.37,-1243.15C773.97,-1252.54 779.18,-1261 792,-1261 799.21,-1261 804.02,-1258.32 806.41,-1254.31"/>
<polygon fill="black" stroke="black" points="809.86,-1254.98 807.46,-1244.66 802.9,-1254.22 809.86,-1254.98"/>
<text text-anchor="middle" x="792" y="-1264.2" font-family="Times New Roman,serif" font-size="14.00">174</text>
</g>
<!-- Admission NC&#45;&gt;Release A -->
<g id="edge51" class="edge">
<title>Admission NC&#45;&gt;Release A</title>
<path fill="none" stroke="black" d="M775.99,-1206.86C757.08,-1183.94 723.64,-1143.24 695.5,-1108 642.35,-1041.45 621.74,-1029.78 577.5,-957 569.69,-944.16 530.97,-845.46 521.25,-834 520.33,-832.92 519.37,-831.86 518.36,-830.83"/>
<polygon fill="black" stroke="black" points="520.94,-828.44 511.14,-824.41 516.29,-833.67 520.94,-828.44"/>
<text text-anchor="middle" x="627.5" y="-1089.05" font-family="Times New Roman,serif" font-size="14.00">117</text>
</g>
<!-- Admission NC&#45;&gt;IV Antibiotics -->
<g id="edge6" class="edge">
<title>Admission NC&#45;&gt;IV Antibiotics</title>
<path fill="none" stroke="black" d="M742.5,-1206.59C722.53,-1199.35 699.06,-1191.29 677.5,-1185 625.81,-1169.92 612.53,-1166.87 559.5,-1157.5 502.04,-1147.34 436.02,-1139.67 388.7,-1134.86"/>
<polygon fill="black" stroke="black" points="389.2,-1131.4 378.9,-1133.88 388.5,-1138.36 389.2,-1131.4"/>
<text text-anchor="middle" x="549.38" y="-1160.7" font-family="Times New Roman,serif" font-size="14.00">2</text>
</g>
<!-- Return ER&#45;&gt;CRP -->
<g id="edge112" class="edge">
<title>Return ER&#45;&gt;CRP</title>
<path fill="none" stroke="black" d="M1099.91,-576.7C1086.77,-537.44 1052.02,-443.4 1001.25,-378 945.87,-306.66 931.92,-280.56 850.25,-242 789.31,-213.23 617.76,-197 550.38,-197 170.5,-197 170.5,-197 170.5,-197 61.5,-197 41.25,-606.82 37.71,-722.14"/>
<polygon fill="black" stroke="black" points="34.22,-721.93 37.43,-732.02 41.21,-722.12 34.22,-721.93"/>
</g>
<!-- Return ER&#45;&gt;Leucocytes -->
<g id="edge54" class="edge">
<title>Return ER&#45;&gt;Leucocytes</title>
<path fill="none" stroke="black" d="M1060.87,-590.42C987.69,-585.05 840.18,-583.13 733.75,-640 687.8,-664.55 656.36,-718.97 640.49,-752.56"/>
<polygon fill="black" stroke="black" points="637.48,-750.74 636.52,-761.29 643.85,-753.64 637.48,-750.74"/>
<text text-anchor="middle" x="878.38" y="-600.04" font-family="Times New Roman,serif" font-size="14.00">2</text>
</g>
<!-- Release A&#45;&gt;Leucocytes -->
<g id="edge36" class="edge">
<title>Release A&#45;&gt;Leucocytes</title>
<path fill="none" stroke="black" d="M521.5,-788.8C527.4,-787.08 533.43,-785.57 539.25,-784.5 547.85,-782.92 557,-781.87 566.01,-781.2"/>
<polygon fill="black" stroke="black" points="566.03,-784.7 575.8,-780.62 565.62,-777.71 566.03,-784.7"/>
<text text-anchor="middle" x="549.38" y="-787.7" font-family="Times New Roman,serif" font-size="14.00">2</text>
</g>
<!-- Release A&#45;&gt;Return ER -->
<g id="edge76" class="edge">
<title>Release A&#45;&gt;Return ER</title>
<path fill="none" stroke="black" d="M482.14,-786.92C496.78,-723.94 555.07,-513.61 695.5,-433 703.31,-428.52 707.06,-430.67 715.75,-433 810.29,-458.31 815.95,-505.87 906.5,-543 953.36,-562.22 1009.38,-576.09 1050.07,-584.65"/>
<polygon fill="black" stroke="black" points="1049.14,-588.03 1059.64,-586.62 1050.55,-581.17 1049.14,-588.03"/>
<text text-anchor="middle" x="792" y="-515.84" font-family="Times New Roman,serif" font-size="14.00">276</text>
</g>
<!-- IV Antibiotics&#45;&gt;CRP -->
<g id="edge10" class="edge">
<title>IV Antibiotics&#45;&gt;CRP</title>
<path fill="none" stroke="black" d="M309.04,-1110.6C262.6,-1049.39 113.17,-852.41 57.85,-779.49"/>
<polygon fill="black" stroke="black" points="60.74,-777.5 51.9,-771.64 55.16,-781.73 60.74,-777.5"/>
<text text-anchor="middle" x="171.5" y="-987.33" font-family="Times New Roman,serif" font-size="14.00">39</text>
</g>
<!-- IV Antibiotics&#45;&gt;IV Liquid -->
<g id="edge53" class="edge">
<title>IV Antibiotics&#45;&gt;IV Liquid</title>
<path fill="none" stroke="black" d="M303.8,-1147.44C283.8,-1167.53 252.65,-1201.38 232.75,-1235.5 207.19,-1279.33 189.26,-1335.91 179.93,-1369.72"/>
<polygon fill="black" stroke="black" points="176.6,-1368.64 177.39,-1379.21 183.36,-1370.46 176.6,-1368.64"/>
<text text-anchor="middle" x="242.88" y="-1238.7" font-family="Times New Roman,serif" font-size="14.00">59</text>
</g>
<!-- IV Antibiotics&#45;&gt;ER Triage -->
<g id="edge29" class="edge">
<title>IV Antibiotics&#45;&gt;ER Triage</title>
<path fill="none" stroke="black" d="M357.03,-1147.5C396.24,-1170.35 464.42,-1210.78 521.25,-1248 617.96,-1311.34 630.42,-1346.16 733.75,-1398 782.43,-1422.42 801.99,-1410.75 850.25,-1436 869.15,-1445.89 874.48,-1448.92 888.5,-1465 899.23,-1477.3 895.68,-1484.79 906.5,-1497 909.1,-1499.93 911.98,-1502.76 915.01,-1505.45"/>
<polygon fill="black" stroke="black" points="912.67,-1508.05 922.63,-1511.67 917.1,-1502.63 912.67,-1508.05"/>
<text text-anchor="middle" x="627.5" y="-1369.3" font-family="Times New Roman,serif" font-size="14.00">5</text>
</g>
<!-- IV Antibiotics&#45;&gt;ER Sepsis Triage -->
<g id="edge97" class="edge">
<title>IV Antibiotics&#45;&gt;ER Sepsis Triage</title>
<path fill="none" stroke="black" d="M377.31,-1130.49C512.39,-1134.24 864.05,-1143.33 888.5,-1137 897.36,-1134.7 898,-1130.39 906.5,-1127 1026.61,-1079.11 1070.37,-1046.91 1194.25,-1084 1278.81,-1109.32 1361.12,-1175.84 1402.42,-1212.98"/>
<polygon fill="black" stroke="black" points="1399.96,-1215.48 1409.71,-1219.63 1404.68,-1210.31 1399.96,-1215.48"/>
</g>
<!-- IV Antibiotics&#45;&gt;ER Registration -->
<g id="edge55" class="edge">
<title>IV Antibiotics&#45;&gt;ER Registration</title>
<path fill="none" stroke="black" d="M336.69,-1110.81C349.38,-1092.1 371.04,-1062.97 395,-1043 409.9,-1030.58 416,-1030.85 433.25,-1022 464.86,-1005.78 544.36,-965.83 577.5,-953 734.45,-892.25 1162.89,-725.52 1317.5,-792 1496.26,-868.86 1575.09,-1122.85 1597.26,-1209.63"/>
<polygon fill="black" stroke="black" points="1593.84,-1210.4 1599.65,-1219.26 1600.64,-1208.71 1593.84,-1210.4"/>
<text text-anchor="middle" x="953.88" y="-839.53" font-family="Times New Roman,serif" font-size="14.00">2</text>
</g>
<!-- IV Antibiotics&#45;&gt;Leucocytes -->
<g id="edge26" class="edge">
<title>IV Antibiotics&#45;&gt;Leucocytes</title>
<path fill="none" stroke="black" d="M329.22,-1110.71C337.13,-1080.21 356.94,-1018.68 395,-982 451.38,-927.68 501.47,-971.55 559.5,-919 568.26,-911.07 597.08,-847.81 613.93,-809.74"/>
<polygon fill="black" stroke="black" points="617.1,-811.23 617.93,-800.67 610.69,-808.41 617.1,-811.23"/>
<text text-anchor="middle" x="477.25" y="-960.74" font-family="Times New Roman,serif" font-size="14.00">54</text>
</g>
<!-- IV Antibiotics&#45;&gt;Admission IC -->
<g id="edge113" class="edge">
<title>IV Antibiotics&#45;&gt;Admission IC</title>
<path fill="none" stroke="black" d="M338.58,-1110.68C351.43,-1094.58 372.11,-1071.66 395,-1058 460.39,-1018.96 492.28,-1045.8 559.5,-1010 568.69,-1005.11 568.09,-999.45 577.5,-995 788.6,-895.11 1074.96,-896.77 1200.5,-903.34"/>
<polygon fill="black" stroke="black" points="1200.09,-906.82 1210.27,-903.89 1200.48,-899.84 1200.09,-906.82"/>
<text text-anchor="middle" x="792" y="-943" font-family="Times New Roman,serif" font-size="14.00">46</text>
</g>
<!-- IV Antibiotics&#45;&gt;LacticAcid -->
<g id="edge68" class="edge">
<title>IV Antibiotics&#45;&gt;LacticAcid</title>
<path fill="none" stroke="black" d="M329.92,-1147.24C339.65,-1181.93 363.22,-1259.26 395,-1319 403.14,-1334.3 562.31,-1563.66 577.5,-1572 757.67,-1670.85 861.57,-1693.84 1039.5,-1591 1071.09,-1572.74 1088.95,-1533.06 1097.98,-1505.45"/>
<polygon fill="black" stroke="black" points="1101.32,-1506.49 1100.88,-1495.9 1094.62,-1504.45 1101.32,-1506.49"/>
<text text-anchor="middle" x="705.62" y="-1639.44" font-family="Times New Roman,serif" font-size="14.00">38</text>
</g>
<!-- IV Antibiotics&#45;&gt;Release B -->
<g id="edge95" class="edge">
<title>IV Antibiotics&#45;&gt;Release B</title>
<path fill="none" stroke="black" d="M326.49,-1147.37C334.21,-1229.26 377.44,-1562.9 577.5,-1700 620.34,-1729.36 991.75,-1791.43 1039.5,-1771 1139.66,-1728.15 1216.39,-1616.21 1248.04,-1563.81"/>
<polygon fill="black" stroke="black" points="1250.9,-1565.85 1252.99,-1555.46 1244.88,-1562.28 1250.9,-1565.85"/>
</g>
<!-- IV Antibiotics&#45;&gt;Admission NC -->
<g id="edge72" class="edge">
<title>IV Antibiotics&#45;&gt;Admission NC</title>
<path fill="none" stroke="black" d="M377.2,-1146.02C383.18,-1147.79 389.21,-1149.49 395,-1151 526.53,-1185.33 561.77,-1183.6 695.5,-1208 704.12,-1209.57 713.18,-1211.21 722.15,-1212.82"/>
<polygon fill="black" stroke="black" points="721.47,-1216.25 731.93,-1214.56 722.7,-1209.36 721.47,-1216.25"/>
<text text-anchor="middle" x="549.38" y="-1188.63" font-family="Times New Roman,serif" font-size="14.00">489</text>
</g>
<!-- IV Antibiotics&#45;&gt;Release A -->
<g id="edge41" class="edge">
<title>IV Antibiotics&#45;&gt;Release A</title>
<path fill="none" stroke="black" d="M327.22,-1110.72C334.47,-1053.7 359.07,-880.47 395,-838.5 402.37,-829.89 412.3,-823.46 422.68,-818.67"/>
<polygon fill="black" stroke="black" points="423.8,-821.99 431.74,-814.97 421.16,-815.51 423.8,-821.99"/>
<text text-anchor="middle" x="405.12" y="-841.7" font-family="Times New Roman,serif" font-size="14.00">2</text>
</g>
</g>
</svg>
